<?xml version="1.0" encoding="UTF-8"?>
<!--Generator: Apple Native CoreSVG 149-->
<!DOCTYPE svg
PUBLIC "-//W3C//DTD SVG 1.1//EN"
       "http://www.w3.org/Graphics/SVG/1.1/DTD/svg11.dtd">
<svg version="1.1" xmlns="http://www.w3.org/2000/svg" xmlns:xlink="http://www.w3.org/1999/xlink" width="3300" height="2200">
 <!--glyph: "uni1002D9.medium", point size: 100.0, font version: "17.0d9e1", template writer version: "59"-->
 <g id="Notes">
  <rect height="2200" id="artboard" style="fill:white;opacity:1" width="3300" x="0" y="0"/>
  <line style="fill:none;stroke:black;opacity:1;stroke-width:0.5;" x1="263" x2="3036" y1="292" y2="292"/>
  <text style="stroke:none;fill:black;font-family:sans-serif;font-size:13;font-weight:bold;" transform="matrix(1 0 0 1 263 322)">Weight/Scale Variations</text>
  <text style="stroke:none;fill:black;font-family:sans-serif;font-size:13;text-anchor:middle;" transform="matrix(1 0 0 1 559.711 322)">Ultralight</text>
  <text style="stroke:none;fill:black;font-family:sans-serif;font-size:13;text-anchor:middle;" transform="matrix(1 0 0 1 856.422 322)">Thin</text>
  <text style="stroke:none;fill:black;font-family:sans-serif;font-size:13;text-anchor:middle;" transform="matrix(1 0 0 1 1153.13 322)">Light</text>
  <text style="stroke:none;fill:black;font-family:sans-serif;font-size:13;text-anchor:middle;" transform="matrix(1 0 0 1 1449.84 322)">Regular</text>
  <text style="stroke:none;fill:black;font-family:sans-serif;font-size:13;text-anchor:middle;" transform="matrix(1 0 0 1 1746.56 322)">Medium</text>
  <text style="stroke:none;fill:black;font-family:sans-serif;font-size:13;text-anchor:middle;" transform="matrix(1 0 0 1 2043.27 322)">Semibold</text>
  <text style="stroke:none;fill:black;font-family:sans-serif;font-size:13;text-anchor:middle;" transform="matrix(1 0 0 1 2339.98 322)">Bold</text>
  <text style="stroke:none;fill:black;font-family:sans-serif;font-size:13;text-anchor:middle;" transform="matrix(1 0 0 1 2636.69 322)">Heavy</text>
  <text style="stroke:none;fill:black;font-family:sans-serif;font-size:13;text-anchor:middle;" transform="matrix(1 0 0 1 2933.4 322)">Black</text>
  <line style="fill:none;stroke:black;opacity:1;stroke-width:0.5;" x1="263" x2="3036" y1="1903" y2="1903"/>
  <g transform="matrix(1 0 0 1 263 1933)">
   <path d="M9.24805 0.830078Q10.8691 0.830078 12.2949 0.214844Q13.7207-0.400391 14.8096-1.49414Q15.8984-2.58789 16.5186-4.01367Q17.1387-5.43945 17.1387-7.05078Q17.1387-8.66211 16.5186-10.0879Q15.8984-11.5137 14.8047-12.6074Q13.7109-13.7012 12.2852-14.3164Q10.8594-14.9316 9.23828-14.9316Q7.62695-14.9316 6.20117-14.3164Q4.77539-13.7012 3.69141-12.6074Q2.60742-11.5137 1.9873-10.0879Q1.36719-8.66211 1.36719-7.05078Q1.36719-5.43945 1.9873-4.01367Q2.60742-2.58789 3.69629-1.49414Q4.78516-0.400391 6.21094 0.214844Q7.63672 0.830078 9.24805 0.830078ZM9.24805-0.654297Q7.91992-0.654297 6.7627-1.14746Q5.60547-1.64062 4.73145-2.51953Q3.85742-3.39844 3.36426-4.56055Q2.87109-5.72266 2.87109-7.05078Q2.87109-8.37891 3.35938-9.54102Q3.84766-10.7031 4.72168-11.582Q5.5957-12.4609 6.75293-12.9541Q7.91016-13.4473 9.23828-13.4473Q10.5762-13.4473 11.7334-12.9541Q12.8906-12.4609 13.7695-11.582Q14.6484-10.7031 15.1465-9.54102Q15.6445-8.37891 15.6445-7.05078Q15.6445-5.72266 15.1514-4.56055Q14.6582-3.39844 13.7842-2.51953Q12.9102-1.64062 11.748-1.14746Q10.5859-0.654297 9.24805-0.654297ZM5.83984-7.04102Q5.83984-6.71875 6.04492-6.51855Q6.25-6.31836 6.5918-6.31836L8.50586-6.31836L8.50586-4.39453Q8.50586-4.0625 8.70605-3.85742Q8.90625-3.65234 9.22852-3.65234Q9.56055-3.65234 9.76562-3.85742Q9.9707-4.0625 9.9707-4.39453L9.9707-6.31836L11.8945-6.31836Q12.2266-6.31836 12.4316-6.51855Q12.6367-6.71875 12.6367-7.04102Q12.6367-7.37305 12.4316-7.57812Q12.2266-7.7832 11.8945-7.7832L9.9707-7.7832L9.9707-9.69727Q9.9707-10.0391 9.76562-10.2441Q9.56055-10.4492 9.22852-10.4492Q8.90625-10.4492 8.70605-10.2441Q8.50586-10.0391 8.50586-9.69727L8.50586-7.7832L6.5918-7.7832Q6.25-7.7832 6.04492-7.57812Q5.83984-7.37305 5.83984-7.04102Z"/>
  </g>
  <g transform="matrix(1 0 0 1 281.867 1933)">
   <path d="M11.709 2.91016Q13.75 2.91016 15.5518 2.12891Q17.3535 1.34766 18.7305-0.0292969Q20.1074-1.40625 20.8887-3.20801Q21.6699-5.00977 21.6699-7.05078Q21.6699-9.0918 20.8887-10.8936Q20.1074-12.6953 18.7305-14.0723Q17.3535-15.4492 15.5469-16.2305Q13.7402-17.0117 11.6992-17.0117Q9.6582-17.0117 7.85645-16.2305Q6.05469-15.4492 4.68262-14.0723Q3.31055-12.6953 2.5293-10.8936Q1.74805-9.0918 1.74805-7.05078Q1.74805-5.00977 2.5293-3.20801Q3.31055-1.40625 4.6875-0.0292969Q6.06445 1.34766 7.86621 2.12891Q9.66797 2.91016 11.709 2.91016ZM11.709 1.25Q9.98047 1.25 8.47656 0.605469Q6.97266-0.0390625 5.83496-1.17676Q4.69727-2.31445 4.05762-3.81836Q3.41797-5.32227 3.41797-7.05078Q3.41797-8.7793 4.05762-10.2832Q4.69727-11.7871 5.83008-12.9297Q6.96289-14.0723 8.4668-14.7119Q9.9707-15.3516 11.6992-15.3516Q13.4277-15.3516 14.9316-14.7119Q16.4355-14.0723 17.5781-12.9297Q18.7207-11.7871 19.3652-10.2832Q20.0098-8.7793 20.0098-7.05078Q20.0098-5.32227 19.3701-3.81836Q18.7305-2.31445 17.5928-1.17676Q16.4551-0.0390625 14.9463 0.605469Q13.4375 1.25 11.709 1.25ZM7.39258-7.04102Q7.39258-6.68945 7.62695-6.46484Q7.86133-6.24023 8.23242-6.24023L10.8789-6.24023L10.8789-3.57422Q10.8789-3.21289 11.1035-2.9834Q11.3281-2.75391 11.6797-2.75391Q12.0508-2.75391 12.2852-2.9834Q12.5195-3.21289 12.5195-3.57422L12.5195-6.24023L15.1758-6.24023Q15.5371-6.24023 15.7715-6.46484Q16.0059-6.68945 16.0059-7.04102Q16.0059-7.41211 15.7715-7.6416Q15.5371-7.87109 15.1758-7.87109L12.5195-7.87109L12.5195-10.5176Q12.5195-10.8984 12.2852-11.1279Q12.0508-11.3574 11.6797-11.3574Q11.3281-11.3574 11.1035-11.1279Q10.8789-10.8984 10.8789-10.5176L10.8789-7.87109L8.23242-7.87109Q7.85156-7.87109 7.62207-7.6416Q7.39258-7.41211 7.39258-7.04102Z"/>
  </g>
  <g transform="matrix(1 0 0 1 305.646 1933)">
   <path d="M14.9707 5.66406Q17.0605 5.66406 18.96 5.01465Q20.8594 4.36523 22.4512 3.19336Q24.043 2.02148 25.2197 0.429688Q26.3965-1.16211 27.0459-3.06641Q27.6953-4.9707 27.6953-7.05078Q27.6953-9.14062 27.0459-11.04Q26.3965-12.9395 25.2197-14.5312Q24.043-16.123 22.4512-17.2998Q20.8594-18.4766 18.9551-19.126Q17.0508-19.7754 14.9609-19.7754Q12.8711-19.7754 10.9717-19.126Q9.07227-18.4766 7.48535-17.2998Q5.89844-16.123 4.72168-14.5312Q3.54492-12.9395 2.90039-11.04Q2.25586-9.14062 2.25586-7.05078Q2.25586-4.9707 2.90527-3.06641Q3.55469-1.16211 4.72656 0.429688Q5.89844 2.02148 7.49023 3.19336Q9.08203 4.36523 10.9814 5.01465Q12.8809 5.66406 14.9707 5.66406ZM14.9707 3.84766Q13.1641 3.84766 11.5283 3.2959Q9.89258 2.74414 8.53516 1.74805Q7.17773 0.751953 6.17676-0.610352Q5.17578-1.97266 4.62891-3.6084Q4.08203-5.24414 4.08203-7.05078Q4.08203-8.86719 4.62891-10.5029Q5.17578-12.1387 6.17188-13.501Q7.16797-14.8633 8.52539-15.8594Q9.88281-16.8555 11.5186-17.4023Q13.1543-17.9492 14.9609-17.9492Q16.7773-17.9492 18.4131-17.4023Q20.0488-16.8555 21.4111-15.8594Q22.7734-14.8633 23.7695-13.501Q24.7656-12.1387 25.3174-10.5029Q25.8691-8.86719 25.8691-7.05078Q25.8789-5.24414 25.332-3.6084Q24.7852-1.97266 23.7842-0.610352Q22.7832 0.751953 21.4209 1.74805Q20.0586 2.74414 18.4229 3.2959Q16.7871 3.84766 14.9707 3.84766ZM9.45312-7.04102Q9.45312-6.66016 9.71191-6.41113Q9.9707-6.16211 10.3711-6.16211L14.0625-6.16211L14.0625-2.46094Q14.0625-2.06055 14.3115-1.80664Q14.5605-1.55273 14.9414-1.55273Q15.3516-1.55273 15.6055-1.80664Q15.8594-2.06055 15.8594-2.46094L15.8594-6.16211L19.5605-6.16211Q19.9609-6.16211 20.2148-6.41113Q20.4688-6.66016 20.4688-7.04102Q20.4688-7.45117 20.2148-7.70508Q19.9609-7.95898 19.5605-7.95898L15.8594-7.95898L15.8594-11.6504Q15.8594-12.0605 15.6055-12.3145Q15.3516-12.5684 14.9414-12.5684Q14.5605-12.5684 14.3115-12.3096Q14.0625-12.0508 14.0625-11.6504L14.0625-7.95898L10.3711-7.95898Q9.96094-7.95898 9.70703-7.70508Q9.45312-7.45117 9.45312-7.04102Z"/>
  </g>
  <text style="stroke:none;fill:black;font-family:sans-serif;font-size:13;font-weight:bold;" transform="matrix(1 0 0 1 263 1953)">Design Variations</text>
  <text style="stroke:none;fill:black;font-family:sans-serif;font-size:13;" transform="matrix(1 0 0 1 263 1971)">Symbols are supported in up to nine weights and three scales.</text>
  <text style="stroke:none;fill:black;font-family:sans-serif;font-size:13;" transform="matrix(1 0 0 1 263 1989)">For optimal layout with text and other symbols, vertically align</text>
  <text style="stroke:none;fill:black;font-family:sans-serif;font-size:13;" transform="matrix(1 0 0 1 263 2007)">symbols with the adjacent text.</text>
  <line style="fill:none;stroke:#00AEEF;stroke-width:0.5;opacity:1.0;" x1="776" x2="776" y1="1919" y2="1933"/>
  <g transform="matrix(1 0 0 1 776 1933)">
   <path d="M3.31055 0.15625Q3.70117 0.15625 3.91602-0.00976562Q4.13086-0.175781 4.26758-0.585938L5.52734-4.0332L11.2891-4.0332L12.5488-0.585938Q12.6855-0.175781 12.9004-0.00976562Q13.1152 0.15625 13.4961 0.15625Q13.8867 0.15625 14.1162-0.0585938Q14.3457-0.273438 14.3457-0.644531Q14.3457-0.869141 14.2383-1.17188L9.6582-13.3691Q9.48242-13.8184 9.17969-14.043Q8.87695-14.2676 8.4082-14.2676Q7.5-14.2676 7.17773-13.3789L2.59766-1.16211Q2.49023-0.859375 2.49023-0.634766Q2.49023-0.263672 2.70996-0.0537109Q2.92969 0.15625 3.31055 0.15625ZM6.00586-5.51758L8.37891-12.0898L8.42773-12.0898L10.8008-5.51758Z"/>
  </g>
  <line style="fill:none;stroke:#00AEEF;stroke-width:0.5;opacity:1.0;" x1="793.197" x2="793.197" y1="1919" y2="1933"/>
  <text style="stroke:none;fill:black;font-family:sans-serif;font-size:13;font-weight:bold;" transform="matrix(1 0 0 1 776 1953)">Margins</text>
  <text style="stroke:none;fill:black;font-family:sans-serif;font-size:13;" transform="matrix(1 0 0 1 776 1971)">Leading and trailing margins on the left and right side of each symbol</text>
  <text style="stroke:none;fill:black;font-family:sans-serif;font-size:13;" transform="matrix(1 0 0 1 776 1989)">can be adjusted by modifying the x-location of the margin guidelines.</text>
  <text style="stroke:none;fill:black;font-family:sans-serif;font-size:13;" transform="matrix(1 0 0 1 776 2007)">Modifications are automatically applied proportionally to all</text>
  <text style="stroke:none;fill:black;font-family:sans-serif;font-size:13;" transform="matrix(1 0 0 1 776 2025)">scales and weights.</text>
  <g transform="matrix(1 0 0 1 1289 1933)">
   <path d="M2.8418 1.86523L4.54102 3.57422Q5.18555 4.22852 5.90332 4.17969Q6.62109 4.13086 7.31445 3.35938L18.0078-8.42773L17.041-9.4043L6.42578 2.27539Q6.16211 2.57812 5.89355 2.61719Q5.625 2.65625 5.27344 2.30469L4.10156 1.14258Q3.75 0.791016 3.79395 0.522461Q3.83789 0.253906 4.14062-0.0195312L15.6152-10.8203L14.6387-11.7871L3.04688-0.898438Q2.30469-0.214844 2.25098 0.498047Q2.19727 1.21094 2.8418 1.86523ZM9.25781-16.3281Q8.94531-16.0254 8.90625-15.6348Q8.86719-15.2441 9.04297-14.9512Q9.21875-14.6777 9.55566-14.541Q9.89258-14.4043 10.3809-14.5215Q11.4746-14.7754 12.5977-14.7314Q13.7207-14.6875 14.7949-13.9844L14.209-12.5293Q13.9551-11.9043 14.0674-11.4404Q14.1797-10.9766 14.5801-10.5664L16.875-8.25195Q17.2363-7.88086 17.5781-7.82227Q17.9199-7.76367 18.3398-7.8418L19.4043-8.03711L20.0684-7.36328L20.0293-6.80664Q20-6.43555 20.1221-6.12305Q20.2441-5.81055 20.6055-5.44922L21.3672-4.70703Q21.7285-4.3457 22.1533-4.33105Q22.5781-4.31641 22.9297-4.66797L25.8398-7.58789Q26.1914-7.93945 26.1816-8.35449Q26.1719-8.76953 25.8105-9.13086L25.0391-9.89258Q24.6875-10.2539 24.3799-10.3857Q24.0723-10.5176 23.7109-10.4883L23.1348-10.4395L22.4902-11.0742L22.7344-12.1973Q22.832-12.6172 22.6953-12.9834Q22.5586-13.3496 22.1191-13.7891L19.9219-15.9766Q18.6719-17.2168 17.2607-17.8369Q15.8496-18.457 14.4189-18.4814Q12.9883-18.5059 11.665-17.959Q10.3418-17.4121 9.25781-16.3281ZM10.752-15.957Q11.6602-16.6211 12.7002-16.9043Q13.7402-17.1875 14.8047-17.085Q15.8691-16.9824 16.8701-16.5137Q17.8711-16.0449 18.7012-15.2051L21.1328-12.793Q21.3086-12.6172 21.3525-12.4512Q21.3965-12.2852 21.3379-12.0312L21.0156-10.5469L22.5195-9.0625L23.5059-9.12109Q23.6914-9.13086 23.7891-9.09668Q23.8867-9.0625 24.0332-8.91602L24.6094-8.33984L22.168-5.89844L21.5918-6.47461Q21.4453-6.62109 21.4062-6.71875Q21.3672-6.81641 21.377-7.01172L21.4453-7.98828L19.9512-9.47266L18.4277-9.21875Q18.1836-9.16992 18.042-9.2041Q17.9004-9.23828 17.7148-9.41406L15.7129-11.416Q15.5176-11.5918 15.4932-11.7529Q15.4688-11.9141 15.5859-12.1875L16.4648-14.2773Q15.293-15.3711 13.8281-15.791Q12.3633-16.2109 10.8398-15.7617Q10.7227-15.7324 10.6885-15.8057Q10.6543-15.8789 10.752-15.957Z"/>
  </g>
  <text style="stroke:none;fill:black;font-family:sans-serif;font-size:13;font-weight:bold;" transform="matrix(1 0 0 1 1289 1953)">Exporting</text>
  <text style="stroke:none;fill:black;font-family:sans-serif;font-size:13;" transform="matrix(1 0 0 1 1289 1971)">Symbols should be outlined when exporting to ensure the</text>
  <text style="stroke:none;fill:black;font-family:sans-serif;font-size:13;" transform="matrix(1 0 0 1 1289 1989)">design is preserved when submitting to Xcode.</text>
  <text id="template-version" style="stroke:none;fill:black;font-family:sans-serif;font-size:13;text-anchor:end;" transform="matrix(1 0 0 1 3036 1933)">Template v.2.0</text>
  <text style="stroke:none;fill:black;font-family:sans-serif;font-size:13;text-anchor:end;" transform="matrix(1 0 0 1 3036 1951)">Requires Xcode 13 or greater</text>
  <text id="descriptive-name" style="stroke:none;fill:black;font-family:sans-serif;font-size:13;text-anchor:end;" transform="matrix(1 0 0 1 3036 1969)">Generated from bell</text>
  <text style="stroke:none;fill:black;font-family:sans-serif;font-size:13;text-anchor:end;" transform="matrix(1 0 0 1 3036 1987)">Typeset at 100 points</text>
  <text style="stroke:none;fill:black;font-family:sans-serif;font-size:13;" transform="matrix(1 0 0 1 263 726)">Small</text>
  <text style="stroke:none;fill:black;font-family:sans-serif;font-size:13;" transform="matrix(1 0 0 1 263 1156)">Medium</text>
  <text style="stroke:none;fill:black;font-family:sans-serif;font-size:13;" transform="matrix(1 0 0 1 263 1586)">Large</text>
 </g>
 <g id="Guides">
  <g id="H-reference" style="fill:#27AAE1;stroke:none;" transform="matrix(1 0 0 1 339 696)">
   <path d="M0.976562 0L3.66211 0L29.3457-67.1387L30.0293-67.1387L30.0293-70.459L28.125-70.459ZM11.6699-24.4629L46.9727-24.4629L46.2402-26.709L12.4512-26.709ZM55.127 0L57.7637 0L30.6152-70.459L29.4434-70.459L29.4434-67.1387Z"/>
  </g>
  <line id="Baseline-S" style="fill:none;stroke:#27AAE1;opacity:1;stroke-width:0.5;" x1="263" x2="3036" y1="696" y2="696"/>
  <line id="Capline-S" style="fill:none;stroke:#27AAE1;opacity:1;stroke-width:0.5;" x1="263" x2="3036" y1="625.541" y2="625.541"/>
  <g id="H-reference" style="fill:#27AAE1;stroke:none;" transform="matrix(1 0 0 1 339 1126)">
   <path d="M0.976562 0L3.66211 0L29.3457-67.1387L30.0293-67.1387L30.0293-70.459L28.125-70.459ZM11.6699-24.4629L46.9727-24.4629L46.2402-26.709L12.4512-26.709ZM55.127 0L57.7637 0L30.6152-70.459L29.4434-70.459L29.4434-67.1387Z"/>
  </g>
  <line id="Baseline-M" style="fill:none;stroke:#27AAE1;opacity:1;stroke-width:0.5;" x1="263" x2="3036" y1="1126" y2="1126"/>
  <line id="Capline-M" style="fill:none;stroke:#27AAE1;opacity:1;stroke-width:0.5;" x1="263" x2="3036" y1="1055.54" y2="1055.54"/>
  <g id="H-reference" style="fill:#27AAE1;stroke:none;" transform="matrix(1 0 0 1 339 1556)">
   <path d="M0.976562 0L3.66211 0L29.3457-67.1387L30.0293-67.1387L30.0293-70.459L28.125-70.459ZM11.6699-24.4629L46.9727-24.4629L46.2402-26.709L12.4512-26.709ZM55.127 0L57.7637 0L30.6152-70.459L29.4434-70.459L29.4434-67.1387Z"/>
  </g>
  <line id="Baseline-L" style="fill:none;stroke:#27AAE1;opacity:1;stroke-width:0.5;" x1="263" x2="3036" y1="1556" y2="1556"/>
  <line id="Capline-L" style="fill:none;stroke:#27AAE1;opacity:1;stroke-width:0.5;" x1="263" x2="3036" y1="1485.54" y2="1485.54"/>
  <line id="left-margin" style="fill:none;stroke:#00AEEF;stroke-width:0.5;opacity:1.0;" x1="1393.42" x2="1393.42" y1="1030.79" y2="1150.12"/>
  <line id="right-margin" style="fill:none;stroke:#00AEEF;stroke-width:0.5;opacity:1.0;" x1="1506.27" x2="1506.27" y1="1030.79" y2="1150.12"/>
 </g>
 <g id="Symbols">
  <g id="Black-L" transform="matrix(1 0 0 1 2855.96 1556)">
   <path d="M10.4492-3.51562Q10.4492 2.49023 14.3555 6.17676Q18.2617 9.86328 24.8047 9.86328L47.9492 9.86328Q48.1445 14.3555 50.2686 18.6768Q52.3926 22.998 56.2012 26.5137Q60.0098 30.0293 65.3809 32.1045Q70.752 34.1797 77.4414 34.1797Q84.1309 34.1797 89.4775 32.1045Q94.8242 30.0293 98.6572 26.5137Q102.49 22.998 104.614 18.6768Q106.738 14.3555 106.934 9.86328L130.078 9.86328Q136.621 9.86328 140.527 6.17676Q144.434 2.49023 144.434-3.51562Q144.434-7.51953 142.822-10.9131Q141.211-14.3066 138.501-17.2119Q135.791-20.1172 132.568-22.7051Q130.566-24.2188 129.321-26.416Q128.076-28.6133 127.271-31.5918Q126.465-34.5703 125.854-38.4521Q125.244-42.334 124.609-47.2656Q123.584-57.8613 120.337-66.4795Q117.09-75.0977 111.621-81.1523Q106.152-87.207 98.3398-90.0391Q95.8008-96.6797 90.2832-100.708Q84.7656-104.736 77.4414-104.736Q70.1172-104.736 64.5752-100.708Q59.0332-96.6797 56.543-90.0391Q48.7305-87.207 43.2373-81.1523Q37.7441-75.0977 34.5215-66.4795Q31.2988-57.8613 30.2734-47.2656Q29.6387-42.334 29.0283-38.4521Q28.418-34.5703 27.6123-31.5918Q26.8066-28.6133 25.5371-26.416Q24.2676-24.2188 22.3145-22.7051Q19.0918-20.1172 16.3818-17.2119Q13.6719-14.3066 12.0605-10.9131Q10.4492-7.51953 10.4492-3.51562ZM35.5469-8.88672L35.5469-9.57031Q37.207-10.3516 38.7939-11.3281Q40.3809-12.3047 41.8213-13.5498Q43.2617-14.7949 44.4824-16.3574Q45.8008-18.0176 46.8018-20.9229Q47.8027-23.8281 48.5596-27.4902Q49.3164-31.1523 49.8535-35.2295Q50.3906-39.3066 50.7324-43.3105Q51.3672-53.125 53.6865-59.2285Q56.0059-65.332 59.4482-68.5059Q62.8906-71.6797 66.8945-72.7539Q67.9199-72.998 68.5547-73.6084Q69.1895-74.2188 69.3848-75.7812Q69.8242-80.1758 71.9238-82.5684Q74.0234-84.9609 77.4414-84.9609Q80.8105-84.9609 82.9346-82.5684Q85.0586-80.1758 85.498-75.7812Q85.6934-74.2188 86.3281-73.6084Q86.9629-72.998 87.9883-72.7539Q91.9922-71.6797 95.4346-68.5059Q98.877-65.332 101.196-59.2285Q103.516-53.125 104.15-43.3105Q104.492-39.3066 105.029-35.2295Q105.566-31.1523 106.348-27.4902Q107.129-23.8281 108.13-20.9229Q109.131-18.0176 110.4-16.3574Q111.572-14.7949 112.866-13.5498Q114.16-12.3047 115.625-11.3281Q117.09-10.3516 118.75-9.57031L118.75-8.88672ZM67.1875 9.86328L87.6465 9.86328Q87.3535 14.1602 84.4971 16.8701Q81.6406 19.5801 77.4414 19.5801Q73.2422 19.5801 70.3857 16.8701Q67.5293 14.1602 67.1875 9.86328Z"/>
  </g>
  <g id="Heavy-L" transform="matrix(1 0 0 1 2560.32 1556)">
   <path d="M11.2793-2.58789Q11.2793 2.73438 14.7705 5.98145Q18.2617 9.22852 24.1699 9.22852L48.584 9.22852Q48.7793 13.7207 50.8057 17.9443Q52.832 22.168 56.4453 25.5859Q60.0586 29.0039 65.0879 30.9814Q70.1172 32.959 76.3672 32.959Q82.5684 32.959 87.5977 30.9814Q92.627 29.0039 96.2646 25.5859Q99.9023 22.168 101.904 17.9443Q103.906 13.7207 104.102 9.22852L128.564 9.22852Q134.424 9.22852 137.939 5.98145Q141.455 2.73438 141.455-2.58789Q141.455-6.39648 139.795-9.66797Q138.135-12.9395 135.425-15.8203Q132.715-18.7012 129.639-21.3379Q127.686-22.9492 126.465-25.293Q125.244-27.6367 124.487-30.6885Q123.73-33.7402 123.169-37.5488Q122.607-41.3574 122.07-45.8984Q121.191-56.6895 118.115-65.332Q115.039-73.9746 109.692-80.0049Q104.346-86.0352 96.4355-88.8672Q94.1406-95.4102 88.8428-99.4629Q83.5449-103.516 76.3672-103.516Q69.1895-103.516 63.8428-99.4629Q58.4961-95.4102 56.25-88.8672Q48.3887-86.0352 42.9932-80.0049Q37.5977-73.9746 34.5703-65.332Q31.543-56.6895 30.6641-45.8984Q30.0781-41.3574 29.541-37.5488Q29.0039-33.7402 28.2227-30.6885Q27.4414-27.6367 26.2207-25.293Q25-22.9492 23.0957-21.3379Q19.9707-18.7012 17.2852-15.8203Q14.5996-12.9395 12.9395-9.66797Q11.2793-6.39648 11.2793-2.58789ZM32.9102-7.03125L32.9102-7.71484Q34.2773-8.59375 35.8154-9.7168Q37.3535-10.8398 38.8672-12.2559Q40.3809-13.6719 41.748-15.332Q43.2129-17.0898 44.2871-20.0195Q45.3613-22.9492 46.1182-26.6113Q46.875-30.2734 47.4121-34.375Q47.9492-38.4766 48.291-42.6758Q48.877-53.125 51.2695-59.5703Q53.6621-66.0156 57.2754-69.3604Q60.8887-72.7051 65.2344-73.877Q66.3086-74.1699 66.9678-74.7803Q67.627-75.3906 67.8223-76.9043Q68.2129-81.3965 70.459-83.9844Q72.7051-86.5723 76.3672-86.5723Q79.9805-86.5723 82.251-83.9844Q84.5215-81.3965 84.9121-76.9043Q85.0586-75.3906 85.7178-74.7803Q86.377-74.1699 87.5-73.877Q91.7969-72.7051 95.4346-69.3604Q99.0723-66.0156 101.44-59.5703Q103.809-53.125 104.395-42.6758Q104.736-38.4766 105.273-34.375Q105.811-30.2734 106.616-26.6113Q107.422-22.9492 108.496-20.0195Q109.57-17.0898 110.986-15.332Q112.305-13.6719 113.721-12.2559Q115.137-10.8398 116.553-9.7168Q117.969-8.59375 119.385-7.71484L119.385-7.03125ZM65.2832 9.22852L87.4023 9.22852Q87.1094 14.0625 84.0088 17.041Q80.9082 20.0195 76.3672 20.0195Q71.7773 20.0195 68.7012 17.041Q65.625 14.0625 65.2832 9.22852Z"/>
  </g>
  <g id="Bold-L" transform="matrix(1 0 0 1 2264.83 1556)">
   <path d="M12.207-1.51367Q12.207 3.02734 15.2588 5.78613Q18.3105 8.54492 23.4375 8.54492L49.3652 8.54492Q49.5117 12.9883 51.416 17.1387Q53.3203 21.2891 56.7139 24.5605Q60.1074 27.832 64.7705 29.7363Q69.4336 31.6406 75.1465 31.6406Q80.8594 31.6406 85.5225 29.7607Q90.1855 27.8809 93.5791 24.585Q96.9727 21.2891 98.877 17.1631Q100.781 13.0371 100.977 8.54492L126.855 8.54492Q132.031 8.54492 135.059 5.78613Q138.086 3.02734 138.086-1.51367Q138.086-5.12695 136.401-8.27637Q134.717-11.4258 132.031-14.3066Q129.346-17.1875 126.367-19.873Q124.463-21.582 123.291-24.0723Q122.119-26.5625 121.387-29.7119Q120.654-32.8613 120.166-36.5479Q119.678-40.2344 119.238-44.3848Q118.506-55.3711 115.649-64.0625Q112.793-72.7539 107.544-78.7354Q102.295-84.7168 94.3359-87.5488Q92.334-93.9941 87.2559-98.0957Q82.1777-102.197 75.1465-102.197Q68.1152-102.197 63.0371-98.0957Q57.959-93.9941 55.957-87.5488Q47.998-84.7168 42.749-78.7354Q37.5-72.7539 34.668-64.0625Q31.8359-55.3711 31.1035-44.3848Q30.6152-40.2344 30.127-36.5479Q29.6387-32.8613 28.9062-29.7119Q28.1738-26.5625 27.002-24.0723Q25.8301-21.582 23.9258-19.873Q20.9961-17.1875 18.3105-14.3066Q15.625-11.4258 13.916-8.27637Q12.207-5.12695 12.207-1.51367ZM29.9805-4.93164L29.9805-5.66406Q31.0059-6.64062 32.4707-7.95898Q33.9355-9.27734 35.5469-10.8643Q37.1582-12.4512 38.6719-14.209Q40.2832-16.1133 41.4551-19.043Q42.627-21.9727 43.4082-25.6104Q44.1895-29.248 44.7266-33.4229Q45.2637-37.5977 45.6055-42.041Q46.1426-53.1738 48.584-59.9854Q51.0254-66.7969 54.8584-70.3369Q58.6914-73.877 63.3789-75.1465Q64.5508-75.4395 65.2344-76.0742Q65.918-76.709 66.0645-78.125Q66.4062-82.7637 68.7988-85.5469Q71.1914-88.3301 75.1465-88.3301Q79.1016-88.3301 81.4941-85.5469Q83.8867-82.7637 84.2285-78.125Q84.375-76.709 85.0586-76.0742Q85.7422-75.4395 86.9141-75.1465Q91.6504-73.877 95.459-70.3369Q99.2676-66.7969 101.709-59.9854Q104.15-53.1738 104.736-42.041Q105.078-37.5977 105.591-33.4229Q106.104-29.248 106.909-25.6104Q107.715-21.9727 108.887-19.043Q110.059-16.1133 111.67-14.209Q113.135-12.4512 114.673-10.8643Q116.211-9.27734 117.603-7.95898Q118.994-6.64062 120.068-5.66406L120.068-4.93164ZM63.1836 8.54492L87.1094 8.54492Q86.8164 13.9648 83.4717 17.2607Q80.127 20.5566 75.1465 20.5566Q70.166 20.5566 66.8457 17.2607Q63.5254 13.9648 63.1836 8.54492Z"/>
  </g>
  <g id="Semibold-L" transform="matrix(1 0 0 1 1968.95 1556)">
   <path d="M12.8418-0.78125Q12.8418 3.17383 15.5762 5.59082Q18.3105 8.00781 22.9492 8.00781L49.8535 8.00781Q50 12.5 51.8311 16.5771Q53.6621 20.6543 56.8848 23.8525Q60.1074 27.0508 64.5264 28.8818Q68.9453 30.7129 74.3164 30.7129Q79.6875 30.7129 84.082 28.8818Q88.4766 27.0508 91.7236 23.8525Q94.9707 20.6543 96.8018 16.5771Q98.6328 12.5 98.7793 8.00781L125.635 8.00781Q130.322 8.00781 133.057 5.59082Q135.791 3.17383 135.791-0.78125Q135.791-4.19922 134.058-7.2998Q132.324-10.4004 129.639-13.2324Q126.953-16.0645 124.121-18.7988Q122.217-20.6055 121.094-23.2178Q119.971-25.8301 119.263-29.0283Q118.555-32.2266 118.115-35.8398Q117.676-39.4531 117.236-43.3594Q116.602-54.4434 113.916-63.1836Q111.23-71.9238 106.055-77.8564Q100.879-83.7891 92.8711-86.6211Q91.0645-92.9688 86.1328-97.1191Q81.2012-101.27 74.3164-101.27Q67.3828-101.27 62.4512-97.1191Q57.5195-92.9688 55.7617-86.6211Q47.7051-83.7891 42.5293-77.8564Q37.3535-71.9238 34.668-63.1836Q31.9824-54.4434 31.3965-43.3594Q30.957-39.4531 30.4932-35.8398Q30.0293-32.2266 29.3457-29.0283Q28.6621-25.8301 27.5146-23.2178Q26.3672-20.6055 24.5117-18.7988Q21.6797-16.0645 18.9941-13.2324Q16.3086-10.4004 14.5752-7.2998Q12.8418-4.19922 12.8418-0.78125ZM27.9297-3.51562L27.9297-4.19922Q28.7598-5.27344 30.1758-6.71387Q31.5918-8.1543 33.252-9.8877Q34.9121-11.6211 36.5234-13.3789Q38.2812-15.3809 39.502-18.3105Q40.7227-21.2402 41.5283-24.9023Q42.334-28.5645 42.8467-32.7637Q43.3594-36.9629 43.7012-41.5527Q44.2383-53.1738 46.7041-60.2539Q49.1699-67.334 53.1494-70.9961Q57.1289-74.6582 62.1094-76.0254Q63.3301-76.3184 64.0137-76.9775Q64.6973-77.6367 64.8438-78.9551Q65.1855-83.6914 67.6758-86.6211Q70.166-89.5508 74.3164-89.5508Q78.4668-89.5508 80.957-86.6211Q83.4473-83.6914 83.7891-78.9551Q83.8867-77.6367 84.5947-76.9775Q85.3027-76.3184 86.5234-76.0254Q91.5039-74.6582 95.459-70.9961Q99.4141-67.334 101.904-60.2539Q104.395-53.1738 104.932-41.5527Q105.273-36.9629 105.762-32.7637Q106.25-28.5645 107.08-24.9023Q107.91-21.2402 109.131-18.3105Q110.352-15.3809 112.109-13.3789Q113.672-11.6211 115.308-9.8877Q116.943-8.1543 118.311-6.71387Q119.678-5.27344 120.508-4.19922L120.508-3.51562ZM61.6699 8.00781L86.9141 8.00781Q86.5723 13.916 83.0811 17.4072Q79.5898 20.8984 74.3164 20.8984Q69.043 20.8984 65.5273 17.4072Q62.0117 13.916 61.6699 8.00781Z"/>
  </g>
  <g id="Medium-L" transform="matrix(1 0 0 1 1672.87 1556)">
   <path d="M13.3301-0.244141Q13.3301 3.32031 15.8203 5.49316Q18.3105 7.66602 22.5586 7.66602L50.2441 7.66602Q50.3906 12.1094 52.1484 16.1621Q53.9062 20.2148 57.0068 23.3154Q60.1074 26.416 64.3555 28.2227Q68.6035 30.0293 73.6816 30.0293Q78.7598 30.0293 82.9834 28.2471Q87.207 26.4648 90.332 23.3398Q93.457 20.2148 95.2148 16.1865Q96.9727 12.1582 97.1191 7.66602L124.756 7.66602Q129.053 7.66602 131.543 5.49316Q134.033 3.32031 134.033-0.244141Q134.033-3.56445 132.275-6.56738Q130.518-9.57031 127.856-12.4268Q125.195-15.2832 122.412-18.0176Q120.557-19.873 119.434-22.5586Q118.311-25.2441 117.627-28.4912Q116.943-31.7383 116.528-35.3027Q116.113-38.8672 115.771-42.5293Q115.234-53.7598 112.646-62.5Q110.059-71.2402 104.932-77.1729Q99.8047-83.1055 91.7969-85.9375Q90.1367-92.2363 85.3027-96.4111Q80.4688-100.586 73.6816-100.586Q66.8457-100.586 62.0361-96.4111Q57.2266-92.2363 55.5664-85.9375Q47.5098-83.1055 42.4072-77.1729Q37.3047-71.2402 34.7168-62.5Q32.1289-53.7598 31.5918-42.5293Q31.25-38.8672 30.8105-35.3027Q30.3711-31.7383 29.7119-28.4912Q29.0527-25.2441 27.9297-22.5586Q26.8066-19.873 24.9512-18.0176Q22.168-15.2832 19.5068-12.4268Q16.8457-9.57031 15.0879-6.56738Q13.3301-3.56445 13.3301-0.244141ZM26.3672-2.39258L26.3672-3.125Q27.0508-4.24805 28.4424-5.76172Q29.834-7.27539 31.543-9.10645Q33.252-10.9375 34.9121-12.793Q36.7676-14.8438 38.0127-17.7979Q39.2578-20.752 40.0879-24.3896Q40.918-28.0273 41.4307-32.2754Q41.9434-36.5234 42.2852-41.2109Q42.8223-53.1738 45.3125-60.4492Q47.8027-67.7246 51.8799-71.5088Q55.957-75.293 61.1328-76.6602Q62.4023-77.002 63.0859-77.6611Q63.7695-78.3203 63.916-79.6387Q64.209-84.4238 66.7969-87.4512Q69.3848-90.4785 73.6816-90.4785Q77.9785-90.4785 80.5664-87.4512Q83.1543-84.4238 83.3984-79.6387Q83.5449-78.3203 84.2529-77.6611Q84.9609-77.002 86.2305-76.6602Q91.4062-75.293 95.459-71.5088Q99.5117-67.7246 102.026-60.4492Q104.541-53.1738 105.078-41.2109Q105.42-36.5234 105.908-32.2754Q106.396-28.0273 107.251-24.3896Q108.105-20.752 109.351-17.7979Q110.596-14.8438 112.451-12.793Q114.111-10.9375 115.796-9.10645Q117.48-7.27539 118.848-5.76172Q120.215-4.24805 120.85-3.125L120.85-2.39258ZM60.5957 7.66602L86.7676 7.66602Q86.4258 13.8184 82.7881 17.5049Q79.1504 21.1914 73.6816 21.1914Q68.2129 21.1914 64.5752 17.5049Q60.9375 13.8184 60.5957 7.66602Z"/>
  </g>
  <g id="Regular-L" transform="matrix(1 0 0 1 1376.99 1556)">
   <path d="M13.9648 0.488281Q13.9648 3.51562 16.1377 5.34668Q18.3105 7.17773 22.0703 7.17773L50.7324 7.17773Q50.8789 11.6211 52.5635 15.6006Q54.248 19.5801 57.2021 22.6074Q60.1562 25.6348 64.1357 27.3682Q68.1152 29.1016 72.8516 29.1016Q77.5879 29.1016 81.5674 27.3926Q85.5469 25.6836 88.501 22.6318Q91.4551 19.5801 93.1396 15.625Q94.8242 11.6699 94.9707 7.17773L123.584 7.17773Q127.393 7.17773 129.565 5.34668Q131.738 3.51562 131.738 0.488281Q131.738-2.68555 129.956-5.61523Q128.174-8.54492 125.513-11.377Q122.852-14.209 120.166-16.9922Q118.359-18.8965 117.261-21.7041Q116.162-24.5117 115.503-27.8076Q114.844-31.1035 114.478-34.6191Q114.111-38.1348 113.818-41.5039Q113.379-52.8809 110.938-61.6455Q108.496-70.4102 103.467-76.3184Q98.4375-82.2266 90.332-85.0098Q88.8672-91.2598 84.2041-95.459Q79.541-99.6582 72.8516-99.6582Q66.1133-99.6582 61.4746-95.459Q56.8359-91.2598 55.3711-85.0098Q47.2168-82.2266 42.2119-76.3184Q37.207-70.4102 34.7656-61.6455Q32.3242-52.8809 31.8848-41.5039Q31.5918-38.1348 31.2012-34.6191Q30.8105-31.1035 30.1758-27.8076Q29.541-24.5117 28.4424-21.7041Q27.3438-18.8965 25.5371-16.9922Q22.8516-14.209 20.1904-11.377Q17.5293-8.54492 15.7471-5.61523Q13.9648-2.68555 13.9648 0.488281ZM24.3652-0.976562L24.3652-1.70898Q24.8047-2.88086 26.1475-4.54102Q27.4902-6.20117 29.2725-8.1543Q31.0547-10.1074 32.8125-12.0117Q34.7656-14.1602 36.084-17.1143Q37.4023-20.0684 38.2324-23.7061Q39.0625-27.3438 39.5752-31.6162Q40.0879-35.8887 40.4297-40.7227Q40.918-53.1738 43.457-60.7178Q45.9961-68.2617 50.2197-72.168Q54.4434-76.0742 59.8633-77.5391Q61.1816-77.8809 61.8896-78.54Q62.5977-79.1992 62.6953-80.4688Q62.9883-85.3516 65.6738-88.5254Q68.3594-91.6992 72.8516-91.6992Q77.3438-91.6992 80.0293-88.5254Q82.7148-85.3516 82.959-80.4688Q83.0566-79.1992 83.7891-78.54Q84.5215-77.8809 85.8398-77.5391Q91.2598-76.0742 95.459-72.168Q99.6582-68.2617 102.222-60.7178Q104.785-53.1738 105.273-40.7227Q105.615-35.8887 106.104-31.6162Q106.592-27.3438 107.446-23.7061Q108.301-20.0684 109.619-17.1143Q110.938-14.1602 112.891-12.0117Q114.648-10.1074 116.431-8.1543Q118.213-6.20117 119.556-4.54102Q120.898-2.88086 121.338-1.70898L121.338-0.976562ZM59.1309 7.17773L86.5723 7.17773Q86.2305 13.7695 82.4219 17.6514Q78.6133 21.5332 72.8516 21.5332Q67.0898 21.5332 63.2812 17.6514Q59.4727 13.7695 59.1309 7.17773Z"/>
  </g>
  <g id="Light-L" transform="matrix(1 0 0 1 1080.26 1556)">
   <path d="M14.7461 1.95312Q14.7461 4.39453 16.4307 5.88379Q18.1152 7.37305 20.9961 7.37305L52.3926 7.37305Q52.5391 11.7188 54.0771 15.5029Q55.6152 19.2871 58.3496 22.1191Q61.084 24.9512 64.7705 26.5625Q68.457 28.1738 72.9004 28.1738Q77.2949 28.1738 80.9814 26.5869Q84.668 25 87.4023 22.1436Q90.1367 19.2871 91.6748 15.5029Q93.2129 11.7188 93.3594 7.37305L124.756 7.37305Q127.637 7.37305 129.321 5.88379Q131.006 4.39453 131.006 1.95312Q131.006-1.2207 129.297-4.12598Q127.588-7.03125 125-9.81445Q122.412-12.5977 119.824-15.3809Q117.725-17.7246 116.504-21.0693Q115.283-24.4141 114.624-28.418Q113.965-32.4219 113.55-36.7432Q113.135-41.0645 112.646-45.3125Q111.963-55.2734 109.448-63.1592Q106.934-71.0449 102.051-76.3916Q97.168-81.7383 89.3555-84.1309Q88.1348-90.5273 83.6914-94.6289Q79.248-98.7305 72.9004-98.7305Q66.5039-98.7305 62.0605-94.6289Q57.6172-90.5273 56.3965-84.1309Q48.584-81.7383 43.7012-76.3916Q38.8184-71.0449 36.3037-63.1592Q33.7891-55.2734 33.1055-45.3125Q32.6172-41.0645 32.2021-36.7432Q31.7871-32.4219 31.1279-28.418Q30.4688-24.4141 29.2725-21.0693Q28.0762-17.7246 25.9277-15.3809Q23.3398-12.5977 20.7764-9.81445Q18.2129-7.03125 16.4795-4.12598Q14.7461-1.2207 14.7461 1.95312ZM22.6074 1.07422L22.6074 0.341797Q22.9004-1.07422 24.2676-3.05176Q25.6348-5.0293 27.5635-7.20215Q29.4922-9.375 31.3965-11.377Q33.7402-13.916 35.1318-17.4805Q36.5234-21.0449 37.3047-25.3662Q38.0859-29.6875 38.5986-34.5703Q39.1113-39.4531 39.6484-44.5312Q40.4297-55.2246 42.8955-62.085Q45.3613-68.9453 49.4141-72.7783Q53.4668-76.6113 58.9844-78.0762Q60.4492-78.4668 61.2793-79.1748Q62.1094-79.8828 62.2559-81.25Q62.6953-86.084 65.4541-89.3066Q68.2129-92.5293 72.9004-92.5293Q77.5391-92.5293 80.2979-89.3066Q83.0566-86.084 83.4961-81.25Q83.6426-79.8828 84.4727-79.1748Q85.3027-78.4668 86.8164-78.0762Q92.2852-76.6113 96.3379-72.7783Q100.391-68.9453 102.856-62.085Q105.322-55.2246 106.104-44.5312Q106.641-39.4531 107.129-34.5703Q107.617-29.6875 108.423-25.3662Q109.229-21.0449 110.62-17.4805Q112.012-13.916 114.355-11.377Q116.26-9.375 118.164-7.20215Q120.068-5.0293 121.46-3.05176Q122.852-1.07422 123.145 0.341797L123.145 1.07422ZM58.8867 7.37305L86.8652 7.37305Q86.5234 14.209 82.6172 18.2617Q78.7109 22.3145 72.9004 22.3145Q66.9922 22.3145 63.1104 18.2617Q59.2285 14.209 58.8867 7.37305Z"/>
  </g>
  <g id="Thin-L" transform="matrix(1 0 0 1 783.497 1556)">
   <path d="M15.7715 3.95508Q15.7715 5.56641 16.8213 6.5918Q17.8711 7.61719 19.5801 7.61719L54.6387 7.61719Q54.6875 11.8164 56.0791 15.3564Q57.4707 18.8965 59.8877 21.4844Q62.3047 24.0723 65.625 25.5127Q68.9453 26.9531 72.9004 26.9531Q76.9043 26.9531 80.2002 25.5371Q83.4961 24.1211 85.9375 21.5088Q88.3789 18.8965 89.7461 15.3564Q91.1133 11.8164 91.1621 7.61719L126.27 7.61719Q127.979 7.61719 129.004 6.5918Q130.029 5.56641 130.029 3.95508Q130.029 0.732422 128.394-2.14844Q126.758-5.0293 124.316-7.76367Q121.875-10.498 119.336-13.2812Q116.846-16.1133 115.503-20.2148Q114.16-24.3164 113.477-29.248Q112.793-34.1797 112.329-39.5752Q111.865-44.9707 111.133-50.3418Q110.107-58.4473 107.52-65.1611Q104.932-71.875 100.195-76.4893Q95.459-81.1035 88.0859-83.0078Q87.1582-89.5996 83.0078-93.5547Q78.8574-97.5098 72.9004-97.5098Q66.9922-97.5098 62.8418-93.5547Q58.6914-89.5996 57.7637-83.0078Q50.3906-81.1035 45.6543-76.4893Q40.918-71.875 38.3057-65.1611Q35.6934-58.4473 34.7168-50.3418Q33.9355-44.9707 33.4717-39.5752Q33.0078-34.1797 32.3486-29.248Q31.6895-24.3164 30.3467-20.2148Q29.0039-16.1133 26.4648-13.2812Q23.9746-10.498 21.5332-7.76367Q19.0918-5.0293 17.4316-2.14844Q15.7715 0.732422 15.7715 3.95508ZM20.2637 3.71094L20.2637 3.125Q20.3613 1.26953 21.8018-1.09863Q23.2422-3.4668 25.3662-5.93262Q27.4902-8.39844 29.4922-10.5469Q32.373-13.5742 33.8867-17.9688Q35.4004-22.3633 36.1084-27.5879Q36.8164-32.8125 37.3047-38.4521Q37.793-44.0918 38.623-49.6094Q39.7461-57.9102 42.1143-63.8916Q44.4824-69.873 48.3398-73.584Q52.1973-77.2949 57.8125-78.8574Q59.4727-79.2969 60.4492-80.0293Q61.4258-80.7617 61.6699-82.2754Q62.3047-87.0117 65.1855-90.332Q68.0664-93.6523 72.9004-93.6523Q77.7832-93.6523 80.6396-90.332Q83.4961-87.0117 84.1309-82.2754Q84.375-80.7617 85.3516-80.0293Q86.3281-79.2969 88.0371-78.8574Q93.6523-77.2949 97.5098-73.584Q101.367-69.873 103.711-63.8916Q106.055-57.9102 107.227-49.6094Q108.057-44.0918 108.521-38.4521Q108.984-32.8125 109.717-27.5879Q110.449-22.3633 111.938-17.9688Q113.428-13.5742 116.309-10.5469Q118.359-8.39844 120.459-5.93262Q122.559-3.4668 124.023-1.09863Q125.488 1.26953 125.537 3.125L125.537 3.71094ZM58.5449 7.61719L87.2559 7.61719Q86.9141 14.7461 82.9102 19.043Q78.9062 23.3398 72.9004 23.3398Q66.8945 23.3398 62.8906 19.043Q58.8867 14.7461 58.5449 7.61719Z"/>
  </g>
  <g id="Ultralight-L" transform="matrix(1 0 0 1 486.762 1556)">
   <path d="M16.3086 4.93164Q16.3086 6.20117 17.041 6.95801Q17.7734 7.71484 18.8477 7.71484L55.7617 7.71484Q55.8105 11.8652 57.1045 15.2588Q58.3984 18.6523 60.6689 21.1426Q62.9395 23.6328 66.0645 24.9756Q69.1895 26.3184 72.9492 26.3184Q76.6602 26.3184 79.7852 24.9756Q82.9102 23.6328 85.2051 21.1426Q87.5 18.6523 88.7695 15.2588Q90.0391 11.8652 90.0879 7.71484L127.051 7.71484Q128.125 7.71484 128.833 6.95801Q129.541 6.20117 129.541 4.93164Q129.541 1.70898 127.954-1.14746Q126.367-4.00391 123.975-6.71387Q121.582-9.42383 119.141-12.207Q116.406-15.332 114.99-19.7998Q113.574-24.2676 112.891-29.6875Q112.207-35.1074 111.694-41.0156Q111.182-46.9238 110.352-52.8809Q109.18-60.0586 106.519-66.1621Q103.857-72.2656 99.2188-76.5137Q94.5801-80.7617 87.4023-82.4219Q86.6211-89.1113 82.6172-92.9932Q78.6133-96.875 72.9492-96.875Q67.2363-96.875 63.2324-92.9932Q59.2285-89.1113 58.4473-82.4219Q51.3184-80.7617 46.6553-76.5137Q41.9922-72.2656 39.3311-66.1621Q36.6699-60.0586 35.498-52.8809Q34.6191-46.9238 34.1553-41.0156Q33.6914-35.1074 33.0078-29.6875Q32.3242-24.2676 30.9082-19.7998Q29.4922-15.332 26.709-12.207Q24.3164-9.42383 21.9238-6.71387Q19.5312-4.00391 17.9199-1.14746Q16.3086 1.70898 16.3086 4.93164ZM19.0918 5.12695L19.0918 4.49219Q19.0918 2.49023 20.5322-0.0732422Q21.9727-2.63672 24.1943-5.27344Q26.416-7.91016 28.5645-10.1562Q31.6895-13.3789 33.252-18.1885Q34.8145-22.998 35.4736-28.7109Q36.1328-34.4238 36.6455-40.4785Q37.1582-46.5332 38.0859-52.1973Q39.4043-59.3262 41.7236-64.8438Q44.043-70.3613 47.7783-74.0234Q51.5137-77.6855 57.1777-79.1992Q58.9844-79.6875 60.0342-80.4443Q61.084-81.2012 61.377-82.8125Q62.1094-87.5 65.0391-90.8691Q67.9688-94.2383 72.9492-94.2383Q77.9297-94.2383 80.8105-90.8691Q83.6914-87.5 84.5215-82.8125Q84.7656-81.2012 85.8154-80.4443Q86.8652-79.6875 88.7207-79.1992Q94.3359-77.6855 98.0957-74.0234Q101.855-70.3613 104.126-64.8438Q106.396-59.3262 107.764-52.1973Q108.74-46.5332 109.204-40.4785Q109.668-34.4238 110.376-28.7109Q111.084-22.998 112.622-18.1885Q114.16-13.3789 117.285-10.1562Q119.482-7.91016 121.655-5.27344Q123.828-2.63672 125.317-0.0732422Q126.807 2.49023 126.758 4.49219L126.758 5.12695ZM58.3496 7.71484L87.5 7.71484Q87.1582 15.0391 83.0566 19.4336Q78.9551 23.8281 72.9492 23.8281Q66.8457 23.8281 62.793 19.4336Q58.7402 15.0391 58.3496 7.71484Z"/>
  </g>
  <g id="Black-M" transform="matrix(1 0 0 1 2872.44 1126)">
   <path d="M7.66602-10.9375Q7.66602-5.9082 10.8887-2.80762Q14.1113 0.292969 19.4336 0.292969L37.207 0.292969Q37.4023 4.88281 40.2832 9.25293Q43.1641 13.623 48.4131 16.4551Q53.6621 19.2871 60.9375 19.2871Q68.2617 19.2871 73.5107 16.4551Q78.7598 13.623 81.6406 9.27734Q84.5215 4.93164 84.7168 0.292969L102.49 0.292969Q107.812 0.292969 111.035-2.80762Q114.258-5.9082 114.258-10.9375Q114.258-14.209 113.062-16.9189Q111.865-19.6289 109.79-21.8994Q107.715-24.1699 105.127-26.123Q102.881-27.7832 101.733-30.4199Q100.586-33.0566 99.9023-37.085Q99.2188-41.1133 98.3398-47.0215Q97.3633-54.5898 94.6777-60.9375Q91.9922-67.2852 87.6953-71.8018Q83.3984-76.3184 77.4902-78.418Q75.4395-83.6914 71.0449-86.7432Q66.6504-89.7949 60.9375-89.7949Q55.2734-89.7949 50.8789-86.7432Q46.4844-83.6914 44.4336-78.418Q38.5254-76.3184 34.2285-71.8018Q29.9316-67.2852 27.2461-60.9375Q24.5605-54.5898 23.584-47.0215Q22.7051-41.1133 22.0215-37.085Q21.3379-33.0566 20.1904-30.4199Q19.043-27.7832 16.7969-26.123Q14.209-24.1699 12.1338-21.8994Q10.0586-19.6289 8.8623-16.9189Q7.66602-14.209 7.66602-10.9375ZM29.248-15.7227L29.248-16.2109Q30.7129-16.8457 32.0068-17.5537Q33.3008-18.2617 34.3994-19.165Q35.498-20.0684 36.377-21.2402Q37.3535-22.6074 38.1104-25.0488Q38.8672-27.4902 39.4287-30.5664Q39.9902-33.6426 40.4053-36.9385Q40.8203-40.2344 41.1133-43.3105Q41.748-49.8047 43.4814-54.0039Q45.2148-58.2031 47.6807-60.498Q50.1465-62.793 52.9785-63.5254Q53.7598-63.7207 54.2725-64.1846Q54.7852-64.6484 54.9805-65.9668Q55.4199-69.2383 56.958-70.9717Q58.4961-72.7051 60.9375-72.7051Q63.4277-72.7051 64.9658-70.9717Q66.5039-69.2383 66.9434-65.9668Q67.1387-64.6484 67.6514-64.1846Q68.1641-63.7207 68.9453-63.5254Q71.7773-62.793 74.2432-60.498Q76.709-58.2031 78.4424-54.0039Q80.1758-49.8047 80.8105-43.3105Q81.1035-40.2344 81.543-36.9385Q81.9824-33.6426 82.5439-30.5664Q83.1055-27.4902 83.8623-25.0488Q84.6191-22.6074 85.5469-21.2402Q86.4258-20.0684 87.3779-19.165Q88.3301-18.2617 89.502-17.5537Q90.6738-16.8457 92.1387-16.2109L92.1387-15.7227ZM53.6621 0.292969L68.2617 0.292969Q68.0176 3.27148 65.9668 5.2002Q63.916 7.12891 60.9375 7.12891Q58.0078 7.12891 55.957 5.2002Q53.9062 3.27148 53.6621 0.292969Z"/>
  </g>
  <g id="Heavy-M" transform="matrix(1 0 0 1 2576.8 1126)">
   <path d="M8.30078-10.3516Q8.30078-5.85938 11.2305-3.10059Q14.1602-0.341797 19.043-0.341797L37.4512-0.341797Q37.6465 4.24805 40.4053 8.54492Q43.1641 12.8418 48.1201 15.5762Q53.0762 18.3105 59.8633 18.3105Q66.6992 18.3105 71.6553 15.5762Q76.6113 12.8418 79.3701 8.56934Q82.1289 4.29688 82.3242-0.341797L100.732-0.341797Q105.615-0.341797 108.545-3.10059Q111.475-5.85938 111.475-10.3516Q111.475-13.4277 110.229-16.04Q108.984-18.6523 106.909-20.8984Q104.834-23.1445 102.344-25.1465Q100.244-26.8066 99.1455-29.4678Q98.0469-32.1289 97.4365-35.9131Q96.8262-39.6973 96.0938-44.873Q95.3125-52.9297 92.8223-59.4971Q90.332-66.0645 86.1084-70.6787Q81.8848-75.293 75.8301-77.4414Q73.9746-82.6172 69.751-85.7178Q65.5273-88.8184 59.8633-88.8184Q54.248-88.8184 50.0244-85.7178Q45.8008-82.6172 43.9453-77.4414Q37.8906-75.293 33.667-70.6787Q29.4434-66.0645 26.9531-59.4971Q24.4629-52.9297 23.6816-44.873Q22.9492-39.6973 22.3389-35.9131Q21.7285-32.1289 20.6299-29.4678Q19.5312-26.8066 17.4316-25.1465Q14.9902-23.1445 12.8906-20.8984Q10.791-18.6523 9.5459-16.04Q8.30078-13.4277 8.30078-10.3516ZM27.002-14.3555L27.002-14.8438Q28.2227-15.4785 29.4678-16.3086Q30.7129-17.1387 31.8604-18.1396Q33.0078-19.1406 33.9844-20.3613Q35.0098-21.7773 35.8154-24.0967Q36.6211-26.416 37.2314-29.3457Q37.8418-32.2754 38.2324-35.498Q38.623-38.7207 38.916-41.8945Q39.4531-49.3652 41.2354-54.0527Q43.0176-58.7402 45.7031-61.2061Q48.3887-63.6719 51.5137-64.502Q52.3438-64.6973 52.8564-65.1855Q53.3691-65.6738 53.5156-66.8945Q53.9062-70.2637 55.5664-72.168Q57.2266-74.0723 59.8633-74.0723Q62.5977-74.0723 64.2334-72.168Q65.8691-70.2637 66.2598-66.8945Q66.4062-65.6738 66.9189-65.1855Q67.4316-64.6973 68.2129-64.502Q71.3867-63.6719 74.0479-61.2061Q76.709-58.7402 78.5156-54.0527Q80.3223-49.3652 80.8594-41.8945Q81.1035-38.7207 81.543-35.498Q81.9824-32.2754 82.5684-29.3457Q83.1543-26.416 83.96-24.0967Q84.7656-21.7773 85.791-20.3613Q86.7676-19.1406 87.8174-18.1396Q88.8672-17.1387 89.9902-16.3086Q91.1133-15.4785 92.334-14.8438L92.334-14.3555ZM51.8555-0.341797L67.9199-0.341797Q67.6758 3.07617 65.4297 5.24902Q63.1836 7.42188 59.8633 7.42188Q56.5918 7.42188 54.3457 5.24902Q52.0996 3.07617 51.8555-0.341797Z"/>
  </g>
  <g id="Bold-M" transform="matrix(1 0 0 1 2281.29 1126)">
   <path d="M9.0332-9.66797Q9.0332-5.81055 11.6211-3.4668Q14.209-1.12305 18.6035-1.12305L37.793-1.12305Q37.9883 3.56445 40.6006 7.76367Q43.2129 11.9629 47.8516 14.5996Q52.4902 17.2363 58.6914 17.2363Q64.9414 17.2363 69.5557 14.5996Q74.1699 11.9629 76.8066 7.78809Q79.4434 3.61328 79.6387-1.12305L98.8281-1.12305Q103.223-1.12305 105.811-3.4668Q108.398-5.81055 108.398-9.66797Q108.398-12.5488 107.08-15.0391Q105.762-17.5293 103.662-19.7754Q101.562-22.0215 99.2188-24.0723Q97.3145-25.7324 96.2891-28.3936Q95.2637-31.0547 94.7021-34.5947Q94.1406-38.1348 93.6035-42.4805Q93.0176-51.0742 90.7471-57.9102Q88.4766-64.7461 84.3506-69.4336Q80.2246-74.1211 74.0234-76.3672Q72.3633-81.3965 68.3105-84.5703Q64.2578-87.7441 58.6914-87.7441Q53.1738-87.7441 49.0967-84.5703Q45.0195-81.3965 43.4082-76.3672Q37.207-74.1211 33.0566-69.4336Q28.9062-64.7461 26.6357-57.9102Q24.3652-51.0742 23.8281-42.4805Q23.291-38.1348 22.7295-34.5947Q22.168-31.0547 21.1426-28.3936Q20.1172-25.7324 18.1641-24.0723Q15.8203-22.0215 13.7207-19.7754Q11.6211-17.5293 10.3271-15.0391Q9.0332-12.5488 9.0332-9.66797ZM24.5605-12.793L24.5605-13.3301Q25.4883-14.0137 26.6602-14.9414Q27.832-15.8691 29.0283-16.9922Q30.2246-18.1152 31.2988-19.4336Q32.4219-20.8496 33.3008-23.0225Q34.1797-25.1953 34.79-27.9541Q35.4004-30.7129 35.8154-33.8623Q36.2305-37.0117 36.4746-40.332Q36.8652-48.877 38.7451-54.1016Q40.625-59.3262 43.5303-62.0117Q46.4355-64.6973 49.9512-65.625Q50.7812-65.8203 51.2939-66.3086Q51.8066-66.7969 51.9043-67.9199Q52.1973-71.4844 53.9795-73.5596Q55.7617-75.6348 58.6914-75.6348Q61.6211-75.6348 63.4033-73.5596Q65.1855-71.4844 65.4785-67.9199Q65.5762-66.7969 66.0889-66.3086Q66.6016-65.8203 67.4316-65.625Q70.9473-64.6973 73.8525-62.0117Q76.7578-59.3262 78.6377-54.1016Q80.5176-48.877 80.957-40.332Q81.1523-37.0117 81.5918-33.8623Q82.0312-30.7129 82.6416-27.9541Q83.252-25.1953 84.1064-23.0225Q84.9609-20.8496 86.084-19.4336Q87.207-18.1152 88.3301-16.9922Q89.4531-15.8691 90.5273-14.9414Q91.6016-14.0137 92.5781-13.3301L92.5781-12.793ZM49.8047-1.12305L67.5781-1.12305Q67.334 2.88086 64.8682 5.29785Q62.4023 7.71484 58.6914 7.71484Q55.0293 7.71484 52.5391 5.29785Q50.0488 2.88086 49.8047-1.12305Z"/>
  </g>
  <g id="Semibold-M" transform="matrix(1 0 0 1 1985.41 1126)">
   <path d="M9.52148-9.22852Q9.52148-5.76172 11.8652-3.68652Q14.209-1.61133 18.2617-1.61133L37.9883-1.61133Q38.1836 3.07617 40.6982 7.20215Q43.2129 11.3281 47.6318 13.916Q52.0508 16.5039 57.8613 16.5039Q63.7207 16.5039 68.1152 13.9404Q72.5098 11.377 75.0244 7.22656Q77.5391 3.07617 77.7344-1.61133L97.4609-1.61133Q101.514-1.61133 103.882-3.68652Q106.25-5.76172 106.25-9.22852Q106.25-11.9141 104.883-14.3311Q103.516-16.748 101.416-18.9697Q99.3164-21.1914 97.0703-23.3398Q95.2637-25 94.2871-27.6611Q93.3105-30.3223 92.7734-33.667Q92.2363-37.0117 91.8457-40.8203Q91.4551-49.8047 89.3066-56.7871Q87.1582-63.7695 83.1055-68.5547Q79.0527-73.3398 72.7051-75.5859Q71.2402-80.5176 67.2852-83.7646Q63.3301-87.0117 57.8613-87.0117Q52.3926-87.0117 48.4375-83.7646Q44.4824-80.5176 43.0176-75.5859Q36.6699-73.3398 32.5928-68.5547Q28.5156-63.7695 26.416-56.7871Q24.3164-49.8047 23.877-40.8203Q23.4863-37.0117 22.9736-33.667Q22.4609-30.3223 21.46-27.6611Q20.459-25 18.6523-23.3398Q16.4062-21.1914 14.3066-18.9697Q12.207-16.748 10.8643-14.3311Q9.52148-11.9141 9.52148-9.22852ZM22.8027-11.7188L22.8027-12.3047Q23.584-12.9395 24.707-13.9404Q25.8301-14.9414 27.0508-16.1621Q28.2715-17.3828 29.3945-18.75Q30.6152-20.166 31.5186-22.2656Q32.4219-24.3652 33.0811-27.002Q33.7402-29.6387 34.1309-32.7148Q34.5215-35.791 34.7656-39.209Q35.1074-48.5352 37.0117-54.126Q38.916-59.7168 41.9922-62.5488Q45.0684-65.3809 48.8281-66.4062Q49.707-66.6016 50.1953-67.0898Q50.6836-67.5781 50.7812-68.6523Q51.0254-72.2656 52.9053-74.4629Q54.7852-76.6602 57.8613-76.6602Q60.9863-76.6602 62.8418-74.4629Q64.6973-72.2656 64.9414-68.6523Q64.9902-67.5781 65.5029-67.0898Q66.0156-66.6016 66.8945-66.4062Q70.6543-65.3809 73.7061-62.5488Q76.7578-59.7168 78.7109-54.126Q80.6641-48.5352 80.957-39.209Q81.1523-35.791 81.5918-32.7148Q82.0312-29.6387 82.6416-27.002Q83.252-24.3652 84.1797-22.2656Q85.1074-20.166 86.2793-18.75Q87.4512-17.3828 88.6475-16.1621Q89.8438-14.9414 90.8936-13.9404Q91.9434-12.9395 92.7246-12.3047L92.7246-11.7188ZM48.3887-1.61133L67.334-1.61133Q67.041 2.73438 64.4287 5.32227Q61.8164 7.91016 57.8613 7.91016Q53.9062 7.91016 51.2695 5.32227Q48.6328 2.73438 48.3887-1.61133Z"/>
  </g>
  <g id="Medium-M" transform="matrix(1 0 0 1 1689.33 1126)">
   <path d="M9.86328-8.83789Q9.86328-5.76172 12.0361-3.88184Q14.209-2.00195 18.0176-2.00195L38.1348-2.00195Q38.3301 2.73438 40.7959 6.78711Q43.2617 10.8398 47.4854 13.3789Q51.709 15.918 57.2266 15.918Q62.793 15.918 67.0166 13.4033Q71.2402 10.8887 73.7061 6.81152Q76.1719 2.73438 76.3672-2.00195L96.4355-2.00195Q100.244-2.00195 102.417-3.88184Q104.59-5.76172 104.59-8.83789Q104.59-11.4258 103.223-13.7939Q101.855-16.1621 99.7314-18.3838Q97.6074-20.6055 95.459-22.7539Q93.7012-24.4141 92.749-27.0996Q91.7969-29.7852 91.333-32.9834Q90.8691-36.1816 90.5273-39.5508Q90.2344-48.8281 88.208-55.957Q86.1816-63.0859 82.1777-67.8955Q78.1738-72.7051 71.7773-75Q70.4102-79.8828 66.5527-83.1543Q62.6953-86.4258 57.2266-86.4258Q51.8066-86.4258 47.9492-83.1543Q44.0918-79.8828 42.7246-75Q36.3281-72.7051 32.2998-67.8955Q28.2715-63.0859 26.2451-55.957Q24.2188-48.8281 23.9258-39.5508Q23.6328-36.1816 23.1445-32.9834Q22.6562-29.7852 21.7041-27.0996Q20.752-24.4141 19.043-22.7539Q16.8457-20.6055 14.7217-18.3838Q12.5977-16.1621 11.2305-13.7939Q9.86328-11.4258 9.86328-8.83789ZM21.5332-10.9375L21.5332-11.4746Q22.168-12.1582 23.2178-13.2324Q24.2676-14.3066 25.5371-15.5762Q26.8066-16.8457 28.0273-18.2129Q29.248-19.6777 30.2002-21.7041Q31.1523-23.7305 31.8115-26.2939Q32.4707-28.8574 32.8613-31.8848Q33.252-34.9121 33.4473-38.3789Q33.7402-48.291 35.6934-54.1748Q37.6465-60.0586 40.8447-62.9639Q44.043-65.8691 47.9492-66.9922Q48.877-67.1875 49.3652-67.6758Q49.8535-68.1641 49.9512-69.1895Q50.1465-72.9004 52.0752-75.1953Q54.0039-77.4902 57.2266-77.4902Q60.4492-77.4902 62.4023-75.1953Q64.3555-72.9004 64.5508-69.1895Q64.5996-68.1641 65.1123-67.6758Q65.625-67.1875 66.4551-66.9922Q70.4102-65.8691 73.6084-62.9639Q76.8066-60.0586 78.7598-54.1748Q80.7129-48.291 81.0059-38.3789Q81.2012-34.9121 81.6162-31.8848Q82.0312-28.8574 82.666-26.2939Q83.3008-23.7305 84.2285-21.7041Q85.1562-19.6777 86.4258-18.2129Q87.6465-16.8457 88.8916-15.5762Q90.1367-14.3066 91.1621-13.2324Q92.1875-12.1582 92.8223-11.4746L92.8223-10.9375ZM47.3145-2.00195L67.1387-2.00195Q66.8457 2.63672 64.1113 5.37109Q61.377 8.10547 57.2266 8.10547Q53.0762 8.10547 50.3174 5.37109Q47.5586 2.63672 47.3145-2.00195Z"/>
  </g>
  <g id="Regular-M" transform="matrix(1 0 0 1 1393.42 1126)">
   <path d="M10.3516-8.39844Q10.3516-5.71289 12.3047-4.10156Q14.2578-2.49023 17.7246-2.49023L38.3301-2.49023Q38.5254 2.24609 40.8936 6.25Q43.2617 10.2539 47.2656 12.7197Q51.2695 15.1855 56.3965 15.1855Q61.5723 15.1855 65.5762 12.7441Q69.5801 10.3027 71.9482 6.27441Q74.3164 2.24609 74.5117-2.49023L95.1172-2.49023Q98.584-2.49023 100.537-4.10156Q102.49-5.71289 102.49-8.39844Q102.49-10.8398 101.074-13.1348Q99.6582-15.4297 97.5342-17.627Q95.4102-19.8242 93.3105-22.0215Q91.6992-23.6816 90.7959-26.3672Q89.8926-29.0527 89.4531-32.0801Q89.0137-35.1074 88.8184-37.9395Q88.6719-47.5586 86.792-54.8584Q84.9121-62.1582 80.957-67.041Q77.002-71.9238 70.5078-74.2676Q69.2871-79.0527 65.5518-82.373Q61.8164-85.6934 56.3965-85.6934Q51.0254-85.6934 47.29-82.373Q43.5547-79.0527 42.334-74.2676Q35.8398-71.9238 31.8604-67.041Q27.8809-62.1582 26.0254-54.8584Q24.1699-47.5586 24.0234-37.9395Q23.8281-35.1074 23.3887-32.0801Q22.9492-29.0527 22.0459-26.3672Q21.1426-23.6816 19.5312-22.0215Q17.4316-19.8242 15.3076-17.627Q13.1836-15.4297 11.7676-13.1348Q10.3516-10.8398 10.3516-8.39844ZM19.8242-9.86328L19.8242-10.4492Q20.2637-11.1328 21.2891-12.2803Q22.3145-13.4277 23.6084-14.7949Q24.9023-16.1621 26.1719-17.5781Q27.4902-19.043 28.4668-20.9717Q29.4434-22.9004 30.127-25.3418Q30.8105-27.7832 31.2012-30.7617Q31.5918-33.7402 31.7871-37.3047Q31.9824-47.9492 33.9844-54.1992Q35.9863-60.4492 39.3311-63.501Q42.6758-66.5527 46.875-67.7246Q47.8027-67.9199 48.291-68.4326Q48.7793-68.9453 48.8281-69.873Q48.9746-73.6816 51.001-76.0986Q53.0273-78.5156 56.3965-78.5156Q59.8145-78.5156 61.8408-76.0986Q63.8672-73.6816 64.0137-69.873Q64.0137-68.9453 64.5264-68.4326Q65.0391-67.9199 65.918-67.7246Q70.1172-66.5527 73.4619-63.501Q76.8066-60.4492 78.833-54.1992Q80.8594-47.9492 81.0547-37.3047Q81.2012-33.7402 81.6162-30.7617Q82.0312-27.7832 82.6904-25.3418Q83.3496-22.9004 84.3262-20.9717Q85.3027-19.043 86.6211-17.5781Q87.9395-16.1621 89.2334-14.7949Q90.5273-13.4277 91.5283-12.2803Q92.5293-11.1328 92.9688-10.4492L92.9688-9.86328ZM45.9473-2.49023L66.8945-2.49023Q66.6016 2.49023 63.7207 5.39551Q60.8398 8.30078 56.3965 8.30078Q52.002 8.30078 49.0967 5.39551Q46.1914 2.49023 45.9473-2.49023Z"/>
  </g>
  <g id="Light-M" transform="matrix(1 0 0 1 1096.69 1126)">
   <path d="M11.084-7.08008Q11.084-4.93164 12.5977-3.6377Q14.1113-2.34375 16.748-2.34375L39.8438-2.34375Q39.9902 2.29492 42.1631 6.05469Q44.3359 9.81445 48.0225 12.085Q51.709 14.3555 56.4453 14.3555Q61.2305 14.3555 64.917 12.1094Q68.6035 9.86328 70.752 6.0791Q72.9004 2.29492 73.0469-2.34375L96.1426-2.34375Q98.7793-2.34375 100.317-3.6377Q101.855-4.93164 101.855-7.08008Q101.855-9.52148 100.488-11.792Q99.1211-14.0625 97.0703-16.2354Q95.0195-18.4082 93.0176-20.6055Q91.0156-22.7051 90.0635-26.1475Q89.1113-29.5898 88.6719-33.5449Q88.2324-37.5 87.793-41.3574Q87.4023-49.707 85.4736-56.2012Q83.5449-62.6953 79.6875-67.0898Q75.8301-71.4844 69.6289-73.5352Q68.6035-78.418 65.0635-81.6406Q61.5234-84.8633 56.4453-84.8633Q51.3672-84.8633 47.8271-81.6406Q44.2871-78.418 43.2617-73.5352Q37.0605-71.4844 33.1787-67.0898Q29.2969-62.6953 27.3926-56.2012Q25.4883-49.707 25.0977-41.3574Q24.707-37.5 24.2676-33.5449Q23.8281-29.5898 22.8516-26.1475Q21.875-22.7051 19.873-20.6055Q17.8711-18.4082 15.8203-16.2354Q13.7695-14.0625 12.4268-11.792Q11.084-9.52148 11.084-7.08008ZM18.2617-8.00781L18.2617-8.59375Q18.5547-9.52148 19.6289-10.9375Q20.7031-12.3535 22.1191-13.9404Q23.5352-15.5273 24.9023-17.041Q26.5625-18.7988 27.6123-21.2891Q28.6621-23.7793 29.2969-26.8311Q29.9316-29.8828 30.3223-33.3984Q30.7129-36.9141 31.0547-40.7227Q31.543-49.8047 33.4717-55.4443Q35.4004-61.084 38.623-64.0625Q41.8457-67.041 46.0938-68.2129Q47.168-68.457 47.7539-68.9941Q48.3398-69.5312 48.4375-70.5566Q48.7305-74.3164 50.8301-76.7822Q52.9297-79.248 56.4453-79.248Q60.0098-79.248 62.1094-76.7822Q64.209-74.3164 64.4531-70.5566Q64.5508-69.5312 65.1611-68.9941Q65.7715-68.457 66.7969-68.2129Q71.0449-67.041 74.2432-64.0625Q77.4414-61.084 79.3945-55.4443Q81.3477-49.8047 81.8359-40.7227Q82.1777-36.9141 82.5684-33.3984Q82.959-29.8828 83.5693-26.8311Q84.1797-23.7793 85.2295-21.2891Q86.2793-18.7988 87.9395-17.041Q89.3555-15.5273 90.7959-13.9404Q92.2363-12.3535 93.2617-10.9375Q94.2871-9.52148 94.5801-8.59375L94.5801-8.00781ZM45.7031-2.34375L67.1875-2.34375Q66.8945 2.88086 63.916 5.93262Q60.9375 8.98438 56.4453 8.98438Q51.9531 8.98438 48.9746 5.93262Q45.9961 2.88086 45.7031-2.34375Z"/>
  </g>
  <g id="Thin-M" transform="matrix(1 0 0 1 799.928 1126)">
   <path d="M12.0117-5.32227Q12.0117-3.85742 12.9639-2.97852Q13.916-2.09961 15.4785-2.09961L41.8457-2.09961Q41.9434 2.29492 43.8232 5.76172Q45.7031 9.22852 48.9746 11.2305Q52.2461 13.2324 56.4941 13.2324Q60.7422 13.2324 63.9893 11.2305Q67.2363 9.22852 69.1406 5.76172Q71.0449 2.29492 71.1426-2.09961L97.5098-2.09961Q99.0723-2.09961 100.024-2.97852Q100.977-3.85742 100.977-5.32227Q100.977-7.76367 99.6826-10.0098Q98.3887-12.2559 96.46-14.4043Q94.5312-16.5527 92.627-18.7012Q90.1367-21.4844 89.0869-25.8545Q88.0371-30.2246 87.5977-35.4248Q87.1582-40.625 86.4258-45.8496Q85.7422-52.5391 83.7402-57.9834Q81.7383-63.4277 78.0273-67.1875Q74.3164-70.9473 68.5059-72.5098Q67.7246-77.5879 64.4531-80.6641Q61.1816-83.7402 56.4941-83.7402Q51.8066-83.7402 48.5352-80.6641Q45.2637-77.5879 44.4824-72.5098Q38.6719-70.9473 34.9365-67.1875Q31.2012-63.4277 29.2236-57.9834Q27.2461-52.5391 26.5625-45.8496Q25.8301-40.625 25.3906-35.4248Q24.9512-30.2246 23.9014-25.8545Q22.8516-21.4844 20.3613-18.7012Q18.457-16.5527 16.5283-14.4043Q14.5996-12.2559 13.3057-10.0098Q12.0117-7.76367 12.0117-5.32227ZM16.2109-5.61523L16.2109-6.10352Q16.3086-7.42188 17.4072-9.2041Q18.5059-10.9863 20.0928-12.8174Q21.6797-14.6484 23.2422-16.2598Q25.3906-18.5059 26.5137-21.7285Q27.6367-24.9512 28.2227-28.833Q28.8086-32.7148 29.1748-36.8896Q29.541-41.0645 30.127-45.2637Q30.957-52.1973 32.8125-57.0557Q34.668-61.9141 37.6953-64.7949Q40.7227-67.6758 45.0684-68.8477Q46.2891-69.1895 47.0215-69.751Q47.7539-70.3125 47.9004-71.4844Q48.3887-75.1465 50.5615-77.71Q52.7344-80.2734 56.4941-80.2734Q60.2539-80.2734 62.4268-77.71Q64.5996-75.1465 65.0879-71.4844Q65.1855-70.3125 65.9424-69.751Q66.6992-69.1895 67.9199-68.8477Q72.2656-67.6758 75.293-64.7949Q78.3203-61.9141 80.1758-57.0557Q82.0312-52.1973 82.8613-45.2637Q83.3984-41.0645 83.7891-36.8896Q84.1797-32.7148 84.7412-28.833Q85.3027-24.9512 86.4502-21.7285Q87.5977-18.5059 89.6973-16.2598Q91.2598-14.6484 92.8711-12.8174Q94.4824-10.9863 95.5566-9.2041Q96.6309-7.42188 96.7773-6.10352L96.7773-5.61523ZM45.4102-2.09961L67.5781-2.09961Q67.2852 3.41797 64.209 6.66504Q61.1328 9.91211 56.4941 9.91211Q51.8555 9.91211 48.7793 6.66504Q45.7031 3.41797 45.4102-2.09961Z"/>
  </g>
  <g id="Ultralight-M" transform="matrix(1 0 0 1 503.193 1126)">
   <path d="M12.5-4.39453Q12.5-3.32031 13.1592-2.66113Q13.8184-2.00195 14.7949-2.00195L42.8711-2.00195Q42.9199 2.34375 44.6777 5.63965Q46.4355 8.93555 49.4873 10.8154Q52.5391 12.6953 56.543 12.6953Q60.498 12.6953 63.5498 10.8154Q66.6016 8.93555 68.3594 5.63965Q70.1172 2.34375 70.166-2.00195L98.1934-2.00195Q99.2188-2.00195 99.8779-2.66113Q100.537-3.32031 100.537-4.39453Q100.537-6.88477 99.292-9.10645Q98.0469-11.3281 96.167-13.4766Q94.2871-15.625 92.3828-17.7734Q89.6484-20.8008 88.5742-25.708Q87.5-30.6152 87.0605-36.4258Q86.6211-42.2363 85.7422-48.1445Q84.9121-53.9551 82.8613-58.8623Q80.8105-63.7695 77.1729-67.2119Q73.5352-70.6543 67.9199-72.0215Q67.2852-77.1484 64.1357-80.1758Q60.9863-83.2031 56.543-83.2031Q52.002-83.2031 48.877-80.1758Q45.752-77.1484 45.1172-72.0215Q39.4531-70.6543 35.8154-67.2119Q32.1777-63.7695 30.1514-58.8623Q28.125-53.9551 27.2949-48.1445Q26.416-42.2363 25.9766-36.4258Q25.5371-30.6152 24.4629-25.708Q23.3887-20.8008 20.6055-17.7734Q18.75-15.625 16.8701-13.4766Q14.9902-11.3281 13.7451-9.10645Q12.5-6.88477 12.5-4.39453ZM15.1367-4.3457L15.1367-4.88281Q15.1855-6.34766 16.3086-8.30078Q17.4316-10.2539 19.0918-12.2314Q20.752-14.209 22.4121-15.918Q24.7559-18.3594 25.9521-21.9482Q27.1484-25.5371 27.6855-29.834Q28.2227-34.1309 28.5889-38.6719Q28.9551-43.2129 29.6387-47.6074Q30.6641-53.4668 32.4707-57.8857Q34.2773-62.3047 37.207-65.1611Q40.1367-68.0176 44.5312-69.1895Q45.8496-69.5312 46.6553-70.1172Q47.4609-70.7031 47.6562-71.9727Q48.1934-75.5859 50.4395-78.1738Q52.6855-80.7617 56.543-80.7617Q60.3516-80.7617 62.5977-78.1738Q64.8438-75.5859 65.3809-71.9727Q65.5762-70.7031 66.3818-70.1172Q67.1875-69.5312 68.5059-69.1895Q72.9004-68.0176 75.8301-65.1611Q78.7598-62.3047 80.5664-57.8857Q82.373-53.4668 83.3496-47.6074Q84.082-43.2129 84.4482-38.6719Q84.8145-34.1309 85.3516-29.834Q85.8887-25.5371 87.0605-21.9482Q88.2324-18.3594 90.625-15.918Q92.2363-14.209 93.9209-12.2314Q95.6055-10.2539 96.7285-8.30078Q97.8516-6.34766 97.8516-4.88281L97.8516-4.3457ZM45.2637-2.00195L67.7734-2.00195Q67.4805 3.66211 64.3311 7.03125Q61.1816 10.4004 56.543 10.4004Q51.8066 10.4004 48.6816 7.03125Q45.5566 3.66211 45.2637-2.00195Z"/>
  </g>
  <g id="Black-S" transform="matrix(1 0 0 1 2885.3 696)">
   <path d="M5.85938-16.3086Q5.85938-12.207 8.44727-9.69238Q11.0352-7.17773 15.2832-7.17773L29.1504-7.17773Q29.2969-3.61328 31.5918-0.170898Q33.8867 3.27148 38.0859 5.49316Q42.2852 7.71484 48.0957 7.71484Q53.9551 7.71484 58.1299 5.49316Q62.3047 3.27148 64.5996-0.170898Q66.8945-3.61328 67.041-7.17773L80.9082-7.17773Q85.1562-7.17773 87.7441-9.69238Q90.332-12.207 90.332-16.3086Q90.332-20.2637 88.3301-23.1689Q86.3281-26.0742 83.2031-28.3203Q81.3965-29.6387 80.4688-31.7383Q79.541-33.8379 78.9795-37.1338Q78.418-40.4297 77.6855-45.3125Q76.416-53.9062 72.2168-60.4248Q68.0176-66.9434 61.1816-69.3359Q59.5215-73.5352 56.0547-75.8789Q52.5879-78.2227 48.0957-78.2227Q43.6523-78.2227 40.1855-75.8789Q36.7188-73.5352 35.0098-69.3359Q28.2227-66.9434 23.999-60.4248Q19.7754-53.9062 18.5059-45.3125Q17.7734-40.4297 17.2119-37.1338Q16.6504-33.8379 15.7227-31.7383Q14.7949-29.6387 12.9883-28.3203Q9.86328-26.0742 7.86133-23.1689Q5.85938-20.2637 5.85938-16.3086ZM23.4863-20.2637L23.4863-20.6543Q25.3418-21.3867 26.7578-22.2656Q28.1738-23.1445 29.1504-24.5117Q30.2246-25.9277 30.9082-28.9062Q31.5918-31.8848 32.0557-35.4736Q32.5195-39.0625 32.8613-42.1875Q33.3984-46.875 34.7168-49.9756Q36.0352-53.0762 37.915-54.834Q39.7949-56.5918 41.8945-57.1289Q42.5293-57.2754 42.9199-57.6416Q43.3105-58.0078 43.5059-59.082Q43.8965-61.6211 45.0684-62.915Q46.2402-64.209 48.0957-64.209Q49.9512-64.209 51.1475-62.915Q52.3438-61.6211 52.6855-59.082Q52.8809-58.0078 53.2715-57.6416Q53.6621-57.2754 54.2969-57.1289Q56.4453-56.5918 58.3008-54.834Q60.1562-53.0762 61.4746-49.9756Q62.793-46.875 63.3301-42.1875Q63.7207-39.0625 64.1846-35.4736Q64.6484-31.8848 65.3564-28.9062Q66.0645-25.9277 67.041-24.5117Q68.0176-23.1445 69.2139-22.2656Q70.4102-21.3867 72.2168-20.6543L72.2168-20.2637ZM42.5781-7.17773L53.6133-7.17773Q53.418-4.98047 51.8799-3.54004Q50.3418-2.09961 48.0957-2.09961Q45.8496-2.09961 44.3115-3.54004Q42.7734-4.98047 42.5781-7.17773Z"/>
  </g>
  <g id="Heavy-S" transform="matrix(1 0 0 1 2589.52 696)">
   <path d="M6.29883-15.9668Q6.29883-12.2559 8.69141-10.0098Q11.084-7.76367 15.0879-7.76367L29.1992-7.76367Q29.3457-4.15039 31.543-0.756836Q33.7402 2.63672 37.7441 4.80957Q41.748 6.98242 47.168 6.98242Q52.6367 6.98242 56.6162 4.80957Q60.5957 2.63672 62.793-0.756836Q64.9902-4.15039 65.1855-7.76367L79.2969-7.76367Q83.252-7.76367 85.6445-10.0098Q88.0371-12.2559 88.0371-15.9668Q88.0371-19.6289 85.9375-22.4854Q83.8379-25.3418 80.8594-27.6855Q79.1992-28.9551 78.3447-30.957Q77.4902-32.959 76.9775-35.9375Q76.4648-38.916 75.8789-43.0664Q74.9023-52.4902 70.9229-59.2773Q66.9434-66.0645 59.8633-68.6035Q58.3496-72.6562 55.0049-75.0732Q51.6602-77.4902 47.168-77.4902Q42.7246-77.4902 39.3799-75.0732Q36.0352-72.6562 34.4727-68.6035Q27.4414-66.0645 23.4375-59.2773Q19.4336-52.4902 18.457-43.0664Q17.8711-38.916 17.3584-35.9375Q16.8457-32.959 15.9912-30.957Q15.1367-28.9551 13.4766-27.6855Q10.498-25.3418 8.39844-22.4854Q6.29883-19.6289 6.29883-15.9668ZM21.7773-19.2871L21.7773-19.7266Q23.3398-20.4102 24.7559-21.4111Q26.1719-22.4121 27.2461-23.8281Q28.3691-25.2441 29.1016-27.9297Q29.834-30.6152 30.3223-33.96Q30.8105-37.3047 31.0547-40.5273Q31.4941-46.2891 32.8613-49.8779Q34.2285-53.4668 36.3037-55.3711Q38.3789-57.2754 40.7715-57.9102Q41.4062-58.0566 41.7725-58.4229Q42.1387-58.7891 42.2852-59.7656Q42.627-62.4512 43.8965-63.8672Q45.166-65.2832 47.168-65.2832Q49.2188-65.2832 50.4883-63.8672Q51.7578-62.4512 52.0508-59.7656Q52.1973-58.7891 52.5635-58.4229Q52.9297-58.0566 53.5645-57.9102Q56.0059-57.2754 58.0566-55.3711Q60.1074-53.4668 61.4746-49.8779Q62.8418-46.2891 63.2812-40.5273Q63.5742-37.3047 64.0625-33.96Q64.5508-30.6152 65.3076-27.9297Q66.0645-25.2441 67.0898-23.8281Q68.1641-22.4121 69.4092-21.4111Q70.6543-20.4102 72.168-19.7266L72.168-19.2871ZM41.0645-7.76367L53.3203-7.76367Q53.0762-5.17578 51.3916-3.56445Q49.707-1.95312 47.168-1.95312Q44.6289-1.95312 42.9443-3.56445Q41.2598-5.17578 41.0645-7.76367Z"/>
  </g>
  <g id="Bold-S" transform="matrix(1 0 0 1 2293.84 696)">
   <path d="M6.83594-15.5762Q6.83594-12.3535 8.98438-10.376Q11.1328-8.39844 14.8438-8.39844L29.248-8.39844Q29.3945-4.78516 31.5186-1.41602Q33.6426 1.95312 37.3779 4.07715Q41.1133 6.20117 46.1426 6.20117Q51.2207 6.20117 54.9561 4.07715Q58.6914 1.95312 60.791-1.3916Q62.8906-4.73633 63.0859-8.39844L77.4902-8.39844Q81.1523-8.39844 83.3252-10.376Q85.498-12.3535 85.498-15.5762Q85.498-18.9941 83.2764-21.7773Q81.0547-24.5605 78.2227-26.9531Q76.8066-28.1738 76.001-30.0781Q75.1953-31.9824 74.7314-34.5947Q74.2676-37.207 73.877-40.5273Q73.2422-50.9277 69.5068-58.0078Q65.7715-65.0879 58.4473-67.7734Q57.0801-71.7285 53.833-74.2188Q50.5859-76.709 46.1426-76.709Q41.748-76.709 38.501-74.2188Q35.2539-71.7285 33.8867-67.7734Q26.5625-65.0879 22.8027-58.0078Q19.043-50.9277 18.4082-40.5273Q18.0176-37.207 17.5781-34.5947Q17.1387-31.9824 16.333-30.0781Q15.5273-28.1738 14.0625-26.9531Q11.2305-24.5605 9.0332-21.7773Q6.83594-18.9941 6.83594-15.5762ZM19.9219-18.2617L19.9219-18.7012Q21.1426-19.3848 22.5586-20.5078Q23.9746-21.6309 25.1465-23.0957Q26.2695-24.4629 27.0752-26.8555Q27.8809-29.248 28.3691-32.2998Q28.8574-35.3516 29.0527-38.7207Q29.3457-45.6055 30.8105-49.7559Q32.2754-53.9062 34.5703-56.0059Q36.8652-58.1055 39.502-58.7891Q40.1367-58.9355 40.5029-59.3018Q40.8691-59.668 40.9668-60.5469Q41.2109-63.3301 42.5781-64.917Q43.9453-66.5039 46.1426-66.5039Q48.3887-66.5039 49.7559-64.917Q51.123-63.3301 51.3184-60.5469Q51.416-59.668 51.7822-59.3018Q52.1484-58.9355 52.7832-58.7891Q55.4688-58.1055 57.7393-56.0059Q60.0098-53.9062 61.4746-49.7559Q62.9395-45.6055 63.2324-38.7207Q63.4766-35.3516 63.9648-32.2998Q64.4531-29.248 65.2588-26.8555Q66.0645-24.4629 67.1387-23.0957Q68.3594-21.6309 69.6533-20.5078Q70.9473-19.3848 72.168-18.7012L72.168-18.2617ZM39.3555-8.39844L52.9785-8.39844Q52.7344-5.41992 50.8545-3.61328Q48.9746-1.80664 46.1426-1.80664Q43.3105-1.80664 41.4307-3.61328Q39.5508-5.41992 39.3555-8.39844Z"/>
  </g>
  <g id="Semibold-S" transform="matrix(1 0 0 1 1997.83 696)">
   <path d="M7.17773-15.332Q7.17773-12.4023 9.17969-10.6201Q11.1816-8.83789 14.6484-8.83789L29.248-8.83789Q29.3945-5.17578 31.4453-1.85547Q33.4961 1.46484 37.085 3.54004Q40.6738 5.61523 45.4102 5.61523Q50.1953 5.61523 53.7598 3.54004Q57.3242 1.46484 59.375-1.83105Q61.4258-5.12695 61.6211-8.83789L76.2207-8.83789Q79.6387-8.83789 81.665-10.6201Q83.6914-12.4023 83.6914-15.332Q83.6914-18.5059 81.4209-21.2402Q79.1504-23.9746 76.416-26.416Q75.0977-27.5879 74.3408-29.4434Q73.584-31.2988 73.1689-33.667Q72.7539-36.0352 72.5098-38.7695Q72.0703-49.8047 68.5059-57.0801Q64.9414-64.3555 57.4219-67.1875Q56.1523-71.0449 53.0029-73.584Q49.8535-76.123 45.4102-76.123Q41.0156-76.123 37.8662-73.584Q34.7168-71.0449 33.4473-67.1875Q25.9277-64.3555 22.3633-57.0801Q18.7988-49.8047 18.3594-38.7695Q18.1152-36.0352 17.7002-33.667Q17.2852-31.2988 16.5283-29.4434Q15.7715-27.5879 14.4531-26.416Q11.7188-23.9746 9.44824-21.2402Q7.17773-18.5059 7.17773-15.332ZM18.6035-17.4805L18.6035-17.9688Q19.6289-18.6035 21.0205-19.8242Q22.4121-21.0449 23.6816-22.5586Q24.8047-23.9258 25.6592-26.0986Q26.5137-28.2715 27.0264-31.1279Q27.5391-33.9844 27.6855-37.4023Q27.832-45.166 29.3457-49.6826Q30.8594-54.1992 33.3008-56.4209Q35.7422-58.6426 38.623-59.375Q39.2578-59.5215 39.624-59.8877Q39.9902-60.2539 40.0391-61.084Q40.1855-63.9648 41.626-65.625Q43.0664-67.2852 45.4102-67.2852Q47.8027-67.2852 49.2432-65.625Q50.6836-63.9648 50.7812-61.084Q50.8301-60.2539 51.1963-59.8877Q51.5625-59.5215 52.1973-59.375Q55.127-58.6426 57.5439-56.4209Q59.9609-54.1992 61.4746-49.6826Q62.9883-45.166 63.1836-37.4023Q63.3301-33.9844 63.8672-31.1279Q64.4043-28.2715 65.2344-26.0986Q66.0645-23.9258 67.1875-22.5586Q68.457-21.0449 69.7754-19.8242Q71.0938-18.6035 72.1191-17.9688L72.1191-17.4805ZM38.1348-8.83789L52.7344-8.83789Q52.4902-5.56641 50.4883-3.61328Q48.4863-1.66016 45.4102-1.66016Q42.3828-1.66016 40.3809-3.61328Q38.3789-5.56641 38.1348-8.83789Z"/>
  </g>
  <g id="Medium-S" transform="matrix(1 0 0 1 1701.66 696)">
   <path d="M7.42188-15.0879Q7.42188-12.4512 9.30176-10.8154Q11.1816-9.17969 14.502-9.17969L29.248-9.17969Q29.3945-5.51758 31.4209-2.19727Q33.4473 1.12305 36.9141 3.14941Q40.3809 5.17578 44.873 5.17578Q49.4141 5.17578 52.8809 3.14941Q56.3477 1.12305 58.3496-2.17285Q60.3516-5.46875 60.498-9.17969L75.2441-9.17969Q78.5645-9.17969 80.4688-10.8154Q82.373-12.4512 82.373-15.0879Q82.373-18.1641 80.0293-20.8496Q77.6855-23.5352 75.0488-26.0254Q73.8281-27.1973 73.0957-29.0039Q72.3633-30.8105 71.9971-32.9834Q71.6309-35.1562 71.4355-37.4023Q71.1914-48.9746 67.7734-56.4209Q64.3555-63.8672 56.6406-66.7969Q55.4688-70.5078 52.3926-73.0957Q49.3164-75.6836 44.873-75.6836Q40.4785-75.6836 37.4023-73.0957Q34.3262-70.5078 33.1055-66.7969Q25.4395-63.8672 21.9971-56.4209Q18.5547-48.9746 18.3105-37.4023Q18.1641-35.1562 17.7979-32.9834Q17.4316-30.8105 16.6992-29.0039Q15.9668-27.1973 14.7461-26.0254Q12.1094-23.5352 9.76562-20.8496Q7.42188-18.1641 7.42188-15.0879ZM17.5781-16.9434L17.5781-17.4316Q18.457-18.0664 19.8486-19.3359Q21.2402-20.6055 22.6074-22.168Q23.6816-23.5352 24.585-25.5371Q25.4883-27.5391 26.001-30.249Q26.5137-32.959 26.6113-36.4746Q26.709-44.7754 28.2715-49.585Q29.834-54.3945 32.3975-56.7139Q34.9609-59.0332 37.9883-59.8633Q38.623-60.0098 38.9648-60.376Q39.3066-60.7422 39.3555-61.4746Q39.4531-64.4043 40.9424-66.1621Q42.4316-67.9199 44.873-67.9199Q47.3633-67.9199 48.8525-66.1621Q50.3418-64.4043 50.3906-61.4746Q50.4395-60.7422 50.7812-60.376Q51.123-60.0098 51.7578-59.8633Q54.834-59.0332 57.373-56.7139Q59.9121-54.3945 61.4746-49.585Q63.0371-44.7754 63.1836-36.4746Q63.2812-32.959 63.7939-30.249Q64.3066-27.5391 65.1855-25.5371Q66.0645-23.5352 67.1875-22.168Q68.5547-20.6055 69.8975-19.3359Q71.2402-18.0664 72.1191-17.4316L72.1191-16.9434ZM37.2559-9.17969L52.5391-9.17969Q52.2949-5.71289 50.1953-3.6377Q48.0957-1.5625 44.873-1.5625Q41.6992-1.5625 39.5996-3.6377Q37.5-5.71289 37.2559-9.17969Z"/>
  </g>
  <g id="Regular-S" transform="matrix(1 0 0 1 1405.65 696)">
   <path d="M7.76367-14.8438Q7.76367-12.5 9.49707-11.0596Q11.2305-9.61914 14.3555-9.61914L29.2969-9.61914Q29.4434-5.9082 31.3965-2.63672Q33.3496 0.634766 36.6455 2.63672Q39.9414 4.63867 44.1895 4.63867Q48.4375 4.63867 51.7334 2.63672Q55.0293 0.634766 56.958-2.6123Q58.8867-5.85938 59.082-9.61914L74.0234-9.61914Q77.0996-9.61914 78.8574-11.0596Q80.6152-12.5 80.6152-14.8438Q80.6152-17.6758 78.1982-20.3369Q75.7812-22.998 73.2422-25.5371Q72.168-26.6602 71.4844-28.3936Q70.8008-30.127 70.459-32.0557Q70.1172-33.9844 70.0684-35.6934Q70.0195-47.9004 66.7725-55.542Q63.5254-63.1836 55.6641-66.2109Q54.5898-69.873 51.5869-72.5098Q48.584-75.1465 44.1895-75.1465Q39.7949-75.1465 36.792-72.5098Q33.7891-69.873 32.7148-66.2109Q24.8535-63.1836 21.582-55.542Q18.3105-47.9004 18.2617-35.6934Q18.2617-33.9844 17.9199-32.0557Q17.5781-30.127 16.8945-28.3936Q16.2109-26.6602 15.1367-25.5371Q12.5977-22.998 10.1807-20.3369Q7.76367-17.6758 7.76367-14.8438ZM16.3086-16.2109L16.3086-16.6992Q16.9434-17.334 18.335-18.7012Q19.7266-20.0684 21.1426-21.6797Q22.2656-22.998 23.1934-24.7803Q24.1211-26.5625 24.6582-29.1016Q25.1953-31.6406 25.2441-35.2051Q25.2441-44.3359 26.8555-49.5117Q28.4668-54.6875 31.1768-57.1289Q33.8867-59.5703 37.1094-60.4492Q37.7441-60.5957 38.0859-60.9619Q38.4277-61.3281 38.4277-62.0117Q38.4766-65.0391 40.0391-66.8945Q41.6016-68.75 44.1895-68.75Q46.7773-68.75 48.3398-66.8945Q49.9023-65.0391 49.9023-62.0117Q49.9023-61.3281 50.2441-60.9619Q50.5859-60.5957 51.2207-60.4492Q54.4922-59.5703 57.1777-57.1289Q59.8633-54.6875 61.4746-49.5117Q63.0859-44.3359 63.1348-35.2051Q63.1836-31.6406 63.7207-29.1016Q64.2578-26.5625 65.1611-24.7803Q66.0645-22.998 67.2363-21.6797Q68.6523-20.0684 70.0439-18.7012Q71.4355-17.334 72.0703-16.6992L72.0703-16.2109ZM36.084-9.61914L52.2949-9.61914Q52.0508-5.85938 49.8291-3.66211Q47.6074-1.46484 44.1895-1.46484Q40.7715-1.46484 38.5498-3.66211Q36.3281-5.85938 36.084-9.61914Z"/>
  </g>
  <g id="Light-S" transform="matrix(1 0 0 1 1108.92 696)">
   <path d="M8.39844-13.6719Q8.39844-11.7676 9.76562-10.6201Q11.1328-9.47266 13.5254-9.47266L30.6641-9.47266Q30.7617-5.85938 32.5439-2.80762Q34.3262 0.244141 37.3291 2.0752Q40.332 3.90625 44.2383 3.90625Q48.0957 3.90625 51.123 2.0752Q54.1504 0.244141 55.9082-2.80762Q57.666-5.85938 57.8125-9.47266L74.9512-9.47266Q77.2949-9.47266 78.6621-10.6201Q80.0293-11.7676 80.0293-13.6719Q80.0293-16.5039 77.7344-19.1162Q75.4395-21.7285 72.998-24.2676Q71.582-25.8301 70.8496-28.1982Q70.1172-30.5664 69.7754-33.3252Q69.4336-36.084 69.1895-38.7207Q68.8477-49.2676 65.6006-56.1035Q62.3535-62.9395 54.9316-65.5273Q54.0039-69.3359 51.1719-71.875Q48.3398-74.4141 44.2383-74.4141Q40.1367-74.4141 37.2803-71.875Q34.4238-69.3359 33.5449-65.5273Q26.0742-62.9395 22.8271-56.1035Q19.5801-49.2676 19.2383-38.7207Q19.043-36.084 18.6768-33.3252Q18.3105-30.5664 17.6025-28.1982Q16.8945-25.8301 15.4785-24.2676Q13.0371-21.7285 10.7178-19.1162Q8.39844-16.5039 8.39844-13.6719ZM14.9414-14.5996L14.9414-15.0879Q15.3809-16.0645 16.9189-17.7734Q18.457-19.4824 20.0195-21.1914Q21.582-22.9004 22.4854-25.3906Q23.3887-27.8809 23.877-31.1279Q24.3652-34.375 24.6094-38.2324Q24.8535-45.9473 26.416-50.5859Q27.9785-55.2246 30.5664-57.6172Q33.1543-60.0098 36.4258-60.8887Q37.207-61.084 37.6221-61.4746Q38.0371-61.8652 38.0859-62.6465Q38.2812-65.5762 39.8926-67.5049Q41.5039-69.4336 44.2383-69.4336Q46.9238-69.4336 48.5596-67.5049Q50.1953-65.5762 50.3418-62.6465Q50.3906-61.8652 50.8057-61.4746Q51.2207-61.084 52.002-60.8887Q55.3223-60.0098 57.8857-57.6172Q60.4492-55.2246 61.9873-50.5859Q63.5254-45.9473 63.8184-38.2324Q64.0625-34.375 64.5508-31.1279Q65.0391-27.8809 65.9424-25.3906Q66.8457-22.9004 68.4082-21.1914Q69.9707-19.4824 71.5088-17.7734Q73.0469-16.0645 73.4863-15.0879L73.4863-14.5996ZM35.8887-9.47266L52.5391-9.47266Q52.2949-5.51758 50-3.17383Q47.7051-0.830078 44.2383-0.830078Q40.7227-0.830078 38.4277-3.17383Q36.1328-5.51758 35.8887-9.47266Z"/>
  </g>
  <g id="Thin-S" transform="matrix(1 0 0 1 812.16 696)">
   <path d="M9.22852-12.1094Q9.22852-10.8398 10.083-10.083Q10.9375-9.32617 12.4023-9.32617L32.4219-9.32617Q32.5195-5.85938 34.0332-3.07617Q35.5469-0.292969 38.208 1.31836Q40.8691 2.92969 44.2383 2.92969Q47.7051 2.92969 50.3418 1.31836Q52.9785-0.292969 54.4922-3.05176Q56.0059-5.81055 56.1035-9.32617L76.123-9.32617Q77.5879-9.32617 78.4424-10.083Q79.2969-10.8398 79.2969-12.1094Q79.2969-14.9902 77.124-17.5293Q74.9512-20.0684 72.6562-22.6074Q70.8008-24.707 69.9951-27.9541Q69.1895-31.2012 68.8477-35.0342Q68.5059-38.8672 68.0176-42.6758Q67.2363-51.0254 64.0381-56.8359Q60.8398-62.6465 53.9062-64.6484Q53.2715-68.5547 50.6348-70.9961Q47.998-73.4375 44.2383-73.4375Q40.5273-73.4375 37.915-70.9961Q35.3027-68.5547 34.6191-64.6484Q27.6855-62.6465 24.4629-56.8359Q21.2402-51.0254 20.5078-42.6758Q20.0684-38.8672 19.7021-35.0342Q19.3359-31.2012 18.5547-27.9541Q17.7734-24.707 15.918-22.6074Q13.5742-20.0684 11.4014-17.5293Q9.22852-14.9902 9.22852-12.1094ZM13.0859-12.5L13.0859-12.8906Q13.2812-14.3555 15.0391-16.5039Q16.7969-18.6523 18.5547-20.5078Q20.6543-22.7539 21.5576-26.1963Q22.4609-29.6387 22.8516-33.8135Q23.2422-37.9883 23.7793-42.2363Q24.3652-48.0957 25.8301-52.0264Q27.2949-55.957 29.7119-58.252Q32.1289-60.5469 35.498-61.4746Q36.4258-61.7188 36.9873-62.1338Q37.5488-62.5488 37.6465-63.4766Q37.9883-66.3574 39.6729-68.335Q41.3574-70.3125 44.2383-70.3125Q47.168-70.3125 48.8525-68.335Q50.5371-66.3574 50.8789-63.4766Q50.9766-62.5488 51.5137-62.1338Q52.0508-61.7188 53.0273-61.4746Q56.3965-60.5469 58.7891-58.252Q61.1816-55.957 62.6709-52.0264Q64.1602-48.0957 64.6973-42.2363Q65.2344-37.9883 65.6494-33.8135Q66.0645-29.6387 66.9678-26.1963Q67.8711-22.7539 69.9707-20.5078Q71.7285-18.6523 73.4863-16.5039Q75.2441-14.3555 75.3906-12.8906L75.3906-12.5ZM35.6445-9.32617L52.8809-9.32617Q52.6367-5.07812 50.2441-2.53906Q47.8516 0 44.2383 0Q40.6738 0 38.2812-2.53906Q35.8887-5.07812 35.6445-9.32617Z"/>
  </g>
  <g id="Ultralight-S" transform="matrix(1 0 0 1 515.424 696)">
   <path d="M9.66797-11.2793Q9.66797-10.3516 10.2783-9.79004Q10.8887-9.22852 11.8164-9.22852L33.3496-9.22852Q33.3984-5.81055 34.8145-3.17383Q36.2305-0.537109 38.6719 0.952148Q41.1133 2.44141 44.2871 2.44141Q47.4609 2.44141 49.9023 0.952148Q52.3438-0.537109 53.7598-3.17383Q55.1758-5.81055 55.2246-9.22852L76.7578-9.22852Q77.7344-9.22852 78.3203-9.79004Q78.9062-10.3516 78.9062-11.2793Q78.9062-14.209 76.8066-16.7236Q74.707-19.2383 72.4609-21.7773Q70.4102-24.1211 69.5557-27.8076Q68.7012-31.4941 68.3594-35.8887Q68.0176-40.2832 67.3828-44.7266Q66.4551-51.9531 63.2568-57.2266Q60.0586-62.5 53.418-64.1602Q52.8809-68.2129 50.3662-70.5811Q47.8516-72.9492 44.2871-72.9492Q40.7715-72.9492 38.2568-70.5811Q35.7422-68.2129 35.1562-64.1602Q28.4668-62.5 25.293-57.2266Q22.1191-51.9531 21.1914-44.7266Q20.5566-40.2832 20.1904-35.8887Q19.8242-31.4941 19.0186-27.8076Q18.2129-24.1211 16.1133-21.7773Q13.8672-19.2383 11.7676-16.7236Q9.66797-14.209 9.66797-11.2793ZM12.1582-11.377L12.1582-11.8164Q12.207-13.4766 14.0625-15.8691Q15.918-18.2617 17.7734-20.166Q20.166-22.6562 21.0693-26.6113Q21.9727-30.5664 22.3389-35.1807Q22.7051-39.7949 23.3887-44.2871Q24.1211-49.2188 25.5371-52.7588Q26.9531-56.2988 29.2969-58.5693Q31.6406-60.8398 35.0098-61.7676Q36.084-62.0605 36.6943-62.5Q37.3047-62.9395 37.4512-63.8672Q37.8418-66.6992 39.5508-68.75Q41.2598-70.8008 44.2871-70.8008Q47.2656-70.8008 48.999-68.75Q50.7324-66.6992 51.1719-63.8672Q51.3184-62.9395 51.9043-62.5Q52.4902-62.0605 53.5156-61.7676Q56.9336-60.8398 59.2529-58.5693Q61.5723-56.2988 63.0127-52.7588Q64.4531-49.2188 65.1855-44.2871Q65.8691-39.7949 66.2109-35.1807Q66.5527-30.5664 67.4561-26.6113Q68.3594-22.6562 70.8008-20.166Q72.6562-18.2617 74.4873-15.8691Q76.3184-13.4766 76.3672-11.8164L76.3672-11.377ZM35.5469-9.22852L53.0273-9.22852Q52.832-4.88281 50.3906-2.24609Q47.9492 0.390625 44.2871 0.390625Q40.625 0.390625 38.1836-2.24609Q35.7422-4.88281 35.5469-9.22852Z"/>
  </g>
 </g>
</svg>
