<?xml version="1.0" encoding="UTF-8"?>
<!--Generator: Apple Native CoreSVG 149-->
<!DOCTYPE svg
PUBLIC "-//W3C//DTD SVG 1.1//EN"
       "http://www.w3.org/Graphics/SVG/1.1/DTD/svg11.dtd">
<svg version="1.1" xmlns="http://www.w3.org/2000/svg" xmlns:xlink="http://www.w3.org/1999/xlink" width="3300" height="2200">
 <!--glyph: "uni10074B.medium", point size: 100.0, font version: "17.0d9e1", template writer version: "59"-->
 <g id="Notes">
  <rect height="2200" id="artboard" style="fill:white;opacity:1" width="3300" x="0" y="0"/>
  <line style="fill:none;stroke:black;opacity:1;stroke-width:0.5;" x1="263" x2="3036" y1="292" y2="292"/>
  <text style="stroke:none;fill:black;font-family:sans-serif;font-size:13;font-weight:bold;" transform="matrix(1 0 0 1 263 322)">Weight/Scale Variations</text>
  <text style="stroke:none;fill:black;font-family:sans-serif;font-size:13;text-anchor:middle;" transform="matrix(1 0 0 1 559.711 322)">Ultralight</text>
  <text style="stroke:none;fill:black;font-family:sans-serif;font-size:13;text-anchor:middle;" transform="matrix(1 0 0 1 856.422 322)">Thin</text>
  <text style="stroke:none;fill:black;font-family:sans-serif;font-size:13;text-anchor:middle;" transform="matrix(1 0 0 1 1153.13 322)">Light</text>
  <text style="stroke:none;fill:black;font-family:sans-serif;font-size:13;text-anchor:middle;" transform="matrix(1 0 0 1 1449.84 322)">Regular</text>
  <text style="stroke:none;fill:black;font-family:sans-serif;font-size:13;text-anchor:middle;" transform="matrix(1 0 0 1 1746.56 322)">Medium</text>
  <text style="stroke:none;fill:black;font-family:sans-serif;font-size:13;text-anchor:middle;" transform="matrix(1 0 0 1 2043.27 322)">Semibold</text>
  <text style="stroke:none;fill:black;font-family:sans-serif;font-size:13;text-anchor:middle;" transform="matrix(1 0 0 1 2339.98 322)">Bold</text>
  <text style="stroke:none;fill:black;font-family:sans-serif;font-size:13;text-anchor:middle;" transform="matrix(1 0 0 1 2636.69 322)">Heavy</text>
  <text style="stroke:none;fill:black;font-family:sans-serif;font-size:13;text-anchor:middle;" transform="matrix(1 0 0 1 2933.4 322)">Black</text>
  <line style="fill:none;stroke:black;opacity:1;stroke-width:0.5;" x1="263" x2="3036" y1="1903" y2="1903"/>
  <g transform="matrix(1 0 0 1 263 1933)">
   <path d="M9.24805 0.830078Q10.8691 0.830078 12.2949 0.214844Q13.7207-0.400391 14.8096-1.49414Q15.8984-2.58789 16.5186-4.01367Q17.1387-5.43945 17.1387-7.05078Q17.1387-8.66211 16.5186-10.0879Q15.8984-11.5137 14.8047-12.6074Q13.7109-13.7012 12.2852-14.3164Q10.8594-14.9316 9.23828-14.9316Q7.62695-14.9316 6.20117-14.3164Q4.77539-13.7012 3.69141-12.6074Q2.60742-11.5137 1.9873-10.0879Q1.36719-8.66211 1.36719-7.05078Q1.36719-5.43945 1.9873-4.01367Q2.60742-2.58789 3.69629-1.49414Q4.78516-0.400391 6.21094 0.214844Q7.63672 0.830078 9.24805 0.830078ZM9.24805-0.654297Q7.91992-0.654297 6.7627-1.14746Q5.60547-1.64062 4.73145-2.51953Q3.85742-3.39844 3.36426-4.56055Q2.87109-5.72266 2.87109-7.05078Q2.87109-8.37891 3.35938-9.54102Q3.84766-10.7031 4.72168-11.582Q5.5957-12.4609 6.75293-12.9541Q7.91016-13.4473 9.23828-13.4473Q10.5762-13.4473 11.7334-12.9541Q12.8906-12.4609 13.7695-11.582Q14.6484-10.7031 15.1465-9.54102Q15.6445-8.37891 15.6445-7.05078Q15.6445-5.72266 15.1514-4.56055Q14.6582-3.39844 13.7842-2.51953Q12.9102-1.64062 11.748-1.14746Q10.5859-0.654297 9.24805-0.654297ZM5.83984-7.04102Q5.83984-6.71875 6.04492-6.51855Q6.25-6.31836 6.5918-6.31836L8.50586-6.31836L8.50586-4.39453Q8.50586-4.0625 8.70605-3.85742Q8.90625-3.65234 9.22852-3.65234Q9.56055-3.65234 9.76562-3.85742Q9.9707-4.0625 9.9707-4.39453L9.9707-6.31836L11.8945-6.31836Q12.2266-6.31836 12.4316-6.51855Q12.6367-6.71875 12.6367-7.04102Q12.6367-7.37305 12.4316-7.57812Q12.2266-7.7832 11.8945-7.7832L9.9707-7.7832L9.9707-9.69727Q9.9707-10.0391 9.76562-10.2441Q9.56055-10.4492 9.22852-10.4492Q8.90625-10.4492 8.70605-10.2441Q8.50586-10.0391 8.50586-9.69727L8.50586-7.7832L6.5918-7.7832Q6.25-7.7832 6.04492-7.57812Q5.83984-7.37305 5.83984-7.04102Z"/>
  </g>
  <g transform="matrix(1 0 0 1 281.867 1933)">
   <path d="M11.709 2.91016Q13.75 2.91016 15.5518 2.12891Q17.3535 1.34766 18.7305-0.0292969Q20.1074-1.40625 20.8887-3.20801Q21.6699-5.00977 21.6699-7.05078Q21.6699-9.0918 20.8887-10.8936Q20.1074-12.6953 18.7305-14.0723Q17.3535-15.4492 15.5469-16.2305Q13.7402-17.0117 11.6992-17.0117Q9.6582-17.0117 7.85645-16.2305Q6.05469-15.4492 4.68262-14.0723Q3.31055-12.6953 2.5293-10.8936Q1.74805-9.0918 1.74805-7.05078Q1.74805-5.00977 2.5293-3.20801Q3.31055-1.40625 4.6875-0.0292969Q6.06445 1.34766 7.86621 2.12891Q9.66797 2.91016 11.709 2.91016ZM11.709 1.25Q9.98047 1.25 8.47656 0.605469Q6.97266-0.0390625 5.83496-1.17676Q4.69727-2.31445 4.05762-3.81836Q3.41797-5.32227 3.41797-7.05078Q3.41797-8.7793 4.05762-10.2832Q4.69727-11.7871 5.83008-12.9297Q6.96289-14.0723 8.4668-14.7119Q9.9707-15.3516 11.6992-15.3516Q13.4277-15.3516 14.9316-14.7119Q16.4355-14.0723 17.5781-12.9297Q18.7207-11.7871 19.3652-10.2832Q20.0098-8.7793 20.0098-7.05078Q20.0098-5.32227 19.3701-3.81836Q18.7305-2.31445 17.5928-1.17676Q16.4551-0.0390625 14.9463 0.605469Q13.4375 1.25 11.709 1.25ZM7.39258-7.04102Q7.39258-6.68945 7.62695-6.46484Q7.86133-6.24023 8.23242-6.24023L10.8789-6.24023L10.8789-3.57422Q10.8789-3.21289 11.1035-2.9834Q11.3281-2.75391 11.6797-2.75391Q12.0508-2.75391 12.2852-2.9834Q12.5195-3.21289 12.5195-3.57422L12.5195-6.24023L15.1758-6.24023Q15.5371-6.24023 15.7715-6.46484Q16.0059-6.68945 16.0059-7.04102Q16.0059-7.41211 15.7715-7.6416Q15.5371-7.87109 15.1758-7.87109L12.5195-7.87109L12.5195-10.5176Q12.5195-10.8984 12.2852-11.1279Q12.0508-11.3574 11.6797-11.3574Q11.3281-11.3574 11.1035-11.1279Q10.8789-10.8984 10.8789-10.5176L10.8789-7.87109L8.23242-7.87109Q7.85156-7.87109 7.62207-7.6416Q7.39258-7.41211 7.39258-7.04102Z"/>
  </g>
  <g transform="matrix(1 0 0 1 305.646 1933)">
   <path d="M14.9707 5.66406Q17.0605 5.66406 18.96 5.01465Q20.8594 4.36523 22.4512 3.19336Q24.043 2.02148 25.2197 0.429688Q26.3965-1.16211 27.0459-3.06641Q27.6953-4.9707 27.6953-7.05078Q27.6953-9.14062 27.0459-11.04Q26.3965-12.9395 25.2197-14.5312Q24.043-16.123 22.4512-17.2998Q20.8594-18.4766 18.9551-19.126Q17.0508-19.7754 14.9609-19.7754Q12.8711-19.7754 10.9717-19.126Q9.07227-18.4766 7.48535-17.2998Q5.89844-16.123 4.72168-14.5312Q3.54492-12.9395 2.90039-11.04Q2.25586-9.14062 2.25586-7.05078Q2.25586-4.9707 2.90527-3.06641Q3.55469-1.16211 4.72656 0.429688Q5.89844 2.02148 7.49023 3.19336Q9.08203 4.36523 10.9814 5.01465Q12.8809 5.66406 14.9707 5.66406ZM14.9707 3.84766Q13.1641 3.84766 11.5283 3.2959Q9.89258 2.74414 8.53516 1.74805Q7.17773 0.751953 6.17676-0.610352Q5.17578-1.97266 4.62891-3.6084Q4.08203-5.24414 4.08203-7.05078Q4.08203-8.86719 4.62891-10.5029Q5.17578-12.1387 6.17188-13.501Q7.16797-14.8633 8.52539-15.8594Q9.88281-16.8555 11.5186-17.4023Q13.1543-17.9492 14.9609-17.9492Q16.7773-17.9492 18.4131-17.4023Q20.0488-16.8555 21.4111-15.8594Q22.7734-14.8633 23.7695-13.501Q24.7656-12.1387 25.3174-10.5029Q25.8691-8.86719 25.8691-7.05078Q25.8789-5.24414 25.332-3.6084Q24.7852-1.97266 23.7842-0.610352Q22.7832 0.751953 21.4209 1.74805Q20.0586 2.74414 18.4229 3.2959Q16.7871 3.84766 14.9707 3.84766ZM9.45312-7.04102Q9.45312-6.66016 9.71191-6.41113Q9.9707-6.16211 10.3711-6.16211L14.0625-6.16211L14.0625-2.46094Q14.0625-2.06055 14.3115-1.80664Q14.5605-1.55273 14.9414-1.55273Q15.3516-1.55273 15.6055-1.80664Q15.8594-2.06055 15.8594-2.46094L15.8594-6.16211L19.5605-6.16211Q19.9609-6.16211 20.2148-6.41113Q20.4688-6.66016 20.4688-7.04102Q20.4688-7.45117 20.2148-7.70508Q19.9609-7.95898 19.5605-7.95898L15.8594-7.95898L15.8594-11.6504Q15.8594-12.0605 15.6055-12.3145Q15.3516-12.5684 14.9414-12.5684Q14.5605-12.5684 14.3115-12.3096Q14.0625-12.0508 14.0625-11.6504L14.0625-7.95898L10.3711-7.95898Q9.96094-7.95898 9.70703-7.70508Q9.45312-7.45117 9.45312-7.04102Z"/>
  </g>
  <text style="stroke:none;fill:black;font-family:sans-serif;font-size:13;font-weight:bold;" transform="matrix(1 0 0 1 263 1953)">Design Variations</text>
  <text style="stroke:none;fill:black;font-family:sans-serif;font-size:13;" transform="matrix(1 0 0 1 263 1971)">Symbols are supported in up to nine weights and three scales.</text>
  <text style="stroke:none;fill:black;font-family:sans-serif;font-size:13;" transform="matrix(1 0 0 1 263 1989)">For optimal layout with text and other symbols, vertically align</text>
  <text style="stroke:none;fill:black;font-family:sans-serif;font-size:13;" transform="matrix(1 0 0 1 263 2007)">symbols with the adjacent text.</text>
  <line style="fill:none;stroke:#00AEEF;stroke-width:0.5;opacity:1.0;" x1="776" x2="776" y1="1919" y2="1933"/>
  <g transform="matrix(1 0 0 1 776 1933)">
   <path d="M3.31055 0.15625Q3.70117 0.15625 3.91602-0.00976562Q4.13086-0.175781 4.26758-0.585938L5.52734-4.0332L11.2891-4.0332L12.5488-0.585938Q12.6855-0.175781 12.9004-0.00976562Q13.1152 0.15625 13.4961 0.15625Q13.8867 0.15625 14.1162-0.0585938Q14.3457-0.273438 14.3457-0.644531Q14.3457-0.869141 14.2383-1.17188L9.6582-13.3691Q9.48242-13.8184 9.17969-14.043Q8.87695-14.2676 8.4082-14.2676Q7.5-14.2676 7.17773-13.3789L2.59766-1.16211Q2.49023-0.859375 2.49023-0.634766Q2.49023-0.263672 2.70996-0.0537109Q2.92969 0.15625 3.31055 0.15625ZM6.00586-5.51758L8.37891-12.0898L8.42773-12.0898L10.8008-5.51758Z"/>
  </g>
  <line style="fill:none;stroke:#00AEEF;stroke-width:0.5;opacity:1.0;" x1="793.197" x2="793.197" y1="1919" y2="1933"/>
  <text style="stroke:none;fill:black;font-family:sans-serif;font-size:13;font-weight:bold;" transform="matrix(1 0 0 1 776 1953)">Margins</text>
  <text style="stroke:none;fill:black;font-family:sans-serif;font-size:13;" transform="matrix(1 0 0 1 776 1971)">Leading and trailing margins on the left and right side of each symbol</text>
  <text style="stroke:none;fill:black;font-family:sans-serif;font-size:13;" transform="matrix(1 0 0 1 776 1989)">can be adjusted by modifying the x-location of the margin guidelines.</text>
  <text style="stroke:none;fill:black;font-family:sans-serif;font-size:13;" transform="matrix(1 0 0 1 776 2007)">Modifications are automatically applied proportionally to all</text>
  <text style="stroke:none;fill:black;font-family:sans-serif;font-size:13;" transform="matrix(1 0 0 1 776 2025)">scales and weights.</text>
  <g transform="matrix(1 0 0 1 1289 1933)">
   <path d="M2.8418 1.86523L4.54102 3.57422Q5.18555 4.22852 5.90332 4.17969Q6.62109 4.13086 7.31445 3.35938L18.0078-8.42773L17.041-9.4043L6.42578 2.27539Q6.16211 2.57812 5.89355 2.61719Q5.625 2.65625 5.27344 2.30469L4.10156 1.14258Q3.75 0.791016 3.79395 0.522461Q3.83789 0.253906 4.14062-0.0195312L15.6152-10.8203L14.6387-11.7871L3.04688-0.898438Q2.30469-0.214844 2.25098 0.498047Q2.19727 1.21094 2.8418 1.86523ZM9.25781-16.3281Q8.94531-16.0254 8.90625-15.6348Q8.86719-15.2441 9.04297-14.9512Q9.21875-14.6777 9.55566-14.541Q9.89258-14.4043 10.3809-14.5215Q11.4746-14.7754 12.5977-14.7314Q13.7207-14.6875 14.7949-13.9844L14.209-12.5293Q13.9551-11.9043 14.0674-11.4404Q14.1797-10.9766 14.5801-10.5664L16.875-8.25195Q17.2363-7.88086 17.5781-7.82227Q17.9199-7.76367 18.3398-7.8418L19.4043-8.03711L20.0684-7.36328L20.0293-6.80664Q20-6.43555 20.1221-6.12305Q20.2441-5.81055 20.6055-5.44922L21.3672-4.70703Q21.7285-4.3457 22.1533-4.33105Q22.5781-4.31641 22.9297-4.66797L25.8398-7.58789Q26.1914-7.93945 26.1816-8.35449Q26.1719-8.76953 25.8105-9.13086L25.0391-9.89258Q24.6875-10.2539 24.3799-10.3857Q24.0723-10.5176 23.7109-10.4883L23.1348-10.4395L22.4902-11.0742L22.7344-12.1973Q22.832-12.6172 22.6953-12.9834Q22.5586-13.3496 22.1191-13.7891L19.9219-15.9766Q18.6719-17.2168 17.2607-17.8369Q15.8496-18.457 14.4189-18.4814Q12.9883-18.5059 11.665-17.959Q10.3418-17.4121 9.25781-16.3281ZM10.752-15.957Q11.6602-16.6211 12.7002-16.9043Q13.7402-17.1875 14.8047-17.085Q15.8691-16.9824 16.8701-16.5137Q17.8711-16.0449 18.7012-15.2051L21.1328-12.793Q21.3086-12.6172 21.3525-12.4512Q21.3965-12.2852 21.3379-12.0312L21.0156-10.5469L22.5195-9.0625L23.5059-9.12109Q23.6914-9.13086 23.7891-9.09668Q23.8867-9.0625 24.0332-8.91602L24.6094-8.33984L22.168-5.89844L21.5918-6.47461Q21.4453-6.62109 21.4062-6.71875Q21.3672-6.81641 21.377-7.01172L21.4453-7.98828L19.9512-9.47266L18.4277-9.21875Q18.1836-9.16992 18.042-9.2041Q17.9004-9.23828 17.7148-9.41406L15.7129-11.416Q15.5176-11.5918 15.4932-11.7529Q15.4688-11.9141 15.5859-12.1875L16.4648-14.2773Q15.293-15.3711 13.8281-15.791Q12.3633-16.2109 10.8398-15.7617Q10.7227-15.7324 10.6885-15.8057Q10.6543-15.8789 10.752-15.957Z"/>
  </g>
  <text style="stroke:none;fill:black;font-family:sans-serif;font-size:13;font-weight:bold;" transform="matrix(1 0 0 1 1289 1953)">Exporting</text>
  <text style="stroke:none;fill:black;font-family:sans-serif;font-size:13;" transform="matrix(1 0 0 1 1289 1971)">Symbols should be outlined when exporting to ensure the</text>
  <text style="stroke:none;fill:black;font-family:sans-serif;font-size:13;" transform="matrix(1 0 0 1 1289 1989)">design is preserved when submitting to Xcode.</text>
  <text id="template-version" style="stroke:none;fill:black;font-family:sans-serif;font-size:13;text-anchor:end;" transform="matrix(1 0 0 1 3036 1933)">Template v.2.0</text>
  <text style="stroke:none;fill:black;font-family:sans-serif;font-size:13;text-anchor:end;" transform="matrix(1 0 0 1 3036 1951)">Requires Xcode 13 or greater</text>
  <text id="descriptive-name" style="stroke:none;fill:black;font-family:sans-serif;font-size:13;text-anchor:end;" transform="matrix(1 0 0 1 3036 1969)">Generated from person.3.fill</text>
  <text style="stroke:none;fill:black;font-family:sans-serif;font-size:13;text-anchor:end;" transform="matrix(1 0 0 1 3036 1987)">Typeset at 100 points</text>
  <text style="stroke:none;fill:black;font-family:sans-serif;font-size:13;" transform="matrix(1 0 0 1 263 726)">Small</text>
  <text style="stroke:none;fill:black;font-family:sans-serif;font-size:13;" transform="matrix(1 0 0 1 263 1156)">Medium</text>
  <text style="stroke:none;fill:black;font-family:sans-serif;font-size:13;" transform="matrix(1 0 0 1 263 1586)">Large</text>
 </g>
 <g id="Guides">
  <g id="H-reference" style="fill:#27AAE1;stroke:none;" transform="matrix(1 0 0 1 339 696)">
   <path d="M0.976562 0L3.66211 0L29.3457-67.1387L30.0293-67.1387L30.0293-70.459L28.125-70.459ZM11.6699-24.4629L46.9727-24.4629L46.2402-26.709L12.4512-26.709ZM55.127 0L57.7637 0L30.6152-70.459L29.4434-70.459L29.4434-67.1387Z"/>
  </g>
  <line id="Baseline-S" style="fill:none;stroke:#27AAE1;opacity:1;stroke-width:0.5;" x1="263" x2="3036" y1="696" y2="696"/>
  <line id="Capline-S" style="fill:none;stroke:#27AAE1;opacity:1;stroke-width:0.5;" x1="263" x2="3036" y1="625.541" y2="625.541"/>
  <g id="H-reference" style="fill:#27AAE1;stroke:none;" transform="matrix(1 0 0 1 339 1126)">
   <path d="M0.976562 0L3.66211 0L29.3457-67.1387L30.0293-67.1387L30.0293-70.459L28.125-70.459ZM11.6699-24.4629L46.9727-24.4629L46.2402-26.709L12.4512-26.709ZM55.127 0L57.7637 0L30.6152-70.459L29.4434-70.459L29.4434-67.1387Z"/>
  </g>
  <line id="Baseline-M" style="fill:none;stroke:#27AAE1;opacity:1;stroke-width:0.5;" x1="263" x2="3036" y1="1126" y2="1126"/>
  <line id="Capline-M" style="fill:none;stroke:#27AAE1;opacity:1;stroke-width:0.5;" x1="263" x2="3036" y1="1055.54" y2="1055.54"/>
  <g id="H-reference" style="fill:#27AAE1;stroke:none;" transform="matrix(1 0 0 1 339 1556)">
   <path d="M0.976562 0L3.66211 0L29.3457-67.1387L30.0293-67.1387L30.0293-70.459L28.125-70.459ZM11.6699-24.4629L46.9727-24.4629L46.2402-26.709L12.4512-26.709ZM55.127 0L57.7637 0L30.6152-70.459L29.4434-70.459L29.4434-67.1387Z"/>
  </g>
  <line id="Baseline-L" style="fill:none;stroke:#27AAE1;opacity:1;stroke-width:0.5;" x1="263" x2="3036" y1="1556" y2="1556"/>
  <line id="Capline-L" style="fill:none;stroke:#27AAE1;opacity:1;stroke-width:0.5;" x1="263" x2="3036" y1="1485.54" y2="1485.54"/>
  <line id="left-margin" style="fill:none;stroke:#00AEEF;stroke-width:0.5;opacity:1.0;" x1="1345.35" x2="1345.35" y1="1030.79" y2="1150.12"/>
  <line id="right-margin" style="fill:none;stroke:#00AEEF;stroke-width:0.5;opacity:1.0;" x1="1554.34" x2="1554.34" y1="1030.79" y2="1150.12"/>
 </g>
 <g id="Symbols">
  <g id="Black-L" transform="matrix(1 0 0 1 2796.53 1556)">
   <path d="M98.7793 23.9258L174.951 23.9258Q183.984 23.9258 187.427 20.9961Q190.869 18.0664 190.869 13.0371Q190.869 8.25195 188.403 3.00293Q185.938-2.24609 181.274-7.20215Q176.611-12.1582 169.995-16.1377Q163.379-20.1172 155.029-22.4854Q146.68-24.8535 136.865-24.8535Q127.051-24.8535 118.701-22.4854Q110.352-20.1172 103.735-16.1377Q97.1191-12.1582 92.4561-7.20215Q87.793-2.24609 85.3271 3.00293Q82.8613 8.25195 82.8613 13.0371Q82.8613 18.0664 86.2793 20.9961Q89.6973 23.9258 98.7793 23.9258ZM136.865-35.6934Q144.141-35.6934 150.073-39.5264Q156.006-43.3594 159.521-49.8291Q163.037-56.2988 163.037-64.2578Q163.037-69.9707 160.986-75.0488Q158.936-80.127 155.347-83.9844Q151.758-87.8418 147.021-90.0391Q142.285-92.2363 136.865-92.2363Q131.445-92.2363 126.709-90.0391Q121.973-87.8418 118.359-83.96Q114.746-80.0781 112.695-75Q110.645-69.9219 110.693-64.209Q110.693-56.25 114.209-49.8047Q117.725-43.3594 123.657-39.5264Q129.59-35.6934 136.865-35.6934ZM29.6875 23.9746L74.4141 23.9746Q71.7285 20.0684 71.3623 14.8438Q70.9961 9.61914 72.8516 3.83301Q74.707-1.95312 78.7354-7.69043Q82.7637-13.4277 88.8184-18.3594Q83.8379-21.1914 77.2461-23.0713Q70.6543-24.9512 63.0859-24.9512Q52.832-24.9512 44.2627-21.6309Q35.6934-18.3105 29.3701-12.915Q23.0469-7.51953 19.5801-1.19629Q16.1133 5.12695 16.1133 11.1328Q16.1133 17.0898 19.043 20.5322Q21.9727 23.9746 29.6875 23.9746ZM63.0859-34.3262Q69.4336-34.3262 74.6094-37.6465Q79.7852-40.9668 82.8613-46.6064Q85.9375-52.2461 85.9375-59.1797Q85.9375-65.8691 82.8369-71.4111Q79.7363-76.9531 74.5605-80.2734Q69.3848-83.5938 63.0859-83.5938Q56.8359-83.5938 51.6602-80.249Q46.4844-76.9043 43.3838-71.3379Q40.2832-65.7715 40.332-59.1309Q40.332-52.2461 43.4082-46.6064Q46.4844-40.9668 51.6357-37.6465Q56.7871-34.3262 63.0859-34.3262ZM243.896 23.9746Q251.611 23.9746 254.565 20.5322Q257.52 17.0898 257.52 11.1328Q257.52 5.12695 254.053-1.19629Q250.586-7.51953 244.263-12.915Q237.939-18.3105 229.346-21.6309Q220.752-24.9512 210.498-24.9512Q202.93-24.9512 196.362-23.0713Q189.795-21.1914 184.814-18.3594Q190.869-13.4277 194.873-7.69043Q198.877-1.95312 200.757 3.83301Q202.637 9.61914 202.271 14.8438Q201.904 20.0684 199.17 23.9746ZM210.498-34.3262Q216.846-34.3262 221.997-37.6465Q227.148-40.9668 230.2-46.6064Q233.252-52.2461 233.301-59.1309Q233.301-65.7715 230.225-71.3379Q227.148-76.9043 221.973-80.249Q216.797-83.5938 210.498-83.5938Q204.248-83.5938 199.072-80.2734Q193.896-76.9531 190.796-71.4111Q187.695-65.8691 187.695-59.1797Q187.695-52.2461 190.771-46.6064Q193.848-40.9668 199.023-37.6465Q204.199-34.3262 210.498-34.3262Z"/>
  </g>
  <g id="Heavy-L" transform="matrix(1 0 0 1 2500.34 1556)">
   <path d="M97.7539 23.5352L174.951 23.5352Q183.447 23.5352 186.743 20.8252Q190.039 18.1152 190.039 13.2812Q190.039 8.49609 187.622 3.22266Q185.205-2.05078 180.566-7.03125Q175.928-12.0117 169.36-16.0156Q162.793-20.0195 154.468-22.3877Q146.143-24.7559 136.328-24.7559Q126.514-24.7559 118.213-22.3877Q109.912-20.0195 103.32-16.0156Q96.7285-12.0117 92.1143-7.03125Q87.5-2.05078 85.0586 3.22266Q82.6172 8.49609 82.6172 13.2812Q82.6172 18.1152 85.9131 20.8252Q89.209 23.5352 97.7539 23.5352ZM136.328-35.6934Q143.506-35.6934 149.39-39.502Q155.273-43.3105 158.765-49.7314Q162.256-56.1523 162.256-64.0625Q162.256-69.7754 160.205-74.8291Q158.154-79.8828 154.614-83.6914Q151.074-87.5 146.387-89.6729Q141.699-91.8457 136.328-91.8457Q131.006-91.8457 126.318-89.6729Q121.631-87.5 118.066-83.667Q114.502-79.834 112.451-74.7803Q110.4-69.7266 110.449-64.0137Q110.449-56.1035 113.94-49.707Q117.432-43.3105 123.315-39.502Q129.199-35.6934 136.328-35.6934ZM28.9062 23.5352L74.7559 23.5352Q72.1191 19.8242 71.8506 14.7217Q71.582 9.61914 73.4863 3.88184Q75.3906-1.85547 79.3457-7.4707Q83.3008-13.0859 89.1602-17.8223Q84.1309-20.8496 77.4414-22.876Q70.752-24.9023 62.793-24.9023Q52.4414-24.9023 43.8965-21.5332Q35.3516-18.1641 29.1016-12.7197Q22.8516-7.27539 19.458-0.854492Q16.0645 5.56641 16.0645 11.7188Q16.0645 17.2852 18.8965 20.4102Q21.7285 23.5352 28.9062 23.5352ZM62.8418-34.3262Q69.043-34.3262 74.1699-37.6221Q79.2969-40.918 82.3486-46.5088Q85.4004-52.0996 85.4004-59.0332Q85.4004-65.7227 82.3242-71.1914Q79.248-76.6602 74.1211-79.9316Q68.9941-83.2031 62.8418-83.2031Q56.6406-83.2031 51.5381-79.9072Q46.4355-76.6113 43.335-71.0938Q40.2344-65.5762 40.2832-58.9355Q40.2832-52.0996 43.335-46.5088Q46.3867-40.918 51.4893-37.6221Q56.5918-34.3262 62.8418-34.3262ZM243.604 23.5352Q250.83 23.5352 253.662 20.4102Q256.494 17.2852 256.494 11.7188Q256.494 5.56641 253.101-0.854492Q249.707-7.27539 243.457-12.7197Q237.207-18.1641 228.638-21.5332Q220.068-24.9023 209.717-24.9023Q201.758-24.9023 195.093-22.876Q188.428-20.8496 183.398-17.8223Q189.258-13.0859 193.213-7.4707Q197.168-1.85547 199.072 3.88184Q200.977 9.61914 200.708 14.7217Q200.439 19.8242 197.754 23.5352ZM209.717-34.3262Q215.918-34.3262 221.021-37.6221Q226.123-40.918 229.175-46.5088Q232.227-52.0996 232.275-58.9355Q232.275-65.5762 229.199-71.0938Q226.123-76.6113 220.996-79.9072Q215.869-83.2031 209.717-83.2031Q203.516-83.2031 198.413-79.9316Q193.311-76.6602 190.21-71.1914Q187.109-65.7227 187.109-59.0332Q187.109-52.0996 190.186-46.5088Q193.262-40.918 198.364-37.6221Q203.467-34.3262 209.717-34.3262Z"/>
  </g>
  <g id="Bold-L" transform="matrix(1 0 0 1 2204.19 1556)">
   <path d="M96.582 23.0469L174.951 23.0469Q182.861 23.0469 186.011 20.6055Q189.16 18.1641 189.16 13.5742Q189.16 8.74023 186.768 3.44238Q184.375-1.85547 179.785-6.86035Q175.195-11.8652 168.652-15.8936Q162.109-19.9219 153.833-22.29Q145.557-24.6582 135.742-24.6582Q125.977-24.6582 117.676-22.29Q109.375-19.9219 102.856-15.8936Q96.3379-11.8652 91.748-6.86035Q87.1582-1.85547 84.7412 3.44238Q82.3242 8.74023 82.3242 13.5742Q82.3242 18.1641 85.4736 20.6055Q88.623 23.0469 96.582 23.0469ZM135.791-35.7422Q142.822-35.7422 148.633-39.502Q154.443-43.2617 157.91-49.6338Q161.377-56.0059 161.377-63.916Q161.377-69.6289 159.351-74.6094Q157.324-79.5898 153.809-83.3496Q150.293-87.1094 145.654-89.2334Q141.016-91.3574 135.791-91.3574Q130.566-91.3574 125.928-89.2334Q121.289-87.1094 117.749-83.3252Q114.209-79.541 112.183-74.5361Q110.156-69.5312 110.205-63.8184Q110.205-55.957 113.672-49.6094Q117.139-43.2617 122.949-39.502Q128.76-35.7422 135.791-35.7422ZM28.125 23.0957L75.2441 23.0957Q72.6562 19.5801 72.4609 14.5752Q72.2656 9.57031 74.2188 3.93066Q76.1719-1.70898 80.0781-7.20215Q83.9844-12.6953 89.5996-17.2363Q84.4727-20.5078 77.6855-22.6807Q70.8984-24.8535 62.5488-24.8535Q52.0996-24.8535 43.5791-21.46Q35.0586-18.0664 28.8818-12.5488Q22.7051-7.03125 19.3848-0.463867Q16.0645 6.10352 16.0645 12.3535Q16.0645 17.4805 18.7744 20.2881Q21.4844 23.0957 28.125 23.0957ZM62.5977-34.375Q68.7012-34.375 73.7793-37.6221Q78.8574-40.8691 81.8848-46.4111Q84.9121-51.9531 84.9121-58.8379Q84.9121-65.5273 81.8604-70.9473Q78.8086-76.3672 73.7305-79.5654Q68.6523-82.7637 62.5977-82.7637Q56.543-82.7637 51.4648-79.541Q46.3867-76.3184 43.335-70.874Q40.2832-65.4297 40.332-58.7891Q40.332-51.9531 43.3594-46.4111Q46.3867-40.8691 51.4404-37.6221Q56.4941-34.375 62.5977-34.375ZM243.311 23.0957Q249.951 23.0957 252.661 20.2881Q255.371 17.4805 255.371 12.3535Q255.371 6.10352 252.051-0.463867Q248.73-7.03125 242.554-12.5488Q236.377-18.0664 227.832-21.46Q219.287-24.8535 208.838-24.8535Q200.537-24.8535 193.75-22.6807Q186.963-20.5078 181.836-17.2363Q187.451-12.6953 191.357-7.20215Q195.264-1.70898 197.217 3.93066Q199.17 9.57031 198.975 14.5752Q198.779 19.5801 196.191 23.0957ZM208.838-34.375Q214.941-34.375 219.995-37.6221Q225.049-40.8691 228.076-46.4111Q231.104-51.9531 231.104-58.7891Q231.104-65.4297 228.076-70.874Q225.049-76.3184 219.971-79.541Q214.893-82.7637 208.838-82.7637Q202.783-82.7637 197.705-79.5654Q192.627-76.3672 189.575-70.9473Q186.523-65.5273 186.523-58.8379Q186.523-51.9531 189.551-46.4111Q192.578-40.8691 197.656-37.6221Q202.734-34.375 208.838-34.375Z"/>
  </g>
  <g id="Semibold-L" transform="matrix(1 0 0 1 1907.89 1556)">
   <path d="M95.752 22.7051L174.902 22.7051Q182.422 22.7051 185.474 20.4346Q188.525 18.1641 188.525 13.7207Q188.525 8.93555 186.157 3.61328Q183.789-1.70898 179.224-6.71387Q174.658-11.7188 168.164-15.7715Q161.67-19.8242 153.394-22.2168Q145.117-24.6094 135.352-24.6094Q125.537-24.6094 117.285-22.2168Q109.033-19.8242 102.515-15.7715Q95.9961-11.7188 91.4551-6.71387Q86.9141-1.70898 84.5215 3.61328Q82.1289 8.93555 82.1289 13.7207Q82.1289 18.1641 85.1807 20.4346Q88.2324 22.7051 95.752 22.7051ZM135.352-35.7422Q142.285-35.7422 148.071-39.4775Q153.857-43.2129 157.324-49.5361Q160.791-55.8594 160.791-63.7695Q160.791-69.4824 158.765-74.4385Q156.738-79.3945 153.223-83.1299Q149.707-86.8652 145.142-88.9404Q140.576-91.0156 135.352-91.0156Q130.225-91.0156 125.61-88.916Q120.996-86.8164 117.48-83.0566Q113.965-79.2969 111.963-74.3164Q109.961-69.3359 110.01-63.623Q110.01-55.8105 113.452-49.5117Q116.895-43.2129 122.656-39.4775Q128.418-35.7422 135.352-35.7422ZM27.4902 22.7539L75.5371 22.7539Q72.9492 19.3848 72.8271 14.4775Q72.7051 9.57031 74.6826 3.97949Q76.6602-1.61133 80.5176-7.03125Q84.375-12.4512 89.8438-16.7969Q84.668-20.2148 77.8076-22.5098Q70.9473-24.8047 62.3047-24.8047Q51.8066-24.8047 43.2861-21.3623Q34.7656-17.9199 28.6621-12.3779Q22.5586-6.83594 19.2871-0.195312Q16.0156 6.44531 16.0156 12.793Q16.0156 17.5781 18.6279 20.166Q21.2402 22.7539 27.4902 22.7539ZM62.3535-34.375Q68.4082-34.375 73.4375-37.5977Q78.4668-40.8203 81.4697-46.3379Q84.4727-51.8555 84.4727-58.6914Q84.4727-65.3809 81.4453-70.7764Q78.418-76.1719 73.3887-79.3213Q68.3594-82.4707 62.3535-82.4707Q56.3477-82.4707 51.3428-79.2725Q46.3379-76.0742 43.2861-70.6787Q40.2344-65.2832 40.2832-58.6426Q40.2832-51.8066 43.2861-46.3135Q46.2891-40.8203 51.2939-37.5977Q56.2988-34.375 62.3535-34.375ZM243.115 22.7539Q249.365 22.7539 251.978 20.166Q254.59 17.5781 254.59 12.793Q254.59 6.44531 251.318-0.195312Q248.047-6.83594 241.943-12.3779Q235.84-17.9199 227.295-21.3623Q218.75-24.8047 208.252-24.8047Q199.658-24.8047 192.798-22.5098Q185.938-20.2148 180.762-16.7969Q186.182-12.4512 190.063-7.03125Q193.945-1.61133 195.923 3.97949Q197.9 9.57031 197.778 14.4775Q197.656 19.3848 195.068 22.7539ZM208.203-34.375Q214.258-34.375 219.287-37.5977Q224.316-40.8203 227.319-46.3135Q230.322-51.8066 230.322-58.6426Q230.322-65.2832 227.295-70.6787Q224.268-76.0742 219.238-79.2725Q214.209-82.4707 208.203-82.4707Q202.246-82.4707 197.217-79.3213Q192.188-76.1719 189.136-70.7764Q186.084-65.3809 186.084-58.6914Q186.084-51.8555 189.111-46.3379Q192.139-40.8203 197.168-37.5977Q202.197-34.375 208.203-34.375Z"/>
  </g>
  <g id="Medium-L" transform="matrix(1 0 0 1 1611.47 1556)">
   <path d="M95.1172 22.4609L174.902 22.4609Q182.08 22.4609 185.083 20.3125Q188.086 18.1641 188.086 13.8672Q188.086 9.0332 185.718 3.71094Q183.35-1.61133 178.809-6.61621Q174.268-11.6211 167.773-15.6982Q161.279-19.7754 153.027-22.1436Q144.775-24.5117 135.01-24.5117Q125.244-24.5117 116.992-22.1436Q108.74-19.7754 102.271-15.6982Q95.8008-11.6211 91.2842-6.61621Q86.7676-1.61133 84.375 3.71094Q81.9824 9.0332 81.9824 13.8672Q81.9824 18.1641 84.9609 20.3125Q87.9395 22.4609 95.1172 22.4609ZM135.059-35.791Q141.943-35.791 147.681-39.4775Q153.418-43.1641 156.86-49.4629Q160.303-55.7617 160.303-63.6719Q160.303-69.3848 158.301-74.3164Q156.299-79.248 152.808-82.9346Q149.316-86.6211 144.751-88.6963Q140.186-90.7715 135.059-90.7715Q129.98-90.7715 125.391-88.6963Q120.801-86.6211 117.31-82.8857Q113.818-79.1504 111.841-74.1943Q109.863-69.2383 109.863-63.5254Q109.863-55.7129 113.281-49.4385Q116.699-43.1641 122.437-39.4775Q128.174-35.791 135.059-35.791ZM27.0508 22.5098L75.7812 22.5098Q73.2422 19.2871 73.1445 14.4043Q73.0469 9.52148 75.0732 3.97949Q77.0996-1.5625 80.9326-6.88477Q84.7656-12.207 90.0879-16.4551Q84.8633-20.0195 77.9297-22.3877Q70.9961-24.7559 62.207-24.7559Q51.6113-24.7559 43.0908-21.3135Q34.5703-17.8711 28.5156-12.2803Q22.4609-6.68945 19.2383 0Q16.0156 6.68945 16.0156 13.1348Q16.0156 17.6758 18.5547 20.0928Q21.0938 22.5098 27.0508 22.5098ZM62.207-34.375Q68.2129-34.375 73.2178-37.5977Q78.2227-40.8203 81.2012-46.2891Q84.1797-51.7578 84.1797-58.6426Q84.1797-65.332 81.1768-70.6543Q78.1738-75.9766 73.1689-79.1016Q68.1641-82.2266 62.207-82.2266Q56.2988-82.2266 51.2939-79.0527Q46.2891-75.8789 43.2617-70.5322Q40.2344-65.1855 40.2832-58.5449Q40.2832-51.709 43.2861-46.2402Q46.2891-40.7715 51.2695-37.5732Q56.25-34.375 62.207-34.375ZM242.92 22.5098Q248.877 22.5098 251.44 20.0928Q254.004 17.6758 254.004 13.1348Q254.004 6.68945 250.757 0Q247.51-6.68945 241.455-12.2803Q235.4-17.8711 226.88-21.3135Q218.359-24.7559 207.764-24.7559Q198.975-24.7559 192.065-22.3877Q185.156-20.0195 179.932-16.4551Q185.205-12.207 189.062-6.88477Q192.92-1.5625 194.946 3.97949Q196.973 9.52148 196.875 14.4043Q196.777 19.2871 194.238 22.5098ZM207.715-34.375Q213.721-34.375 218.726-37.5732Q223.73-40.7715 226.709-46.2402Q229.688-51.709 229.688-58.5449Q229.688-65.1855 226.685-70.5322Q223.682-75.8789 218.677-79.0527Q213.672-82.2266 207.715-82.2266Q201.807-82.2266 196.802-79.1016Q191.797-75.9766 188.794-70.6543Q185.791-65.332 185.791-58.6426Q185.791-51.7578 188.77-46.2891Q191.748-40.8203 196.753-37.5977Q201.758-34.375 207.715-34.375Z"/>
  </g>
  <g id="Regular-L" transform="matrix(1 0 0 1 1315.15 1556)">
   <path d="M94.3359 22.168L174.902 22.168Q181.689 22.168 184.57 20.1904Q187.451 18.2129 187.451 14.0625Q187.451 9.22852 185.107 3.88184Q182.764-1.46484 178.247-6.49414Q173.73-11.5234 167.285-15.6006Q160.84-19.6777 152.612-22.0703Q144.385-24.4629 134.619-24.4629Q124.854-24.4629 116.626-22.0703Q108.398-19.6777 101.953-15.6006Q95.5078-11.5234 91.0156-6.49414Q86.5234-1.46484 84.1553 3.88184Q81.7871 9.22852 81.7871 14.0625Q81.7871 18.2129 84.668 20.1904Q87.5488 22.168 94.3359 22.168ZM134.668-35.791Q141.455-35.791 147.144-39.4531Q152.832-43.1152 156.274-49.3896Q159.717-55.6641 159.717-63.5254Q159.717-69.2383 157.715-74.1455Q155.713-79.0527 152.246-82.7148Q148.779-86.377 144.263-88.4277Q139.746-90.4785 134.668-90.4785Q129.639-90.4785 125.098-88.4033Q120.557-86.3281 117.09-82.6416Q113.623-78.9551 111.646-74.0234Q109.668-69.0918 109.668-63.3789Q109.668-55.6152 113.086-49.3652Q116.504-43.1152 122.192-39.4531Q127.881-35.791 134.668-35.791ZM26.4648 22.168L76.0254 22.168Q73.5352 19.0918 73.5107 14.3066Q73.4863 9.52148 75.5371 4.02832Q77.5879-1.46484 81.3721-6.71387Q85.1562-11.9629 90.332-16.0645Q85.0586-19.7754 78.0518-22.2412Q71.0449-24.707 61.9629-24.707Q51.3184-24.707 42.8223-21.2402Q34.3262-17.7734 28.3203-12.1338Q22.3145-6.49414 19.1406 0.268555Q15.9668 7.03125 15.9668 13.5742Q15.9668 17.8223 18.4326 19.9951Q20.8984 22.168 26.4648 22.168ZM62.0117-34.375Q67.9199-34.375 72.876-37.5732Q77.832-40.7715 80.8105-46.2158Q83.7891-51.6602 83.7891-58.4961Q83.7891-65.1855 80.7861-70.4834Q77.7832-75.7812 72.8271-78.8574Q67.8711-81.9336 62.0117-81.9336Q56.1523-81.9336 51.1963-78.8086Q46.2402-75.6836 43.2129-70.3613Q40.1855-65.0391 40.2344-58.3984Q40.2344-51.6113 43.2129-46.167Q46.1914-40.7227 51.1475-37.5488Q56.1035-34.375 62.0117-34.375ZM242.725 22.168Q248.291 22.168 250.757 19.9951Q253.223 17.8223 253.223 13.5742Q253.223 7.03125 250.024 0.268555Q246.826-6.49414 240.82-12.1338Q234.814-17.7734 226.318-21.2402Q217.822-24.707 207.178-24.707Q198.096-24.707 191.113-22.2412Q184.131-19.7754 178.857-16.0645Q183.984-11.9629 187.793-6.71387Q191.602-1.46484 193.652 4.02832Q195.703 9.52148 195.679 14.3066Q195.654 19.0918 193.164 22.168ZM207.129-34.375Q213.037-34.375 217.993-37.5488Q222.949-40.7227 225.928-46.167Q228.906-51.6113 228.906-58.3984Q228.906-65.0391 225.903-70.3613Q222.9-75.6836 217.944-78.8086Q212.988-81.9336 207.129-81.9336Q201.27-81.9336 196.313-78.8574Q191.357-75.7812 188.354-70.4834Q185.352-65.1855 185.352-58.4961Q185.352-51.6602 188.33-46.2158Q191.309-40.7715 196.265-37.5732Q201.221-34.375 207.129-34.375Z"/>
  </g>
  <g id="Light-L" transform="matrix(1 0 0 1 1018.64 1556)">
   <path d="M93.1641 21.8262L175.586 21.8262Q181.543 21.8262 184.253 19.9951Q186.963 18.1641 186.963 14.0625Q186.963 9.22852 184.619 3.90625Q182.275-1.41602 177.808-6.4209Q173.34-11.4258 166.919-15.4785Q160.498-19.5312 152.295-21.9238Q144.092-24.3164 134.375-24.3164Q124.658-24.3164 116.479-21.9238Q108.301-19.5312 101.88-15.4785Q95.459-11.4258 90.9668-6.4209Q86.4746-1.41602 84.1309 3.90625Q81.7871 9.22852 81.7871 14.0625Q81.7871 18.1641 84.5215 19.9951Q87.2559 21.8262 93.1641 21.8262ZM134.473-35.6445Q141.309-35.6445 146.924-39.2822Q152.539-42.9199 155.908-49.1455Q159.277-55.3711 159.277-63.1836Q159.277-68.7988 157.324-73.6572Q155.371-78.5156 151.953-82.1777Q148.535-85.8398 144.043-87.915Q139.551-89.9902 134.473-89.9902Q129.395-89.9902 124.902-87.915Q120.41-85.8398 116.992-82.1533Q113.574-78.4668 111.621-73.584Q109.668-68.7012 109.717-63.0859Q109.717-55.3711 113.062-49.1455Q116.406-42.9199 122.021-39.2822Q127.637-35.6445 134.473-35.6445ZM25.4883 21.8262L77.4414 21.8262Q74.9023 19.3359 74.6826 14.8926Q74.4629 10.4492 76.3184 5.07812Q78.1738-0.292969 81.8359-5.63965Q85.498-10.9863 90.7227-15.2344Q85.498-19.2383 78.2959-21.9238Q71.0938-24.6094 61.6211-24.6094Q51.0254-24.6094 42.5781-21.167Q34.1309-17.7246 28.1494-12.1338Q22.168-6.54297 19.0186 0.195312Q15.8691 6.93359 15.8691 13.5742Q15.8691 17.7734 18.2129 19.7998Q20.5566 21.8262 25.4883 21.8262ZM61.7188-34.2773Q67.6758-34.2773 72.583-37.4268Q77.4902-40.5762 80.3955-45.9961Q83.3008-51.416 83.3008-58.2031Q83.3008-64.7461 80.3467-70.0195Q77.3926-75.293 72.4854-78.418Q67.5781-81.543 61.7188-81.543Q55.8594-81.543 50.9521-78.3936Q46.0449-75.2441 43.0908-69.9463Q40.1367-64.6484 40.1855-58.1543Q40.1855-51.3672 43.0908-45.9717Q45.9961-40.5762 50.8789-37.4268Q55.7617-34.2773 61.7188-34.2773ZM243.115 21.8262Q248.047 21.8262 250.391 19.7998Q252.734 17.7734 252.734 13.5742Q252.734 6.93359 249.561 0.195312Q246.387-6.54297 240.405-12.1338Q234.424-17.7246 225.977-21.167Q217.529-24.6094 206.934-24.6094Q197.461-24.6094 190.283-21.9238Q183.105-19.2383 177.881-15.2344Q183.057-10.9863 186.743-5.63965Q190.43-0.292969 192.285 5.07812Q194.141 10.4492 193.921 14.8926Q193.701 19.3359 191.162 21.8262ZM206.885-34.2773Q212.793-34.2773 217.7-37.4268Q222.607-40.5762 225.513-45.9717Q228.418-51.3672 228.418-58.1543Q228.418-64.6484 225.464-69.9463Q222.51-75.2441 217.627-78.3936Q212.744-81.543 206.885-81.543Q200.977-81.543 196.069-78.418Q191.162-75.293 188.232-70.0195Q185.303-64.7461 185.303-58.2031Q185.303-51.416 188.208-45.9961Q191.113-40.5762 196.021-37.4268Q200.928-34.2773 206.885-34.2773Z"/>
  </g>
  <g id="Thin-L" transform="matrix(1 0 0 1 722.194 1556)">
   <path d="M91.6016 21.3379L176.514 21.3379Q181.299 21.3379 183.813 19.7266Q186.328 18.1152 186.328 14.0137Q186.328 9.22852 184.009 3.95508Q181.689-1.31836 177.246-6.32324Q172.803-11.3281 166.406-15.3564Q160.01-19.3848 151.855-21.7773Q143.701-24.1699 134.033-24.1699Q124.414-24.1699 116.26-21.7773Q108.105-19.3848 101.733-15.3564Q95.3613-11.3281 90.918-6.32324Q86.4746-1.31836 84.1309 3.95508Q81.7871 9.22852 81.7871 14.0137Q81.7871 18.1152 84.3262 19.7266Q86.8652 21.3379 91.6016 21.3379ZM134.229-35.498Q141.113-35.498 146.655-39.0869Q152.197-42.6758 155.42-48.8525Q158.643-55.0293 158.643-62.7441Q158.643-68.1641 156.763-72.998Q154.883-77.832 151.538-81.5186Q148.193-85.2051 143.75-87.3047Q139.307-89.4043 134.229-89.4043Q129.102-89.4043 124.658-87.3047Q120.215-85.2051 116.846-81.4941Q113.477-77.7832 111.597-72.9736Q109.717-68.1641 109.766-62.6953Q109.766-55.0293 112.988-48.8525Q116.211-42.6758 121.753-39.0869Q127.295-35.498 134.229-35.498ZM24.2676 21.3379L79.3457 21.3379Q76.7578 19.6777 76.2939 15.6982Q75.8301 11.7188 77.417 6.46973Q79.0039 1.2207 82.4951-4.19922Q85.9863-9.61914 91.2598-14.1602Q86.084-18.6035 78.6377-21.5332Q71.1914-24.4629 61.1816-24.4629Q50.6836-24.4629 42.2852-21.0938Q33.8867-17.7246 27.9785-12.1582Q22.0703-6.5918 18.9209 0.12207Q15.7715 6.83594 15.7715 13.5254Q15.7715 17.7246 17.9443 19.5312Q20.1172 21.3379 24.2676 21.3379ZM61.377-34.082Q67.3828-34.082 72.2168-37.207Q77.0508-40.332 79.8584-45.7031Q82.666-51.0742 82.666-57.8125Q82.666-64.1113 79.7852-69.4092Q76.9043-74.707 72.0703-77.8564Q67.2363-81.0059 61.377-81.0059Q55.4688-81.0059 50.6104-77.832Q45.752-74.6582 42.8955-69.3848Q40.0391-64.1113 40.0879-57.8125Q40.0879-51.0742 42.8955-45.7031Q45.7031-40.332 50.5127-37.207Q55.3223-34.082 61.377-34.082ZM243.652 21.3379Q247.803 21.3379 249.976 19.5312Q252.148 17.7246 252.148 13.5254Q252.148 6.83594 249.023 0.12207Q245.898-6.5918 239.966-12.1582Q234.033-17.7246 225.635-21.0938Q217.236-24.4629 206.689-24.4629Q196.729-24.4629 189.307-21.5332Q181.885-18.6035 176.66-14.1602Q181.934-9.61914 185.449-4.19922Q188.965 1.2207 190.527 6.46973Q192.09 11.7188 191.65 15.6982Q191.211 19.6777 188.623 21.3379ZM206.592-34.082Q212.598-34.082 217.407-37.207Q222.217-40.332 225-45.7031Q227.783-51.0742 227.783-57.8125Q227.783-64.1113 224.951-69.3848Q222.119-74.6582 217.31-77.832Q212.5-81.0059 206.592-81.0059Q200.635-81.0059 195.801-77.8564Q190.967-74.707 188.11-69.4092Q185.254-64.1113 185.254-57.8125Q185.254-51.0742 188.086-45.7031Q190.918-40.332 195.752-37.207Q200.586-34.082 206.592-34.082Z"/>
  </g>
  <g id="Ultralight-L" transform="matrix(1 0 0 1 425.629 1556)">
   <path d="M90.7715 21.0938L177.002 21.0938Q181.201 21.0938 183.594 19.5801Q185.986 18.0664 185.986 14.0137Q185.986 9.22852 183.667 3.97949Q181.348-1.26953 176.929-6.25Q172.51-11.2305 166.138-15.2588Q159.766-19.2871 151.636-21.6797Q143.506-24.0723 133.887-24.0723Q124.268-24.0723 116.162-21.6797Q108.057-19.2871 101.685-15.2588Q95.3125-11.2305 90.8691-6.25Q86.4258-1.26953 84.1064 3.97949Q81.7871 9.22852 81.7871 14.0137Q81.7871 18.0664 84.2041 19.5801Q86.6211 21.0938 90.7715 21.0938ZM134.082-35.4004Q141.016-35.4004 146.509-38.9893Q152.002-42.5781 155.176-48.7061Q158.35-54.834 158.35-62.5488Q158.35-67.8711 156.494-72.6562Q154.639-77.4414 151.318-81.1279Q147.998-84.8145 143.579-86.9385Q139.16-89.0625 134.082-89.0625Q128.955-89.0625 124.536-86.9629Q120.117-84.8633 116.772-81.1523Q113.428-77.4414 111.572-72.6562Q109.717-67.8711 109.814-62.5Q109.814-54.834 112.988-48.7061Q116.162-42.5781 121.655-38.9893Q127.148-35.4004 134.082-35.4004ZM23.6328 21.0938L80.3223 21.0938Q77.6855 19.873 77.0996 16.1133Q76.5137 12.3535 77.9785 7.17773Q79.4434 2.00195 82.8369-3.49121Q86.2305-8.98438 91.5527-13.623Q86.4258-18.2129 78.833-21.2891Q71.2402-24.3652 60.9863-24.3652Q50.5371-24.3652 42.1387-21.0205Q33.7402-17.6758 27.8564-12.1582Q21.9727-6.64062 18.8477 0.0732422Q15.7227 6.78711 15.7227 13.5254Q15.7227 17.6758 17.8223 19.3848Q19.9219 21.0938 23.6328 21.0938ZM61.1816-34.0332Q67.2363-34.0332 72.0215-37.1338Q76.8066-40.2344 79.5654-45.5566Q82.3242-50.8789 82.3242-57.5684Q82.3242-63.8184 79.4922-69.0918Q76.6602-74.3652 71.875-77.5635Q67.0898-80.7617 61.1816-80.7617Q55.2734-80.7617 50.4639-77.5635Q45.6543-74.3652 42.8467-69.1162Q40.0391-63.8672 40.0879-57.6172Q40.0879-50.9277 42.8467-45.5811Q45.6055-40.2344 50.3662-37.1338Q55.127-34.0332 61.1816-34.0332ZM243.896 21.0938Q247.607 21.0938 249.707 19.3848Q251.807 17.6758 251.807 13.5254Q251.807 6.78711 248.682 0.0732422Q245.557-6.64062 239.648-12.1582Q233.74-17.6758 225.391-21.0205Q217.041-24.3652 206.543-24.3652Q196.24-24.3652 188.696-21.2891Q181.152-18.2129 175.977-13.623Q181.299-8.98438 184.717-3.49121Q188.135 2.00195 189.575 7.17773Q191.016 12.3535 190.43 16.1133Q189.844 19.873 187.256 21.0938ZM206.396-34.0332Q212.402-34.0332 217.163-37.1338Q221.924-40.2344 224.683-45.5811Q227.441-50.9277 227.441-57.6172Q227.441-63.8672 224.634-69.1162Q221.826-74.3652 217.065-77.5635Q212.305-80.7617 206.396-80.7617Q200.439-80.7617 195.63-77.5635Q190.82-74.3652 188.013-69.0918Q185.205-63.8184 185.205-57.5684Q185.205-50.8789 187.964-45.5566Q190.723-40.2344 195.532-37.1338Q200.342-34.0332 206.396-34.0332Z"/>
  </g>
  <g id="Black-M" transform="matrix(1 0 0 1 2826.95 1126)">
   <path d="M77.0508 10.8398L135.84 10.8398Q143.018 10.8398 145.728 8.42285Q148.438 6.00586 148.438 2.00195Q148.438-2.63672 145.459-7.73926Q142.48-12.8418 136.938-17.2607Q131.396-21.6797 123.682-24.4385Q115.967-27.1973 106.445-27.1973Q96.9727-27.1973 89.2334-24.4385Q81.4941-21.6797 75.9521-17.2607Q70.4102-12.8418 67.4316-7.73926Q64.4531-2.63672 64.4531 2.00195Q64.4531 6.00586 67.1631 8.42285Q69.873 10.8398 77.0508 10.8398ZM106.445-35.5469Q112.207-35.5469 116.846-38.5254Q121.484-41.5039 124.194-46.5332Q126.904-51.5625 126.904-57.7637Q126.904-63.623 124.17-68.6035Q121.436-73.584 116.797-76.5869Q112.158-79.5898 106.445-79.5898Q100.781-79.5898 96.1182-76.5869Q91.4551-73.584 88.7207-68.6035Q85.9863-63.623 86.0352-57.7148Q86.0352-51.5625 88.7451-46.5332Q91.4551-41.5039 96.0693-38.5254Q100.684-35.5469 106.445-35.5469ZM23.3887 10.8887L57.8613 10.8887Q55.7129 7.91016 55.2979 3.90625Q54.8828-0.0976562 56.2256-4.63867Q57.5684-9.17969 60.6689-13.7207Q63.7695-18.2617 68.6523-22.3145Q64.8926-24.4141 59.8145-25.8545Q54.7363-27.2949 49.0234-27.2949Q41.1621-27.2949 34.5215-24.7559Q27.8809-22.2168 22.9248-18.0908Q17.9688-13.9648 15.2344-9.15527Q12.5-4.3457 12.5 0.195312Q12.5 5.17578 14.8438 8.03223Q17.1875 10.8887 23.3887 10.8887ZM49.0234-34.4727Q54.0527-34.4727 58.0811-37.085Q62.1094-39.6973 64.4775-44.0674Q66.8457-48.4375 66.8457-53.8086Q66.8457-58.9355 64.4531-63.2812Q62.0605-67.627 58.0078-70.2637Q53.9551-72.9004 49.0234-72.9004Q44.0918-72.9004 40.0391-70.2637Q35.9863-67.627 33.6182-63.2812Q31.25-58.9355 31.25-53.8086Q31.2988-48.4375 33.6426-44.0674Q35.9863-39.6973 40.0146-37.085Q44.043-34.4727 49.0234-34.4727ZM189.355 10.8887Q195.605 10.8887 197.925 8.03223Q200.244 5.17578 200.244 0.195312Q200.244-4.3457 197.51-9.15527Q194.775-13.9648 189.844-18.0908Q184.912-22.2168 178.247-24.7559Q171.582-27.2949 163.721-27.2949Q158.057-27.2949 152.954-25.8545Q147.852-24.4141 144.092-22.3145Q148.975-18.2617 152.1-13.7207Q155.225-9.17969 156.567-4.63867Q157.91-0.0976562 157.495 3.90625Q157.08 7.91016 154.883 10.8887ZM163.721-34.4727Q168.75-34.4727 172.754-37.085Q176.758-39.6973 179.102-44.0674Q181.445-48.4375 181.494-53.8086Q181.543-58.9355 179.15-63.2812Q176.758-67.627 172.705-70.2637Q168.652-72.9004 163.721-72.9004Q158.789-72.9004 154.736-70.2637Q150.684-67.627 148.291-63.2812Q145.898-58.9355 145.898-53.8086Q145.898-48.4375 148.267-44.0674Q150.635-39.6973 154.688-37.085Q158.74-34.4727 163.721-34.4727Z"/>
  </g>
  <g id="Heavy-M" transform="matrix(1 0 0 1 2530.71 1126)">
   <path d="M76.2695 10.498L135.693 10.498Q142.529 10.498 145.142 8.27637Q147.754 6.05469 147.754 2.24609Q147.754-2.44141 144.8-7.56836Q141.846-12.6953 136.353-17.1387Q130.859-21.582 123.193-24.3652Q115.527-27.1484 106.006-27.1484Q96.5332-27.1484 88.8184-24.3652Q81.1035-21.582 75.6104-17.1387Q70.1172-12.6953 67.1631-7.56836Q64.209-2.44141 64.209 2.24609Q64.209 6.05469 66.8213 8.27637Q69.4336 10.498 76.2695 10.498ZM106.006-35.5957Q111.621-35.5957 116.211-38.5498Q120.801-41.5039 123.511-46.4844Q126.221-51.4648 126.221-57.666Q126.221-63.5742 123.511-68.4814Q120.801-73.3887 116.187-76.3428Q111.572-79.2969 106.006-79.2969Q100.439-79.2969 95.8252-76.3428Q91.2109-73.3887 88.4766-68.457Q85.7422-63.5254 85.791-57.6172Q85.791-51.4648 88.501-46.4844Q91.2109-41.5039 95.7764-38.5498Q100.342-35.5957 106.006-35.5957ZM22.8516 10.5469L57.9102 10.5469Q55.8594 7.61719 55.5664 3.6377Q55.2734-0.341797 56.6895-4.83398Q58.1055-9.32617 61.1816-13.7451Q64.2578-18.1641 68.9453-21.9727Q65.0879-24.2188 59.9609-25.7324Q54.834-27.2461 48.8281-27.2461Q40.918-27.2461 34.2773-24.6826Q27.6367-22.1191 22.7539-17.9199Q17.8711-13.7207 15.1855-8.81348Q12.5-3.90625 12.5 0.78125Q12.5 5.37109 14.7461 7.95898Q16.9922 10.5469 22.8516 10.5469ZM48.8281-34.5215Q53.7598-34.5215 57.7637-37.1094Q61.7676-39.6973 64.1113-44.043Q66.4551-48.3887 66.4551-53.7109Q66.4551-58.8867 64.0869-63.1836Q61.7188-67.4805 57.7148-70.0439Q53.7109-72.6074 48.8281-72.6074Q44.043-72.6074 40.0146-70.0195Q35.9863-67.4316 33.6182-63.1348Q31.25-58.8379 31.25-53.7109Q31.2988-48.3398 33.6426-44.0186Q35.9863-39.6973 39.9902-37.1094Q43.9941-34.5215 48.8281-34.5215ZM189.014 10.5469Q194.873 10.5469 197.119 7.95898Q199.365 5.37109 199.365 0.78125Q199.365-3.90625 196.68-8.81348Q193.994-13.7207 189.136-17.9199Q184.277-22.1191 177.612-24.6826Q170.947-27.2461 162.988-27.2461Q157.08-27.2461 151.929-25.7324Q146.777-24.2188 142.92-21.9727Q147.607-18.1641 150.684-13.7451Q153.76-9.32617 155.2-4.83398Q156.641-0.341797 156.348 3.6377Q156.055 7.61719 153.906 10.5469ZM162.988-34.5215Q167.92-34.5215 171.899-37.1094Q175.879-39.6973 178.223-44.0186Q180.566-48.3398 180.566-53.7109Q180.615-58.8379 178.223-63.1348Q175.83-67.4316 171.826-70.0195Q167.822-72.6074 162.988-72.6074Q158.154-72.6074 154.15-70.0439Q150.146-67.4805 147.754-63.1836Q145.361-58.8867 145.361-53.7109Q145.361-48.3887 147.729-44.043Q150.098-39.6973 154.102-37.1094Q158.105-34.5215 162.988-34.5215Z"/>
  </g>
  <g id="Bold-M" transform="matrix(1 0 0 1 2234.51 1126)">
   <path d="M75.4395 10.1562L135.498 10.1562Q141.992 10.1562 144.507 8.12988Q147.021 6.10352 147.021 2.49023Q147.021-2.19727 144.116-7.34863Q141.211-12.5 135.767-16.9922Q130.322-21.4844 122.656-24.292Q114.99-27.0996 105.469-27.0996Q95.9961-27.0996 88.3301-24.292Q80.6641-21.4844 75.2197-16.9922Q69.7754-12.5 66.8701-7.34863Q63.9648-2.19727 63.9648 2.49023Q63.9648 6.10352 66.4795 8.12988Q68.9941 10.1562 75.4395 10.1562ZM105.518-35.6445Q110.986-35.6445 115.527-38.5742Q120.068-41.5039 122.778-46.46Q125.488-51.416 125.488-57.5684Q125.488-63.4766 122.778-68.3594Q120.068-73.2422 115.527-76.0986Q110.986-78.9551 105.518-78.9551Q100.049-78.9551 95.5078-76.0742Q90.9668-73.1934 88.2324-68.3105Q85.498-63.4277 85.5469-57.4707Q85.5469-51.3672 88.2568-46.4355Q90.9668-41.5039 95.4834-38.5742Q100-35.6445 105.518-35.6445ZM22.2656 10.2051L58.0078 10.2051Q56.0059 7.32422 55.835 3.34473Q55.6641-0.634766 57.2021-5.05371Q58.7402-9.47266 61.792-13.7451Q64.8438-18.0176 69.2383-21.582Q65.332-24.0234 60.1318-25.6348Q54.9316-27.2461 48.6816-27.2461Q40.625-27.2461 33.9844-24.6094Q27.3438-21.9727 22.5342-17.7002Q17.7246-13.4277 15.1123-8.42285Q12.5-3.41797 12.5 1.41602Q12.5 5.56641 14.6729 7.88574Q16.8457 10.2051 22.2656 10.2051ZM48.6816-34.5703Q53.4668-34.5703 57.4219-37.1094Q61.377-39.6484 63.7207-43.9697Q66.0645-48.291 66.0645-53.6133Q66.0645-58.8379 63.6963-63.0615Q61.3281-67.2852 57.373-69.7998Q53.418-72.3145 48.6816-72.3145Q43.9453-72.3145 39.9902-69.7754Q36.0352-67.2363 33.6426-62.9883Q31.25-58.7402 31.2988-53.5645Q31.2988-48.291 33.6426-43.9697Q35.9863-39.6484 39.9414-37.1094Q43.8965-34.5703 48.6816-34.5703ZM188.672 10.2051Q194.092 10.2051 196.24 7.88574Q198.389 5.56641 198.389 1.41602Q198.389-3.41797 195.801-8.42285Q193.213-13.4277 188.403-17.7002Q183.594-21.9727 176.953-24.6094Q170.312-27.2461 162.256-27.2461Q156.006-27.2461 150.806-25.6348Q145.605-24.0234 141.65-21.582Q146.094-18.0176 149.146-13.7451Q152.197-9.47266 153.735-5.05371Q155.273-0.634766 155.103 3.34473Q154.932 7.32422 152.881 10.2051ZM162.256-34.5703Q167.041-34.5703 170.972-37.1094Q174.902-39.6484 177.246-43.9697Q179.59-48.291 179.639-53.5645Q179.639-58.7402 177.271-62.9883Q174.902-67.2363 170.923-69.7754Q166.943-72.3145 162.256-72.3145Q157.52-72.3145 153.54-69.7998Q149.561-67.2852 147.192-63.0615Q144.824-58.8379 144.824-53.6133Q144.824-48.291 147.192-43.9697Q149.561-39.6484 153.516-37.1094Q157.471-34.5703 162.256-34.5703Z"/>
  </g>
  <g id="Semibold-M" transform="matrix(1 0 0 1 1938.16 1126)">
   <path d="M74.8535 9.91211L135.352 9.91211Q141.602 9.91211 144.043 8.03223Q146.484 6.15234 146.484 2.68555Q146.484-2.00195 143.604-7.17773Q140.723-12.3535 135.303-16.8945Q129.883-21.4355 122.266-24.2432Q114.648-27.0508 105.127-27.0508Q95.6543-27.0508 88.0127-24.2432Q80.3711-21.4355 74.9512-16.8945Q69.5312-12.3535 66.6504-7.17773Q63.7695-2.00195 63.7695 2.68555Q63.7695 6.15234 66.2109 8.03223Q68.6523 9.91211 74.8535 9.91211ZM105.127-35.6934Q110.547-35.6934 115.039-38.5742Q119.531-41.4551 122.241-46.3867Q124.951-51.3184 124.951-57.4707Q124.951-63.4277 122.241-68.2617Q119.531-73.0957 115.039-75.9033Q110.547-78.7109 105.127-78.7109Q99.8047-78.7109 95.2881-75.8545Q90.7715-72.998 88.0371-68.1641Q85.3027-63.3301 85.3516-57.373Q85.3516-51.3184 88.0615-46.3867Q90.7715-41.4551 95.2637-38.5742Q99.7559-35.6934 105.127-35.6934ZM21.7773 9.91211L58.0078 9.91211Q56.0547 7.08008 55.9814 3.14941Q55.9082-0.78125 57.4951-5.17578Q59.082-9.57031 62.1094-13.7451Q65.1367-17.9199 69.3848-21.3379Q65.4297-23.8281 60.1807-25.5127Q54.9316-27.1973 48.4863-27.1973Q40.332-27.1973 33.7158-24.5361Q27.0996-21.875 22.3389-17.5537Q17.5781-13.2324 15.0146-8.12988Q12.4512-3.02734 12.4512 1.85547Q12.4512 5.66406 14.5508 7.78809Q16.6504 9.91211 21.7773 9.91211ZM48.4863-34.5703Q53.2227-34.5703 57.1289-37.1094Q61.0352-39.6484 63.3789-43.9453Q65.7227-48.2422 65.7227-53.5645Q65.7227-58.7891 63.3789-62.9639Q61.0352-67.1387 57.0801-69.6045Q53.125-72.0703 48.4863-72.0703Q43.8477-72.0703 39.917-69.5801Q35.9863-67.0898 33.5938-62.8906Q31.2012-58.6914 31.25-53.4668Q31.25-48.1934 33.5938-43.9209Q35.9375-39.6484 39.8682-37.1094Q43.7988-34.5703 48.4863-34.5703ZM188.379 9.91211Q193.555 9.91211 195.63 7.78809Q197.705 5.66406 197.705 1.85547Q197.705-3.02734 195.166-8.12988Q192.627-13.2324 187.866-17.5537Q183.105-21.875 176.465-24.5361Q169.824-27.1973 161.719-27.1973Q155.225-27.1973 150-25.5127Q144.775-23.8281 140.771-21.3379Q145.02-17.9199 148.071-13.7451Q151.123-9.57031 152.71-5.17578Q154.297-0.78125 154.224 3.14941Q154.15 7.08008 152.148 9.91211ZM161.719-34.5703Q166.406-34.5703 170.312-37.1094Q174.219-39.6484 176.562-43.9209Q178.906-48.1934 178.955-53.4668Q178.955-58.6914 176.587-62.8906Q174.219-67.0898 170.264-69.5801Q166.309-72.0703 161.719-72.0703Q157.031-72.0703 153.101-69.6045Q149.17-67.1387 146.802-62.9639Q144.434-58.7891 144.434-53.5645Q144.434-48.2422 146.802-43.9453Q149.17-39.6484 153.076-37.1094Q156.982-34.5703 161.719-34.5703Z"/>
  </g>
  <g id="Medium-M" transform="matrix(1 0 0 1 1641.72 1126)">
   <path d="M74.4141 9.7168L135.303 9.7168Q141.357 9.7168 143.726 7.93457Q146.094 6.15234 146.094 2.7832Q146.094-1.85547 143.237-7.08008Q140.381-12.3047 134.985-16.8213Q129.59-21.3379 121.973-24.1943Q114.355-27.0508 104.834-27.0508Q95.3613-27.0508 87.7441-24.1943Q80.127-21.3379 74.7314-16.8213Q69.3359-12.3047 66.4795-7.08008Q63.623-1.85547 63.623 2.7832Q63.623 6.15234 66.0156 7.93457Q68.4082 9.7168 74.4141 9.7168ZM104.883-35.6934Q110.205-35.6934 114.673-38.5742Q119.141-41.4551 121.851-46.3623Q124.561-51.2695 124.561-57.4219Q124.561-63.3789 121.851-68.1885Q119.141-72.998 114.673-75.7812Q110.205-78.5645 104.883-78.5645Q99.5605-78.5645 95.0928-75.7324Q90.625-72.9004 87.915-68.0908Q85.2051-63.2812 85.2051-57.3242Q85.2051-51.2207 87.915-46.3379Q90.625-41.4551 95.0928-38.5742Q99.5605-35.6934 104.883-35.6934ZM21.4355 9.7168L58.0566 9.7168Q56.1035 6.88477 56.1035 2.97852Q56.1035-0.927734 57.7637-5.27344Q59.4238-9.61914 62.4268-13.7451Q65.4297-17.8711 69.5801-21.0938Q65.5273-23.7305 60.2783-25.4639Q55.0293-27.1973 48.3887-27.1973Q40.1855-27.1973 33.5693-24.5117Q26.9531-21.8262 22.2412-17.4561Q17.5293-13.0859 14.9902-7.93457Q12.4512-2.7832 12.4512 2.19727Q12.4512 5.76172 14.502 7.73926Q16.5527 9.7168 21.4355 9.7168ZM48.3887-34.5703Q53.0273-34.5703 56.9336-37.085Q60.8398-39.5996 63.1836-43.8965Q65.5273-48.1934 65.5273-53.4668Q65.5273-58.7402 63.1592-62.915Q60.791-67.0898 56.8848-69.4824Q52.9785-71.875 48.3887-71.875Q43.7988-71.875 39.8926-69.4336Q35.9863-66.9922 33.5938-62.793Q31.2012-58.5938 31.25-53.418Q31.25-48.1445 33.5938-43.8721Q35.9375-39.5996 39.8438-37.085Q43.75-34.5703 48.3887-34.5703ZM188.184 9.7168Q193.115 9.7168 195.166 7.73926Q197.217 5.76172 197.217 2.19727Q197.217-2.7832 194.702-7.93457Q192.188-13.0859 187.451-17.4561Q182.715-21.8262 176.099-24.5117Q169.482-27.1973 161.279-27.1973Q154.639-27.1973 149.39-25.4639Q144.141-23.7305 140.088-21.0938Q144.189-17.8711 147.217-13.7451Q150.244-9.61914 151.904-5.27344Q153.564-0.927734 153.564 2.97852Q153.564 6.88477 151.611 9.7168ZM161.279-34.5703Q165.918-34.5703 169.824-37.085Q173.73-39.5996 176.074-43.8721Q178.418-48.1445 178.418-53.418Q178.418-58.5938 176.05-62.793Q173.682-66.9922 169.775-69.4336Q165.869-71.875 161.279-71.875Q156.689-71.875 152.759-69.4824Q148.828-67.0898 146.484-62.915Q144.141-58.7402 144.141-53.4668Q144.141-48.1934 146.484-43.8965Q148.828-39.5996 152.734-37.085Q156.641-34.5703 161.279-34.5703Z"/>
  </g>
  <g id="Regular-M" transform="matrix(1 0 0 1 1345.35 1126)">
   <path d="M73.8281 9.47266L135.156 9.47266Q140.967 9.47266 143.286 7.83691Q145.605 6.20117 145.605 2.97852Q145.605-1.70898 142.749-6.93359Q139.893-12.1582 134.546-16.7236Q129.199-21.2891 121.606-24.1455Q114.014-27.002 104.492-27.002Q95.0195-27.002 87.4268-24.1455Q79.834-21.2891 74.4629-16.7236Q69.0918-12.1582 66.2598-6.93359Q63.4277-1.70898 63.4277 2.97852Q63.4277 6.20117 65.7471 7.83691Q68.0664 9.47266 73.8281 9.47266ZM104.541-35.7422Q109.766-35.7422 114.209-38.5986Q118.652-41.4551 121.362-46.3379Q124.072-51.2207 124.072-57.3242Q124.072-63.3301 121.362-68.0908Q118.652-72.8516 114.209-75.5859Q109.766-78.3203 104.541-78.3203Q99.3164-78.3203 94.873-75.5371Q90.4297-72.7539 87.7197-67.9688Q85.0098-63.1836 85.0098-57.2266Q85.0098-51.1719 87.7197-46.3135Q90.4297-41.4551 94.873-38.5986Q99.3164-35.7422 104.541-35.7422ZM21.0449 9.47266L58.1055 9.47266Q56.2012 6.68945 56.2988 2.7832Q56.3965-1.12305 58.1055-5.41992Q59.8145-9.7168 62.8174-13.7451Q65.8203-17.7734 69.7754-20.8496Q65.6738-23.584 60.376-25.3662Q55.0781-27.1484 48.2422-27.1484Q39.9902-27.1484 33.374-24.4385Q26.7578-21.7285 22.0947-17.3096Q17.4316-12.8906 14.9414-7.66602Q12.4512-2.44141 12.4512 2.63672Q12.4512 5.9082 14.4287 7.69043Q16.4062 9.47266 21.0449 9.47266ZM48.2422-34.6191Q52.832-34.6191 56.6895-37.1094Q60.5469-39.5996 62.8906-43.8721Q65.2344-48.1445 65.2344-53.418Q65.2344-58.6914 62.8906-62.8174Q60.5469-66.9434 56.665-69.3115Q52.7832-71.6797 48.2422-71.6797Q43.75-71.6797 39.8682-69.2627Q35.9863-66.8457 33.5938-62.6953Q31.2012-58.5449 31.25-53.3203Q31.25-48.0957 33.5938-43.8477Q35.9375-39.5996 39.8193-37.1094Q43.7012-34.6191 48.2422-34.6191ZM187.939 9.47266Q192.578 9.47266 194.556 7.69043Q196.533 5.9082 196.533 2.63672Q196.533-2.44141 194.067-7.66602Q191.602-12.8906 186.914-17.3096Q182.227-21.7285 175.61-24.4385Q168.994-27.1484 160.742-27.1484Q153.906-27.1484 148.608-25.3662Q143.311-23.584 139.209-20.8496Q143.164-17.7734 146.167-13.7451Q149.17-9.7168 150.879-5.41992Q152.588-1.12305 152.686 2.7832Q152.783 6.68945 150.879 9.47266ZM160.742-34.6191Q165.283-34.6191 169.165-37.1094Q173.047-39.5996 175.391-43.8477Q177.734-48.0957 177.734-53.3203Q177.734-58.5449 175.366-62.6953Q172.998-66.8457 169.116-69.2627Q165.234-71.6797 160.742-71.6797Q156.201-71.6797 152.319-69.3115Q148.438-66.9434 146.094-62.8174Q143.75-58.6914 143.75-53.418Q143.75-48.1445 146.094-43.8721Q148.438-39.5996 152.295-37.1094Q156.152-34.6191 160.742-34.6191Z"/>
  </g>
  <g id="Light-M" transform="matrix(1 0 0 1 1048.81 1126)">
   <path d="M72.7539 9.13086L135.791 9.13086Q140.771 9.13086 142.969 7.6416Q145.166 6.15234 145.166 2.97852Q145.166-1.70898 142.334-6.90918Q139.502-12.1094 134.18-16.6504Q128.857-21.1914 121.289-24.0234Q113.721-26.8555 104.248-26.8555Q94.8242-26.8555 87.2803-24.0234Q79.7363-21.1914 74.3896-16.6504Q69.043-12.1094 66.2354-6.90918Q63.4277-1.70898 63.4277 2.97852Q63.4277 6.15234 65.6006 7.6416Q67.7734 9.13086 72.7539 9.13086ZM104.346-35.6445Q109.619-35.6445 113.989-38.4766Q118.359-41.3086 120.996-46.1426Q123.633-50.9766 123.633-57.0312Q123.633-62.8906 120.996-67.627Q118.359-72.3633 113.965-75.1221Q109.57-77.8809 104.346-77.8809Q99.1211-77.8809 94.7266-75.0977Q90.332-72.3145 87.6709-67.5537Q85.0098-62.793 85.0098-56.9824Q85.0098-50.9277 87.6709-46.1182Q90.332-41.3086 94.7021-38.4766Q99.0723-35.6445 104.346-35.6445ZM20.2148 9.13086L59.375 9.13086Q57.4219 6.93359 57.3486 3.32031Q57.2754-0.292969 58.8135-4.49219Q60.3516-8.69141 63.2324-12.793Q66.1133-16.8945 70.1172-20.1172Q66.0645-23.0957 60.5713-25.0732Q55.0781-27.0508 47.9492-27.0508Q39.6973-27.0508 33.1299-24.3652Q26.5625-21.6797 21.9238-17.3096Q17.2852-12.9395 14.8193-7.71484Q12.3535-2.49023 12.3535 2.63672Q12.3535 5.85938 14.2334 7.49512Q16.1133 9.13086 20.2148 9.13086ZM47.9492-34.5215Q52.5879-34.5215 56.3965-36.9873Q60.2051-39.4531 62.5-43.6768Q64.7949-47.9004 64.7949-53.1738Q64.7949-58.3008 62.5-62.4023Q60.2051-66.5039 56.3721-68.9209Q52.5391-71.3379 47.9492-71.3379Q43.457-71.3379 39.624-68.8965Q35.791-66.4551 33.4717-62.3291Q31.1523-58.2031 31.2012-53.0762Q31.2012-47.8516 33.4717-43.6523Q35.7422-39.4531 39.5508-36.9873Q43.3594-34.5215 47.9492-34.5215ZM188.281 9.13086Q192.383 9.13086 194.238 7.49512Q196.094 5.85938 196.094 2.63672Q196.094-2.49023 193.652-7.71484Q191.211-12.9395 186.548-17.3096Q181.885-21.6797 175.317-24.3652Q168.75-27.0508 160.547-27.0508Q153.369-27.0508 147.876-25.0732Q142.383-23.0957 138.33-20.1172Q142.334-16.8945 145.239-12.793Q148.145-8.69141 149.658-4.49219Q151.172-0.292969 151.099 3.32031Q151.025 6.93359 149.072 9.13086ZM160.498-34.5215Q165.088-34.5215 168.896-36.9873Q172.705-39.4531 175-43.6523Q177.295-47.8516 177.295-53.0762Q177.295-58.2031 174.976-62.3291Q172.656-66.4551 168.823-68.8965Q164.99-71.3379 160.498-71.3379Q155.908-71.3379 152.1-68.9209Q148.291-66.5039 145.972-62.4023Q143.652-58.3008 143.652-53.1738Q143.652-47.9004 145.947-43.6768Q148.242-39.4531 152.051-36.9873Q155.859-34.5215 160.498-34.5215Z"/>
  </g>
  <g id="Thin-M" transform="matrix(1 0 0 1 752.345 1126)">
   <path d="M71.3379 8.69141L136.621 8.69141Q140.527 8.69141 142.529 7.39746Q144.531 6.10352 144.531 2.92969Q144.531-1.70898 141.748-6.86035Q138.965-12.0117 133.667-16.5283Q128.369-21.0449 120.85-23.877Q113.33-26.709 103.955-26.709Q94.5801-26.709 87.085-23.877Q79.5898-21.0449 74.3164-16.5283Q69.043-12.0117 66.2109-6.86035Q63.3789-1.70898 63.3789 2.92969Q63.3789 6.10352 65.3809 7.39746Q67.3828 8.69141 71.3379 8.69141ZM104.102-35.4492Q109.424-35.4492 113.721-38.2568Q118.018-41.0645 120.557-45.8496Q123.096-50.6348 123.096-56.6406Q123.096-62.3047 120.532-67.0166Q117.969-71.7285 113.647-74.5361Q109.326-77.3438 104.102-77.3438Q98.8281-77.3438 94.4824-74.5117Q90.1367-71.6797 87.5732-66.9678Q85.0098-62.2559 85.0586-56.6406Q85.0586-50.6348 87.5977-45.8496Q90.1367-41.0645 94.4336-38.2568Q98.7305-35.4492 104.102-35.4492ZM19.0918 8.69141L61.084 8.69141Q59.082 7.27539 58.7891 4.05273Q58.4961 0.830078 59.79-3.24707Q61.084-7.32422 63.8184-11.5234Q66.5527-15.7227 70.6543-19.1406Q66.5527-22.5098 60.8643-24.707Q55.1758-26.9043 47.5586-26.9043Q39.3555-26.9043 32.8613-24.292Q26.3672-21.6797 21.7529-17.334Q17.1387-12.9883 14.6973-7.78809Q12.2559-2.58789 12.2559 2.58789Q12.2559 5.81055 13.9893 7.25098Q15.7227 8.69141 19.0918 8.69141ZM47.6074-34.375Q52.2949-34.375 56.0303-36.8164Q59.7656-39.2578 61.9873-43.4082Q64.209-47.5586 64.209-52.832Q64.209-57.7637 61.9873-61.8652Q59.7656-65.9668 55.9814-68.4082Q52.1973-70.8496 47.6074-70.8496Q43.0664-70.8496 39.3066-68.3838Q35.5469-65.918 33.3008-61.8164Q31.0547-57.7148 31.1035-52.7832Q31.1035-47.5586 33.3008-43.4082Q35.498-39.2578 39.2334-36.8164Q42.9688-34.375 47.6074-34.375ZM188.721 8.69141Q192.09 8.69141 193.823 7.25098Q195.557 5.81055 195.557 2.58789Q195.557-2.58789 193.091-7.78809Q190.625-12.9883 186.035-17.334Q181.445-21.6797 174.927-24.292Q168.408-26.9043 160.254-26.9043Q152.588-26.9043 146.899-24.707Q141.211-22.5098 137.158-19.1406Q141.26-15.7227 143.994-11.5234Q146.729-7.32422 148.022-3.24707Q149.316 0.830078 148.999 4.05273Q148.682 7.27539 146.729 8.69141ZM160.156-34.375Q164.795-34.375 168.53-36.8164Q172.266-39.2578 174.463-43.4082Q176.66-47.5586 176.66-52.7832Q176.66-57.7148 174.438-61.8164Q172.217-65.918 168.457-68.3838Q164.697-70.8496 160.156-70.8496Q155.566-70.8496 151.807-68.4082Q148.047-65.9668 145.801-61.8652Q143.555-57.7637 143.555-52.832Q143.555-47.5586 145.752-43.4082Q147.949-39.2578 151.709-36.8164Q155.469-34.375 160.156-34.375Z"/>
  </g>
  <g id="Ultralight-M" transform="matrix(1 0 0 1 455.756 1126)">
   <path d="M70.6055 8.49609L137.012 8.49609Q140.43 8.49609 142.334 7.27539Q144.238 6.05469 144.238 2.92969Q144.238-1.70898 141.455-6.83594Q138.672-11.9629 133.398-16.4551Q128.125-20.9473 120.63-23.7793Q113.135-26.6113 103.809-26.6113Q94.4824-26.6113 86.9873-23.7793Q79.4922-20.9473 74.2432-16.4551Q68.9941-11.9629 66.1865-6.83594Q63.3789-1.70898 63.3789 2.92969Q63.3789 6.05469 65.2832 7.27539Q67.1875 8.49609 70.6055 8.49609ZM103.955-35.4004Q109.326-35.4004 113.574-38.1836Q117.822-40.9668 120.312-45.7275Q122.803-50.4883 122.803-56.3965Q122.803-62.0117 120.288-66.6992Q117.773-71.3867 113.501-74.2188Q109.229-77.0508 103.955-77.0508Q98.6816-77.0508 94.3848-74.2188Q90.0879-71.3867 87.5488-66.6992Q85.0098-62.0117 85.0586-56.4453Q85.0586-50.4883 87.5732-45.7275Q90.0879-40.9668 94.3359-38.1836Q98.584-35.4004 103.955-35.4004ZM18.5547 8.49609L61.9629 8.49609Q59.9121 7.42188 59.4971 4.41895Q59.082 1.41602 60.2539-2.6123Q61.4258-6.64062 64.0869-10.8643Q66.748-15.0879 70.8984-18.6035Q66.8457-22.168 61.0107-24.4873Q55.1758-26.8066 47.3633-26.8066Q39.209-26.8066 32.7148-24.2188Q26.2207-21.6309 21.6309-17.334Q17.041-13.0371 14.624-7.83691Q12.207-2.63672 12.207 2.58789Q12.207 5.76172 13.8672 7.12891Q15.5273 8.49609 18.5547 8.49609ZM47.4609-34.2773Q52.1484-34.2773 55.8594-36.7188Q59.5703-39.1602 61.7432-43.2861Q63.916-47.4121 63.916-52.6367Q63.916-57.5195 61.7188-61.5967Q59.5215-65.6738 55.7861-68.1396Q52.0508-70.6055 47.4609-70.6055Q42.8711-70.6055 39.1357-68.1396Q35.4004-65.6738 33.2275-61.5967Q31.0547-57.5195 31.1035-52.6367Q31.1035-47.4121 33.2275-43.2861Q35.3516-39.1602 39.0625-36.7188Q42.7734-34.2773 47.4609-34.2773ZM188.916 8.49609Q191.943 8.49609 193.604 7.12891Q195.264 5.76172 195.264 2.58789Q195.264-2.63672 192.822-7.83691Q190.381-13.0371 185.791-17.334Q181.201-21.6309 174.707-24.2188Q168.213-26.8066 160.107-26.8066Q152.246-26.8066 146.411-24.4873Q140.576-22.168 136.572-18.6035Q140.723-15.0879 143.384-10.8643Q146.045-6.64062 147.192-2.6123Q148.34 1.41602 147.925 4.41895Q147.51 7.42188 145.508 8.49609ZM159.961-34.2773Q164.648-34.2773 168.335-36.7188Q172.021-39.1602 174.194-43.2861Q176.367-47.4121 176.367-52.6367Q176.367-57.5195 174.17-61.5967Q171.973-65.6738 168.262-68.1396Q164.551-70.6055 159.961-70.6055Q155.371-70.6055 151.66-68.1396Q147.949-65.6738 145.728-61.5967Q143.506-57.5195 143.506-52.6367Q143.506-47.4121 145.679-43.2861Q147.852-39.1602 151.562-36.7188Q155.273-34.2773 159.961-34.2773Z"/>
  </g>
  <g id="Black-S" transform="matrix(1 0 0 1 2849.88 696)">
   <path d="M60.5469 0.927734L106.543 0.927734Q112.207 0.927734 114.355-1.00098Q116.504-2.92969 116.504-6.15234Q116.504-9.76562 114.16-13.7451Q111.816-17.7246 107.471-21.1914Q103.125-24.6582 97.0459-26.8066Q90.9668-28.9551 83.5449-28.9551Q76.123-28.9551 70.0439-26.8066Q63.9648-24.6582 59.6191-21.1914Q55.2734-17.7246 52.9297-13.7451Q50.5859-9.76562 50.5859-6.15234Q50.5859-2.92969 52.7344-1.00098Q54.8828 0.927734 60.5469 0.927734ZM83.5449-35.4492Q88.0859-35.4492 91.7236-37.793Q95.3613-40.1367 97.4854-44.0918Q99.6094-48.0469 99.6094-52.8809Q99.6094-57.4707 97.4609-61.377Q95.3125-65.2832 91.6748-67.6758Q88.0371-70.0684 83.5449-70.0684Q79.0527-70.0684 75.3906-67.6758Q71.7285-65.2832 69.6045-61.377Q67.4805-57.4707 67.4805-52.8809Q67.5293-48.0469 69.6289-44.0918Q71.7285-40.1367 75.3662-37.793Q79.0039-35.4492 83.5449-35.4492ZM18.4082 0.976562L45.3613 0.976562Q43.6523-1.31836 43.2861-4.46777Q42.9199-7.61719 43.9209-11.1572Q44.9219-14.6973 47.3633-18.3105Q49.8047-21.9238 53.7109-25.1953Q50.7812-26.8066 46.8018-27.9053Q42.8223-29.0039 38.4277-29.0039Q32.3242-29.0039 27.0996-27.0264Q21.875-25.0488 17.9932-21.8506Q14.1113-18.6523 11.9385-14.917Q9.76562-11.1816 9.76562-7.66602Q9.76562-3.66211 11.6211-1.34277Q13.4766 0.976562 18.4082 0.976562ZM38.4277-34.6191Q42.3828-34.6191 45.5566-36.6699Q48.7305-38.7207 50.5859-42.1631Q52.4414-45.6055 52.4414-49.8047Q52.4414-53.8086 50.5615-57.2266Q48.6816-60.6445 45.5078-62.7197Q42.334-64.7949 38.4277-64.7949Q34.5215-64.7949 31.3477-62.7197Q28.1738-60.6445 26.3184-57.2266Q24.4629-53.8086 24.4629-49.8047Q24.5117-45.6055 26.3428-42.1631Q28.1738-38.7207 31.3232-36.6699Q34.4727-34.6191 38.4277-34.6191ZM148.486 0.976562Q153.418 0.976562 155.273-1.34277Q157.129-3.66211 157.129-7.66602Q157.129-11.1816 154.956-14.917Q152.783-18.6523 148.901-21.8506Q145.02-25.0488 139.795-27.0264Q134.57-29.0039 128.467-29.0039Q124.072-29.0039 120.093-27.9053Q116.113-26.8066 113.184-25.1953Q117.09-21.9238 119.531-18.3105Q121.973-14.6973 122.974-11.1572Q123.975-7.61719 123.608-4.46777Q123.242-1.31836 121.533 0.976562ZM128.467-34.6191Q132.422-34.6191 135.571-36.6699Q138.721-38.7207 140.576-42.1631Q142.432-45.6055 142.432-49.8047Q142.48-53.8086 140.601-57.2266Q138.721-60.6445 135.547-62.7197Q132.373-64.7949 128.467-64.7949Q124.561-64.7949 121.387-62.7197Q118.213-60.6445 116.333-57.2266Q114.453-53.8086 114.453-49.8047Q114.453-45.6055 116.309-42.1631Q118.164-38.7207 121.338-36.6699Q124.512-34.6191 128.467-34.6191Z"/>
  </g>
  <g id="Heavy-S" transform="matrix(1 0 0 1 2553.53 696)">
   <path d="M60.0098 0.683594L106.299 0.683594Q111.816 0.683594 113.892-1.09863Q115.967-2.88086 115.967-5.95703Q115.967-9.57031 113.647-13.5742Q111.328-17.5781 107.031-21.0938Q102.734-24.6094 96.6553-26.7822Q90.5762-28.9551 83.1543-28.9551Q75.7324-28.9551 69.6777-26.7822Q63.623-24.6094 59.3262-21.0938Q55.0293-17.5781 52.71-13.5742Q50.3906-9.57031 50.3906-5.95703Q50.3906-2.88086 52.4658-1.09863Q54.541 0.683594 60.0098 0.683594ZM83.1543-35.498Q87.5977-35.498 91.2109-37.8174Q94.8242-40.1367 96.9482-44.0674Q99.0723-47.998 99.0723-52.832Q99.0723-57.4707 96.9238-61.3281Q94.7754-65.1855 91.1621-67.5293Q87.5488-69.873 83.1543-69.873Q78.7598-69.873 75.1465-67.5293Q71.5332-65.1855 69.4092-61.3037Q67.2852-57.4219 67.2852-52.832Q67.2852-47.998 69.4092-44.0674Q71.5332-40.1367 75.1465-37.8174Q78.7598-35.498 83.1543-35.498ZM18.0664 0.732422L45.2637 0.732422Q43.6035-1.61133 43.3594-4.76074Q43.1152-7.91016 44.2139-11.4258Q45.3125-14.9414 47.7539-18.4326Q50.1953-21.9238 53.9062-25Q50.8789-26.709 46.875-27.8564Q42.8711-29.0039 38.2812-29.0039Q32.1289-29.0039 26.9043-26.9775Q21.6797-24.9512 17.8467-21.7041Q14.0137-18.457 11.8896-14.624Q9.76562-10.791 9.76562-7.17773Q9.76562-3.51562 11.5723-1.3916Q13.3789 0.732422 18.0664 0.732422ZM38.2812-34.668Q42.1875-34.668 45.3125-36.6943Q48.4375-38.7207 50.3174-42.1387Q52.1973-45.5566 52.1973-49.7559Q52.1973-53.8086 50.3174-57.1777Q48.4375-60.5469 45.2881-62.5732Q42.1387-64.5996 38.2812-64.5996Q34.4727-64.5996 31.3232-62.5732Q28.1738-60.5469 26.3184-57.1533Q24.4629-53.7598 24.4629-49.7559Q24.5117-45.5566 26.3428-42.1387Q28.1738-38.7207 31.3232-36.6943Q34.4727-34.668 38.2812-34.668ZM148.145 0.732422Q152.832 0.732422 154.639-1.3916Q156.445-3.51562 156.445-7.17773Q156.445-10.791 154.321-14.624Q152.197-18.457 148.364-21.7041Q144.531-24.9512 139.307-26.9775Q134.082-29.0039 127.881-29.0039Q123.291-29.0039 119.287-27.8564Q115.283-26.709 112.305-25Q116.016-21.9238 118.457-18.4326Q120.898-14.9414 121.997-11.4258Q123.096-7.91016 122.852-4.76074Q122.607-1.61133 120.947 0.732422ZM127.881-34.668Q131.738-34.668 134.863-36.6943Q137.988-38.7207 139.868-42.1387Q141.748-45.5566 141.748-49.7559Q141.748-53.7598 139.868-57.1533Q137.988-60.5469 134.839-62.5732Q131.689-64.5996 127.881-64.5996Q124.072-64.5996 120.923-62.5732Q117.773-60.5469 115.894-57.1777Q114.014-53.8086 114.014-49.7559Q114.014-45.5566 115.869-42.1387Q117.725-38.7207 120.874-36.6943Q124.023-34.668 127.881-34.668Z"/>
  </g>
  <g id="Bold-S" transform="matrix(1 0 0 1 2257.24 696)">
   <path d="M59.4727 0.439453L106.055 0.439453Q111.328 0.439453 113.354-1.19629Q115.381-2.83203 115.381-5.71289Q115.381-9.375 113.086-13.4277Q110.791-17.4805 106.519-20.9961Q102.246-24.5117 96.2158-26.709Q90.1855-28.9062 82.7637-28.9062Q75.293-28.9062 69.2871-26.709Q63.2812-24.5117 59.0088-20.9961Q54.7363-17.4805 52.4414-13.4277Q50.1465-9.375 50.1465-5.71289Q50.1465-2.83203 52.1484-1.19629Q54.1504 0.439453 59.4727 0.439453ZM82.7637-35.5957Q87.0605-35.5957 90.6494-37.8906Q94.2383-40.1855 96.3623-44.0918Q98.4863-47.998 98.4863-52.7832Q98.4863-57.4707 96.3379-61.3037Q94.1895-65.1367 90.625-67.3828Q87.0605-69.6289 82.7637-69.6289Q78.4668-69.6289 74.8779-67.3584Q71.2891-65.0879 69.165-61.2549Q67.041-57.4219 67.041-52.7344Q67.041-47.9492 69.165-44.0674Q71.2891-40.1855 74.8779-37.8906Q78.4668-35.5957 82.7637-35.5957ZM17.6758 0.488281L45.1172 0.488281Q43.5547-1.9043 43.4326-5.07812Q43.3105-8.25195 44.5312-11.7432Q45.752-15.2344 48.1934-18.6035Q50.6348-21.9727 54.1016-24.7559Q51.0254-26.5625 46.9971-27.7832Q42.9688-29.0039 38.1836-29.0039Q31.8848-29.0039 26.6602-26.9287Q21.4355-24.8535 17.6758-21.5332Q13.916-18.2129 11.8408-14.2822Q9.76562-10.3516 9.76562-6.64062Q9.76562-3.32031 11.499-1.41602Q13.2324 0.488281 17.6758 0.488281ZM38.1836-34.7168Q41.9434-34.7168 45.0439-36.7188Q48.1445-38.7207 50.0244-42.1387Q51.9043-45.5566 51.9043-49.707Q51.9043-53.8086 50.0244-57.1289Q48.1445-60.4492 45.0195-62.4268Q41.8945-64.4043 38.1836-64.4043Q34.4727-64.4043 31.3477-62.4268Q28.2227-60.4492 26.3428-57.1045Q24.4629-53.7598 24.4629-49.6582Q24.5117-45.5078 26.3672-42.1143Q28.2227-38.7207 31.3232-36.7188Q34.4238-34.7168 38.1836-34.7168ZM147.803 0.488281Q152.197 0.488281 153.931-1.41602Q155.664-3.32031 155.664-6.64062Q155.664-10.3516 153.613-14.2822Q151.562-18.2129 147.778-21.5332Q143.994-24.8535 138.77-26.9287Q133.545-29.0039 127.246-29.0039Q122.461-29.0039 118.433-27.7832Q114.404-26.5625 111.328-24.7559Q114.844-21.9727 117.261-18.6035Q119.678-15.2344 120.898-11.7432Q122.119-8.25195 121.997-5.07812Q121.875-1.9043 120.312 0.488281ZM127.246-34.7168Q131.006-34.7168 134.106-36.7188Q137.207-38.7207 139.087-42.1143Q140.967-45.5078 140.967-49.6582Q140.967-53.7598 139.087-57.1045Q137.207-60.4492 134.106-62.4268Q131.006-64.4043 127.246-64.4043Q123.535-64.4043 120.41-62.4268Q117.285-60.4492 115.43-57.1289Q113.574-53.8086 113.574-49.707Q113.574-45.5566 115.43-42.1387Q117.285-38.7207 120.386-36.7188Q123.486-34.7168 127.246-34.7168Z"/>
  </g>
  <g id="Semibold-S" transform="matrix(1 0 0 1 1960.82 696)">
   <path d="M59.0332 0.244141L105.859 0.244141Q110.986 0.244141 112.988-1.26953Q114.99-2.7832 114.99-5.56641Q114.99-9.22852 112.695-13.2812Q110.4-17.334 106.152-20.8984Q101.904-24.4629 95.8984-26.6846Q89.8926-28.9062 82.4219-28.9062Q75-28.9062 68.9941-26.6846Q62.9883-24.4629 58.7402-20.8984Q54.4922-17.334 52.2217-13.2812Q49.9512-9.22852 49.9512-5.56641Q49.9512-2.7832 51.9287-1.26953Q53.9062 0.244141 59.0332 0.244141ZM82.4219-35.5957Q86.6699-35.5957 90.2344-37.8906Q93.7988-40.1855 95.9473-44.0674Q98.0957-47.9492 98.0957-52.7344Q98.0957-57.4707 95.9473-61.2549Q93.7988-65.0391 90.2344-67.2607Q86.6699-69.4824 82.4219-69.4824Q78.2715-69.4824 74.707-67.2363Q71.1426-64.9902 68.9941-61.1816Q66.8457-57.373 66.8457-52.6855Q66.8457-47.9004 68.9941-44.043Q71.1426-40.1855 74.6826-37.8906Q78.2227-35.5957 82.4219-35.5957ZM17.3828 0.292969L45.0195 0.292969Q43.5059-2.09961 43.4814-5.29785Q43.457-8.49609 44.751-11.9385Q46.0449-15.3809 48.4863-18.6768Q50.9277-21.9727 54.1992-24.6094Q51.0742-26.4648 47.0215-27.71Q42.9688-28.9551 38.0371-28.9551Q31.6895-28.9551 26.4893-26.8799Q21.2891-24.8047 17.5537-21.4111Q13.8184-18.0176 11.792-14.0381Q9.76562-10.0586 9.76562-6.25Q9.76562-3.17383 11.4502-1.44043Q13.1348 0.292969 17.3828 0.292969ZM38.0371-34.7656Q41.748-34.7656 44.8486-36.7432Q47.9492-38.7207 49.8047-42.1143Q51.6602-45.5078 51.6602-49.6582Q51.6602-53.8086 49.7803-57.1045Q47.9004-60.4004 44.8242-62.3047Q41.748-64.209 38.0371-64.209Q34.4238-64.209 31.3232-62.2803Q28.2227-60.3516 26.3428-57.0312Q24.4629-53.7109 24.4629-49.6094Q24.4629-45.459 26.3428-42.0898Q28.2227-38.7207 31.3232-36.7432Q34.4238-34.7656 38.0371-34.7656ZM147.461 0.292969Q151.709 0.292969 153.369-1.44043Q155.029-3.17383 155.029-6.25Q155.029-10.0586 153.027-14.0381Q151.025-18.0176 147.29-21.4111Q143.555-24.8047 138.33-26.8799Q133.105-28.9551 126.758-28.9551Q121.826-28.9551 117.773-27.71Q113.721-26.4648 110.596-24.6094Q113.916-21.9727 116.357-18.6768Q118.799-15.3809 120.068-11.9385Q121.338-8.49609 121.338-5.29785Q121.338-2.09961 119.775 0.292969ZM126.758-34.7656Q130.42-34.7656 133.521-36.7432Q136.621-38.7207 138.477-42.0898Q140.332-45.459 140.332-49.6094Q140.381-53.7109 138.501-57.0312Q136.621-60.3516 133.521-62.2803Q130.42-64.209 126.758-64.209Q123.096-64.209 119.995-62.3047Q116.895-60.4004 115.039-57.1045Q113.184-53.8086 113.184-49.6582Q113.184-45.5078 115.039-42.1143Q116.895-38.7207 119.971-36.7432Q123.047-34.7656 126.758-34.7656Z"/>
  </g>
  <g id="Medium-S" transform="matrix(1 0 0 1 1664.3 696)">
   <path d="M58.7402 0.146484L105.762 0.146484Q110.742 0.146484 112.695-1.31836Q114.648-2.7832 114.648-5.41992Q114.648-9.13086 112.402-13.208Q110.156-17.2852 105.908-20.8496Q101.66-24.4141 95.6787-26.6357Q89.6973-28.8574 82.2266-28.8574Q74.7559-28.8574 68.7744-26.6357Q62.793-24.4141 58.5693-20.8496Q54.3457-17.2852 52.0752-13.208Q49.8047-9.13086 49.8047-5.41992Q49.8047-2.7832 51.7334-1.31836Q53.6621 0.146484 58.7402 0.146484ZM82.2266-35.6445Q86.4258-35.6445 89.9414-37.915Q93.457-40.1855 95.6055-44.0674Q97.7539-47.9492 97.7539-52.7344Q97.7539-57.4707 95.6055-61.2305Q93.457-64.9902 89.917-67.1631Q86.377-69.3359 82.2266-69.3359Q78.0762-69.3359 74.5361-67.1387Q70.9961-64.9414 68.8477-61.1572Q66.6992-57.373 66.6992-52.6367Q66.748-47.9004 68.8721-44.043Q70.9961-40.1855 74.5361-37.915Q78.0762-35.6445 82.2266-35.6445ZM17.1875 0.146484L44.9707 0.146484Q43.457-2.29492 43.5059-5.46875Q43.5547-8.64258 44.9219-12.085Q46.2891-15.5273 48.7061-18.7744Q51.123-22.0215 54.2969-24.4629Q51.123-26.416 47.0703-27.6855Q43.0176-28.9551 37.9883-28.9551Q31.543-28.9551 26.3428-26.8311Q21.1426-24.707 17.4561-21.2891Q13.7695-17.8711 11.7676-13.8428Q9.76562-9.81445 9.76562-5.95703Q9.76562-3.125 11.4258-1.48926Q13.0859 0.146484 17.1875 0.146484ZM37.9883-34.7656Q41.6016-34.7656 44.6777-36.7432Q47.7539-38.7207 49.6338-42.1143Q51.5137-45.5078 51.5137-49.6582Q51.5137-53.8086 49.6338-57.0557Q47.7539-60.3027 44.6777-62.207Q41.6016-64.1113 37.9883-64.1113Q34.4238-64.1113 31.3232-62.207Q28.2227-60.3027 26.3428-57.0068Q24.4629-53.7109 24.4629-49.5605Q24.4629-45.459 26.3428-42.0898Q28.2227-38.7207 31.2988-36.7432Q34.375-34.7656 37.9883-34.7656ZM147.314 0.146484Q151.367 0.146484 153.003-1.48926Q154.639-3.125 154.639-5.95703Q154.639-9.81445 152.686-13.8428Q150.732-17.8711 146.997-21.2891Q143.262-24.707 138.062-26.8311Q132.861-28.9551 126.416-28.9551Q121.387-28.9551 117.334-27.6855Q113.281-26.416 110.107-24.4629Q113.33-22.0215 115.747-18.7744Q118.164-15.5273 119.507-12.085Q120.85-8.64258 120.898-5.46875Q120.947-2.29492 119.482 0.146484ZM126.416-34.7656Q130.078-34.7656 133.13-36.7432Q136.182-38.7207 138.062-42.0898Q139.941-45.459 139.941-49.5605Q139.941-53.7109 138.062-57.0068Q136.182-60.3027 133.13-62.207Q130.078-64.1113 126.416-64.1113Q122.803-64.1113 119.727-62.207Q116.65-60.3027 114.795-57.0557Q112.939-53.8086 112.939-49.6582Q112.939-45.5078 114.795-42.1143Q116.65-38.7207 119.727-36.7432Q122.803-34.7656 126.416-34.7656Z"/>
  </g>
  <g id="Regular-S" transform="matrix(1 0 0 1 1367.89 696)">
   <path d="M58.3496-0.0488281L105.566-0.0488281Q110.449-0.0488281 112.354-1.3916Q114.258-2.73438 114.258-5.27344Q114.258-8.98438 112.012-13.0859Q109.766-17.1875 105.566-20.7764Q101.367-24.3652 95.3857-26.6113Q89.4043-28.8574 81.9336-28.8574Q74.4629-28.8574 68.5059-26.6113Q62.5488-24.3652 58.3496-20.7764Q54.1504-17.1875 51.9043-13.0859Q49.6582-8.98438 49.6582-5.27344Q49.6582-2.73438 51.5381-1.3916Q53.418-0.0488281 58.3496-0.0488281ZM81.9336-35.6934Q86.0352-35.6934 89.5508-37.9395Q93.0664-40.1855 95.2148-44.043Q97.3633-47.9004 97.3633-52.6855Q97.3633-57.4707 95.2148-61.2061Q93.0664-64.9414 89.5508-67.0654Q86.0352-69.1895 81.9336-69.1895Q77.8809-69.1895 74.3652-67.0166Q70.8496-64.8438 68.7012-61.084Q66.5527-57.3242 66.5527-52.5879Q66.5527-47.8516 68.7012-44.0186Q70.8496-40.1855 74.3652-37.9395Q77.8809-35.6934 81.9336-35.6934ZM16.8945-0.0488281L44.873-0.0488281Q43.4082-2.49023 43.5547-5.68848Q43.7012-8.88672 45.1416-12.3047Q46.582-15.7227 48.999-18.8721Q51.416-22.0215 54.4434-24.3164Q51.2207-26.3184 47.1436-27.6367Q43.0664-28.9551 37.8906-28.9551Q31.3965-28.9551 26.1963-26.8066Q20.9961-24.6582 17.334-21.1914Q13.6719-17.7246 11.7188-13.623Q9.76562-9.52148 9.76562-5.56641Q9.76562-2.97852 11.377-1.51367Q12.9883-0.0488281 16.8945-0.0488281ZM37.8906-34.8145Q41.4551-34.8145 44.5068-36.7676Q47.5586-38.7207 49.4385-42.0898Q51.3184-45.459 51.3184-49.6094Q51.3184-53.8086 49.4385-57.0312Q47.5586-60.2539 44.5068-62.1094Q41.4551-63.9648 37.8906-63.9648Q34.375-63.9648 31.2988-62.085Q28.2227-60.2051 26.3428-56.9336Q24.4629-53.6621 24.4629-49.5117Q24.4629-45.4102 26.3428-42.0654Q28.2227-38.7207 31.2988-36.7676Q34.375-34.8145 37.8906-34.8145ZM147.021-0.0488281Q150.928-0.0488281 152.515-1.51367Q154.102-2.97852 154.102-5.56641Q154.102-9.52148 152.173-13.623Q150.244-17.7246 146.558-21.1914Q142.871-24.6582 137.671-26.8066Q132.471-28.9551 125.977-28.9551Q120.801-28.9551 116.724-27.6367Q112.646-26.3184 109.424-24.3164Q112.5-22.0215 114.917-18.8721Q117.334-15.7227 118.75-12.3047Q120.166-8.88672 120.312-5.68848Q120.459-2.49023 118.994-0.0488281ZM125.977-34.8145Q129.541-34.8145 132.593-36.7676Q135.645-38.7207 137.524-42.0654Q139.404-45.4102 139.404-49.5117Q139.404-53.6621 137.524-56.9336Q135.645-60.2051 132.593-62.085Q129.541-63.9648 125.977-63.9648Q122.412-63.9648 119.36-62.1094Q116.309-60.2539 114.453-57.0312Q112.598-53.8086 112.598-49.6094Q112.598-45.459 114.453-42.0898Q116.309-38.7207 119.36-36.7676Q122.412-34.8145 125.977-34.8145Z"/>
  </g>
  <g id="Light-S" transform="matrix(1 0 0 1 1071.35 696)">
   <path d="M57.4219-0.341797L106.104-0.341797Q110.303-0.341797 112.085-1.5625Q113.867-2.7832 113.867-5.27344Q113.867-8.98438 111.646-13.0615Q109.424-17.1387 105.225-20.7031Q101.025-24.2676 95.0928-26.5137Q89.1602-28.7598 81.7383-28.7598Q74.3164-28.7598 68.3838-26.5137Q62.4512-24.2676 58.2764-20.7031Q54.1016-17.1387 51.8799-13.0615Q49.6582-8.98438 49.6582-5.27344Q49.6582-2.7832 51.416-1.5625Q53.1738-0.341797 57.4219-0.341797ZM81.7871-35.5957Q85.9375-35.5957 89.3799-37.8174Q92.8223-40.0391 94.9219-43.8477Q97.0215-47.6562 97.0215-52.4414Q97.0215-57.0801 94.9219-60.791Q92.8223-64.502 89.3555-66.6504Q85.8887-68.7988 81.7871-68.7988Q77.6855-68.7988 74.2188-66.626Q70.752-64.4531 68.6523-60.7178Q66.5527-56.9824 66.6016-52.3438Q66.6016-47.6562 68.6768-43.8477Q70.752-40.0391 74.2188-37.8174Q77.6855-35.5957 81.7871-35.5957ZM16.1621-0.341797L46.0449-0.341797Q44.5312-2.29492 44.5312-5.22461Q44.5312-8.1543 45.8008-11.4746Q47.0703-14.7949 49.3896-18.0176Q51.709-21.2402 54.7852-23.6816Q51.6113-25.9277 47.3633-27.3926Q43.1152-28.8574 37.6465-28.8574Q31.2012-28.8574 26.0254-26.7578Q20.8496-24.6582 17.2119-21.2158Q13.5742-17.7734 11.6455-13.6719Q9.7168-9.57031 9.7168-5.56641Q9.7168-3.02734 11.2305-1.68457Q12.7441-0.341797 16.1621-0.341797ZM37.6953-34.7168Q41.3086-34.7168 44.3115-36.6455Q47.3145-38.5742 49.1211-41.9189Q50.9277-45.2637 50.9277-49.3652Q50.9277-53.4668 49.0967-56.665Q47.2656-59.8633 44.2627-61.7432Q41.2598-63.623 37.6953-63.623Q34.1309-63.623 31.1035-61.7432Q28.0762-59.8633 26.2451-56.6162Q24.4141-53.3691 24.4629-49.3164Q24.4629-45.2148 26.2695-41.8945Q28.0762-38.5742 31.1035-36.6455Q34.1309-34.7168 37.6953-34.7168ZM147.363-0.341797Q150.781-0.341797 152.271-1.68457Q153.76-3.02734 153.76-5.56641Q153.76-9.57031 151.855-13.6719Q149.951-17.7734 146.289-21.2158Q142.627-24.6582 137.451-26.7578Q132.275-28.8574 125.83-28.8574Q120.361-28.8574 116.113-27.3926Q111.865-25.9277 108.691-23.6816Q111.816-21.2402 114.136-18.0176Q116.455-14.7949 117.7-11.4746Q118.945-8.1543 118.97-5.22461Q118.994-2.29492 117.48-0.341797ZM125.781-34.7168Q129.395-34.7168 132.397-36.6455Q135.4-38.5742 137.231-41.8945Q139.062-45.2148 139.062-49.3164Q139.062-53.3691 137.231-56.6162Q135.4-59.8633 132.373-61.7432Q129.346-63.623 125.781-63.623Q122.217-63.623 119.214-61.7432Q116.211-59.8633 114.404-56.665Q112.598-53.4668 112.598-49.3652Q112.598-45.2637 114.38-41.9189Q116.162-38.5742 119.189-36.6455Q122.217-34.7168 125.781-34.7168Z"/>
  </g>
  <g id="Thin-S" transform="matrix(1 0 0 1 774.83 696)">
   <path d="M56.1523-0.732422L106.885-0.732422Q110.156-0.732422 111.743-1.78223Q113.33-2.83203 113.33-5.32227Q113.33-8.98438 111.133-13.0371Q108.936-17.0898 104.785-20.6299Q100.635-24.1699 94.751-26.3672Q88.8672-28.5645 81.4941-28.5645Q74.1699-28.5645 68.2617-26.3672Q62.3535-24.1699 58.2275-20.6299Q54.1016-17.0898 51.8799-13.0371Q49.6582-8.98438 49.6582-5.32227Q49.6582-2.83203 51.2451-1.78223Q52.832-0.732422 56.1523-0.732422ZM81.5918-35.4492Q85.7422-35.4492 89.1357-37.6465Q92.5293-39.8438 94.5312-43.6035Q96.5332-47.3633 96.5332-52.0996Q96.5332-56.543 94.5068-60.2295Q92.4805-63.916 89.0869-66.1133Q85.6934-68.3105 81.5918-68.3105Q77.4414-68.3105 74.0479-66.1133Q70.6543-63.916 68.6279-60.2051Q66.6016-56.4941 66.6016-52.0508Q66.6016-47.3633 68.6279-43.6035Q70.6543-39.8438 74.0479-37.6465Q77.4414-35.4492 81.5918-35.4492ZM15.1855-0.732422L47.5586-0.732422Q45.9473-2.00195 45.7764-4.58984Q45.6055-7.17773 46.6553-10.4004Q47.7051-13.623 49.8779-16.8945Q52.0508-20.166 55.2246-22.8027Q52.0508-25.3906 47.6318-27.0752Q43.2129-28.7598 37.3047-28.7598Q30.9082-28.7598 25.7812-26.6846Q20.6543-24.6094 17.0654-21.2158Q13.4766-17.8223 11.5479-13.7451Q9.61914-9.66797 9.61914-5.61523Q9.61914-3.02734 11.0107-1.87988Q12.4023-0.732422 15.1855-0.732422ZM37.4023-34.6191Q41.0156-34.6191 43.9697-36.5234Q46.9238-38.4277 48.6816-41.6992Q50.4395-44.9707 50.4395-49.0723Q50.4395-52.9785 48.6572-56.1768Q46.875-59.375 43.9209-61.3037Q40.9668-63.2324 37.4023-63.2324Q33.7891-63.2324 30.835-61.3037Q27.8809-59.375 26.123-56.1768Q24.3652-52.9785 24.3652-49.0723Q24.3652-44.9707 26.123-41.6992Q27.8809-38.4277 30.835-36.5234Q33.7891-34.6191 37.4023-34.6191ZM147.754-0.732422Q150.537-0.732422 151.904-1.87988Q153.271-3.02734 153.271-5.61523Q153.271-9.66797 151.367-13.7451Q149.463-17.8223 145.85-21.2158Q142.236-24.6094 137.109-26.6846Q131.982-28.7598 125.586-28.7598Q119.678-28.7598 115.259-27.0752Q110.84-25.3906 107.666-22.8027Q110.84-20.166 113.037-16.8945Q115.234-13.623 116.284-10.4004Q117.334-7.17773 117.139-4.58984Q116.943-2.00195 115.381-0.732422ZM125.537-34.6191Q129.15-34.6191 132.104-36.5234Q135.059-38.4277 136.792-41.6992Q138.525-44.9707 138.525-49.0723Q138.525-52.9785 136.743-56.1768Q134.961-59.375 132.031-61.3037Q129.102-63.2324 125.537-63.2324Q121.924-63.2324 118.97-61.3037Q116.016-59.375 114.258-56.1768Q112.5-52.9785 112.5-49.0723Q112.5-44.9707 114.233-41.6992Q115.967-38.4277 118.921-36.5234Q121.875-34.6191 125.537-34.6191Z"/>
  </g>
  <g id="Ultralight-S" transform="matrix(1 0 0 1 478.241 696)">
   <path d="M55.5176-0.927734L107.227-0.927734Q110.059-0.927734 111.572-1.9043Q113.086-2.88086 113.086-5.32227Q113.086-8.98438 110.913-13.0127Q108.74-17.041 104.565-20.5566Q100.391-24.0723 94.5557-26.2939Q88.7207-28.5156 81.3965-28.5156Q74.0723-28.5156 68.1885-26.2939Q62.3047-24.0723 58.1787-20.5566Q54.0527-17.041 51.8555-13.0127Q49.6582-8.98438 49.6582-5.32227Q49.6582-2.88086 51.1719-1.9043Q52.6855-0.927734 55.5176-0.927734ZM81.4941-35.3516Q85.6934-35.3516 89.0381-37.5488Q92.3828-39.7461 94.3359-43.4814Q96.2891-47.2168 96.2891-51.9043Q96.2891-56.2988 94.3115-59.9609Q92.334-63.623 88.9648-65.8447Q85.5957-68.0664 81.4941-68.0664Q77.3438-68.0664 73.9502-65.8691Q70.5566-63.6719 68.5791-59.9854Q66.6016-56.2988 66.6504-51.9043Q66.6504-47.2168 68.6035-43.4814Q70.5566-39.7461 73.9258-37.5488Q77.2949-35.3516 81.4941-35.3516ZM14.6484-0.927734L48.291-0.927734Q46.7285-1.85547 46.4355-4.24805Q46.1426-6.64062 47.0703-9.81445Q47.998-12.9883 50.0977-16.3086Q52.1973-19.6289 55.4688-22.3633Q52.2949-25.0977 47.7539-26.8799Q43.2129-28.6621 37.1582-28.6621Q30.7617-28.6621 25.6592-26.6357Q20.5566-24.6094 16.9678-21.2402Q13.3789-17.8711 11.4746-13.7939Q9.57031-9.7168 9.57031-5.61523Q9.57031-3.07617 10.8887-2.00195Q12.207-0.927734 14.6484-0.927734ZM37.2559-34.5215Q40.918-34.5215 43.8232-36.4258Q46.7285-38.3301 48.4375-41.5771Q50.1465-44.8242 50.1465-48.9258Q50.1465-52.7344 48.4131-55.9326Q46.6797-59.1309 43.75-61.0596Q40.8203-62.9883 37.2559-62.9883Q33.6426-62.9883 30.6885-61.0596Q27.7344-59.1309 26.0254-55.9326Q24.3164-52.7344 24.3652-48.9258Q24.3652-44.8242 26.0498-41.5771Q27.7344-38.3301 30.6641-36.4258Q33.5938-34.5215 37.2559-34.5215ZM147.998-0.927734Q150.439-0.927734 151.758-2.00195Q153.076-3.07617 153.076-5.61523Q153.076-9.7168 151.172-13.7939Q149.268-17.8711 145.679-21.2402Q142.09-24.6094 136.963-26.6357Q131.836-28.6621 125.488-28.6621Q119.385-28.6621 114.844-26.8799Q110.303-25.0977 107.178-22.3633Q110.4-19.6289 112.524-16.3086Q114.648-12.9883 115.576-9.81445Q116.504-6.64062 116.235-4.24805Q115.967-1.85547 114.355-0.927734ZM125.391-34.5215Q129.053-34.5215 131.982-36.4258Q134.912-38.3301 136.597-41.5771Q138.281-44.8242 138.281-48.9258Q138.281-52.7344 136.548-55.9326Q134.814-59.1309 131.885-61.0596Q128.955-62.9883 125.391-62.9883Q121.777-62.9883 118.872-61.0596Q115.967-59.1309 114.233-55.9326Q112.5-52.7344 112.5-48.9258Q112.5-44.8242 114.185-41.5771Q115.869-38.3301 118.823-36.4258Q121.777-34.5215 125.391-34.5215Z"/>
  </g>
 </g>
</svg>
