<?xml version="1.0" encoding="UTF-8"?>
<!--Generator: Apple Native CoreSVG 149-->
<!DOCTYPE svg
PUBLIC "-//W3C//DTD SVG 1.1//EN"
       "http://www.w3.org/Graphics/SVG/1.1/DTD/svg11.dtd">
<svg version="1.1" xmlns="http://www.w3.org/2000/svg" xmlns:xlink="http://www.w3.org/1999/xlink" width="3300" height="2200">
 <!--glyph: "uni1004E4.medium", point size: 100.0, font version: "17.0d9e1", template writer version: "59"-->
 <g id="Notes">
  <rect height="2200" id="artboard" style="fill:white;opacity:1" width="3300" x="0" y="0"/>
  <line style="fill:none;stroke:black;opacity:1;stroke-width:0.5;" x1="263" x2="3036" y1="292" y2="292"/>
  <text style="stroke:none;fill:black;font-family:sans-serif;font-size:13;font-weight:bold;" transform="matrix(1 0 0 1 263 322)">Weight/Scale Variations</text>
  <text style="stroke:none;fill:black;font-family:sans-serif;font-size:13;text-anchor:middle;" transform="matrix(1 0 0 1 559.711 322)">Ultralight</text>
  <text style="stroke:none;fill:black;font-family:sans-serif;font-size:13;text-anchor:middle;" transform="matrix(1 0 0 1 856.422 322)">Thin</text>
  <text style="stroke:none;fill:black;font-family:sans-serif;font-size:13;text-anchor:middle;" transform="matrix(1 0 0 1 1153.13 322)">Light</text>
  <text style="stroke:none;fill:black;font-family:sans-serif;font-size:13;text-anchor:middle;" transform="matrix(1 0 0 1 1449.84 322)">Regular</text>
  <text style="stroke:none;fill:black;font-family:sans-serif;font-size:13;text-anchor:middle;" transform="matrix(1 0 0 1 1746.56 322)">Medium</text>
  <text style="stroke:none;fill:black;font-family:sans-serif;font-size:13;text-anchor:middle;" transform="matrix(1 0 0 1 2043.27 322)">Semibold</text>
  <text style="stroke:none;fill:black;font-family:sans-serif;font-size:13;text-anchor:middle;" transform="matrix(1 0 0 1 2339.98 322)">Bold</text>
  <text style="stroke:none;fill:black;font-family:sans-serif;font-size:13;text-anchor:middle;" transform="matrix(1 0 0 1 2636.69 322)">Heavy</text>
  <text style="stroke:none;fill:black;font-family:sans-serif;font-size:13;text-anchor:middle;" transform="matrix(1 0 0 1 2933.4 322)">Black</text>
  <line style="fill:none;stroke:black;opacity:1;stroke-width:0.5;" x1="263" x2="3036" y1="1903" y2="1903"/>
  <g transform="matrix(1 0 0 1 263 1933)">
   <path d="M9.24805 0.830078Q10.8691 0.830078 12.2949 0.214844Q13.7207-0.400391 14.8096-1.49414Q15.8984-2.58789 16.5186-4.01367Q17.1387-5.43945 17.1387-7.05078Q17.1387-8.66211 16.5186-10.0879Q15.8984-11.5137 14.8047-12.6074Q13.7109-13.7012 12.2852-14.3164Q10.8594-14.9316 9.23828-14.9316Q7.62695-14.9316 6.20117-14.3164Q4.77539-13.7012 3.69141-12.6074Q2.60742-11.5137 1.9873-10.0879Q1.36719-8.66211 1.36719-7.05078Q1.36719-5.43945 1.9873-4.01367Q2.60742-2.58789 3.69629-1.49414Q4.78516-0.400391 6.21094 0.214844Q7.63672 0.830078 9.24805 0.830078ZM9.24805-0.654297Q7.91992-0.654297 6.7627-1.14746Q5.60547-1.64062 4.73145-2.51953Q3.85742-3.39844 3.36426-4.56055Q2.87109-5.72266 2.87109-7.05078Q2.87109-8.37891 3.35938-9.54102Q3.84766-10.7031 4.72168-11.582Q5.5957-12.4609 6.75293-12.9541Q7.91016-13.4473 9.23828-13.4473Q10.5762-13.4473 11.7334-12.9541Q12.8906-12.4609 13.7695-11.582Q14.6484-10.7031 15.1465-9.54102Q15.6445-8.37891 15.6445-7.05078Q15.6445-5.72266 15.1514-4.56055Q14.6582-3.39844 13.7842-2.51953Q12.9102-1.64062 11.748-1.14746Q10.5859-0.654297 9.24805-0.654297ZM5.83984-7.04102Q5.83984-6.71875 6.04492-6.51855Q6.25-6.31836 6.5918-6.31836L8.50586-6.31836L8.50586-4.39453Q8.50586-4.0625 8.70605-3.85742Q8.90625-3.65234 9.22852-3.65234Q9.56055-3.65234 9.76562-3.85742Q9.9707-4.0625 9.9707-4.39453L9.9707-6.31836L11.8945-6.31836Q12.2266-6.31836 12.4316-6.51855Q12.6367-6.71875 12.6367-7.04102Q12.6367-7.37305 12.4316-7.57812Q12.2266-7.7832 11.8945-7.7832L9.9707-7.7832L9.9707-9.69727Q9.9707-10.0391 9.76562-10.2441Q9.56055-10.4492 9.22852-10.4492Q8.90625-10.4492 8.70605-10.2441Q8.50586-10.0391 8.50586-9.69727L8.50586-7.7832L6.5918-7.7832Q6.25-7.7832 6.04492-7.57812Q5.83984-7.37305 5.83984-7.04102Z"/>
  </g>
  <g transform="matrix(1 0 0 1 281.867 1933)">
   <path d="M11.709 2.91016Q13.75 2.91016 15.5518 2.12891Q17.3535 1.34766 18.7305-0.0292969Q20.1074-1.40625 20.8887-3.20801Q21.6699-5.00977 21.6699-7.05078Q21.6699-9.0918 20.8887-10.8936Q20.1074-12.6953 18.7305-14.0723Q17.3535-15.4492 15.5469-16.2305Q13.7402-17.0117 11.6992-17.0117Q9.6582-17.0117 7.85645-16.2305Q6.05469-15.4492 4.68262-14.0723Q3.31055-12.6953 2.5293-10.8936Q1.74805-9.0918 1.74805-7.05078Q1.74805-5.00977 2.5293-3.20801Q3.31055-1.40625 4.6875-0.0292969Q6.06445 1.34766 7.86621 2.12891Q9.66797 2.91016 11.709 2.91016ZM11.709 1.25Q9.98047 1.25 8.47656 0.605469Q6.97266-0.0390625 5.83496-1.17676Q4.69727-2.31445 4.05762-3.81836Q3.41797-5.32227 3.41797-7.05078Q3.41797-8.7793 4.05762-10.2832Q4.69727-11.7871 5.83008-12.9297Q6.96289-14.0723 8.4668-14.7119Q9.9707-15.3516 11.6992-15.3516Q13.4277-15.3516 14.9316-14.7119Q16.4355-14.0723 17.5781-12.9297Q18.7207-11.7871 19.3652-10.2832Q20.0098-8.7793 20.0098-7.05078Q20.0098-5.32227 19.3701-3.81836Q18.7305-2.31445 17.5928-1.17676Q16.4551-0.0390625 14.9463 0.605469Q13.4375 1.25 11.709 1.25ZM7.39258-7.04102Q7.39258-6.68945 7.62695-6.46484Q7.86133-6.24023 8.23242-6.24023L10.8789-6.24023L10.8789-3.57422Q10.8789-3.21289 11.1035-2.9834Q11.3281-2.75391 11.6797-2.75391Q12.0508-2.75391 12.2852-2.9834Q12.5195-3.21289 12.5195-3.57422L12.5195-6.24023L15.1758-6.24023Q15.5371-6.24023 15.7715-6.46484Q16.0059-6.68945 16.0059-7.04102Q16.0059-7.41211 15.7715-7.6416Q15.5371-7.87109 15.1758-7.87109L12.5195-7.87109L12.5195-10.5176Q12.5195-10.8984 12.2852-11.1279Q12.0508-11.3574 11.6797-11.3574Q11.3281-11.3574 11.1035-11.1279Q10.8789-10.8984 10.8789-10.5176L10.8789-7.87109L8.23242-7.87109Q7.85156-7.87109 7.62207-7.6416Q7.39258-7.41211 7.39258-7.04102Z"/>
  </g>
  <g transform="matrix(1 0 0 1 305.646 1933)">
   <path d="M14.9707 5.66406Q17.0605 5.66406 18.96 5.01465Q20.8594 4.36523 22.4512 3.19336Q24.043 2.02148 25.2197 0.429688Q26.3965-1.16211 27.0459-3.06641Q27.6953-4.9707 27.6953-7.05078Q27.6953-9.14062 27.0459-11.04Q26.3965-12.9395 25.2197-14.5312Q24.043-16.123 22.4512-17.2998Q20.8594-18.4766 18.9551-19.126Q17.0508-19.7754 14.9609-19.7754Q12.8711-19.7754 10.9717-19.126Q9.07227-18.4766 7.48535-17.2998Q5.89844-16.123 4.72168-14.5312Q3.54492-12.9395 2.90039-11.04Q2.25586-9.14062 2.25586-7.05078Q2.25586-4.9707 2.90527-3.06641Q3.55469-1.16211 4.72656 0.429688Q5.89844 2.02148 7.49023 3.19336Q9.08203 4.36523 10.9814 5.01465Q12.8809 5.66406 14.9707 5.66406ZM14.9707 3.84766Q13.1641 3.84766 11.5283 3.2959Q9.89258 2.74414 8.53516 1.74805Q7.17773 0.751953 6.17676-0.610352Q5.17578-1.97266 4.62891-3.6084Q4.08203-5.24414 4.08203-7.05078Q4.08203-8.86719 4.62891-10.5029Q5.17578-12.1387 6.17188-13.501Q7.16797-14.8633 8.52539-15.8594Q9.88281-16.8555 11.5186-17.4023Q13.1543-17.9492 14.9609-17.9492Q16.7773-17.9492 18.4131-17.4023Q20.0488-16.8555 21.4111-15.8594Q22.7734-14.8633 23.7695-13.501Q24.7656-12.1387 25.3174-10.5029Q25.8691-8.86719 25.8691-7.05078Q25.8789-5.24414 25.332-3.6084Q24.7852-1.97266 23.7842-0.610352Q22.7832 0.751953 21.4209 1.74805Q20.0586 2.74414 18.4229 3.2959Q16.7871 3.84766 14.9707 3.84766ZM9.45312-7.04102Q9.45312-6.66016 9.71191-6.41113Q9.9707-6.16211 10.3711-6.16211L14.0625-6.16211L14.0625-2.46094Q14.0625-2.06055 14.3115-1.80664Q14.5605-1.55273 14.9414-1.55273Q15.3516-1.55273 15.6055-1.80664Q15.8594-2.06055 15.8594-2.46094L15.8594-6.16211L19.5605-6.16211Q19.9609-6.16211 20.2148-6.41113Q20.4688-6.66016 20.4688-7.04102Q20.4688-7.45117 20.2148-7.70508Q19.9609-7.95898 19.5605-7.95898L15.8594-7.95898L15.8594-11.6504Q15.8594-12.0605 15.6055-12.3145Q15.3516-12.5684 14.9414-12.5684Q14.5605-12.5684 14.3115-12.3096Q14.0625-12.0508 14.0625-11.6504L14.0625-7.95898L10.3711-7.95898Q9.96094-7.95898 9.70703-7.70508Q9.45312-7.45117 9.45312-7.04102Z"/>
  </g>
  <text style="stroke:none;fill:black;font-family:sans-serif;font-size:13;font-weight:bold;" transform="matrix(1 0 0 1 263 1953)">Design Variations</text>
  <text style="stroke:none;fill:black;font-family:sans-serif;font-size:13;" transform="matrix(1 0 0 1 263 1971)">Symbols are supported in up to nine weights and three scales.</text>
  <text style="stroke:none;fill:black;font-family:sans-serif;font-size:13;" transform="matrix(1 0 0 1 263 1989)">For optimal layout with text and other symbols, vertically align</text>
  <text style="stroke:none;fill:black;font-family:sans-serif;font-size:13;" transform="matrix(1 0 0 1 263 2007)">symbols with the adjacent text.</text>
  <line style="fill:none;stroke:#00AEEF;stroke-width:0.5;opacity:1.0;" x1="776" x2="776" y1="1919" y2="1933"/>
  <g transform="matrix(1 0 0 1 776 1933)">
   <path d="M3.31055 0.15625Q3.70117 0.15625 3.91602-0.00976562Q4.13086-0.175781 4.26758-0.585938L5.52734-4.0332L11.2891-4.0332L12.5488-0.585938Q12.6855-0.175781 12.9004-0.00976562Q13.1152 0.15625 13.4961 0.15625Q13.8867 0.15625 14.1162-0.0585938Q14.3457-0.273438 14.3457-0.644531Q14.3457-0.869141 14.2383-1.17188L9.6582-13.3691Q9.48242-13.8184 9.17969-14.043Q8.87695-14.2676 8.4082-14.2676Q7.5-14.2676 7.17773-13.3789L2.59766-1.16211Q2.49023-0.859375 2.49023-0.634766Q2.49023-0.263672 2.70996-0.0537109Q2.92969 0.15625 3.31055 0.15625ZM6.00586-5.51758L8.37891-12.0898L8.42773-12.0898L10.8008-5.51758Z"/>
  </g>
  <line style="fill:none;stroke:#00AEEF;stroke-width:0.5;opacity:1.0;" x1="793.197" x2="793.197" y1="1919" y2="1933"/>
  <text style="stroke:none;fill:black;font-family:sans-serif;font-size:13;font-weight:bold;" transform="matrix(1 0 0 1 776 1953)">Margins</text>
  <text style="stroke:none;fill:black;font-family:sans-serif;font-size:13;" transform="matrix(1 0 0 1 776 1971)">Leading and trailing margins on the left and right side of each symbol</text>
  <text style="stroke:none;fill:black;font-family:sans-serif;font-size:13;" transform="matrix(1 0 0 1 776 1989)">can be adjusted by modifying the x-location of the margin guidelines.</text>
  <text style="stroke:none;fill:black;font-family:sans-serif;font-size:13;" transform="matrix(1 0 0 1 776 2007)">Modifications are automatically applied proportionally to all</text>
  <text style="stroke:none;fill:black;font-family:sans-serif;font-size:13;" transform="matrix(1 0 0 1 776 2025)">scales and weights.</text>
  <g transform="matrix(1 0 0 1 1289 1933)">
   <path d="M2.8418 1.86523L4.54102 3.57422Q5.18555 4.22852 5.90332 4.17969Q6.62109 4.13086 7.31445 3.35938L18.0078-8.42773L17.041-9.4043L6.42578 2.27539Q6.16211 2.57812 5.89355 2.61719Q5.625 2.65625 5.27344 2.30469L4.10156 1.14258Q3.75 0.791016 3.79395 0.522461Q3.83789 0.253906 4.14062-0.0195312L15.6152-10.8203L14.6387-11.7871L3.04688-0.898438Q2.30469-0.214844 2.25098 0.498047Q2.19727 1.21094 2.8418 1.86523ZM9.25781-16.3281Q8.94531-16.0254 8.90625-15.6348Q8.86719-15.2441 9.04297-14.9512Q9.21875-14.6777 9.55566-14.541Q9.89258-14.4043 10.3809-14.5215Q11.4746-14.7754 12.5977-14.7314Q13.7207-14.6875 14.7949-13.9844L14.209-12.5293Q13.9551-11.9043 14.0674-11.4404Q14.1797-10.9766 14.5801-10.5664L16.875-8.25195Q17.2363-7.88086 17.5781-7.82227Q17.9199-7.76367 18.3398-7.8418L19.4043-8.03711L20.0684-7.36328L20.0293-6.80664Q20-6.43555 20.1221-6.12305Q20.2441-5.81055 20.6055-5.44922L21.3672-4.70703Q21.7285-4.3457 22.1533-4.33105Q22.5781-4.31641 22.9297-4.66797L25.8398-7.58789Q26.1914-7.93945 26.1816-8.35449Q26.1719-8.76953 25.8105-9.13086L25.0391-9.89258Q24.6875-10.2539 24.3799-10.3857Q24.0723-10.5176 23.7109-10.4883L23.1348-10.4395L22.4902-11.0742L22.7344-12.1973Q22.832-12.6172 22.6953-12.9834Q22.5586-13.3496 22.1191-13.7891L19.9219-15.9766Q18.6719-17.2168 17.2607-17.8369Q15.8496-18.457 14.4189-18.4814Q12.9883-18.5059 11.665-17.959Q10.3418-17.4121 9.25781-16.3281ZM10.752-15.957Q11.6602-16.6211 12.7002-16.9043Q13.7402-17.1875 14.8047-17.085Q15.8691-16.9824 16.8701-16.5137Q17.8711-16.0449 18.7012-15.2051L21.1328-12.793Q21.3086-12.6172 21.3525-12.4512Q21.3965-12.2852 21.3379-12.0312L21.0156-10.5469L22.5195-9.0625L23.5059-9.12109Q23.6914-9.13086 23.7891-9.09668Q23.8867-9.0625 24.0332-8.91602L24.6094-8.33984L22.168-5.89844L21.5918-6.47461Q21.4453-6.62109 21.4062-6.71875Q21.3672-6.81641 21.377-7.01172L21.4453-7.98828L19.9512-9.47266L18.4277-9.21875Q18.1836-9.16992 18.042-9.2041Q17.9004-9.23828 17.7148-9.41406L15.7129-11.416Q15.5176-11.5918 15.4932-11.7529Q15.4688-11.9141 15.5859-12.1875L16.4648-14.2773Q15.293-15.3711 13.8281-15.791Q12.3633-16.2109 10.8398-15.7617Q10.7227-15.7324 10.6885-15.8057Q10.6543-15.8789 10.752-15.957Z"/>
  </g>
  <text style="stroke:none;fill:black;font-family:sans-serif;font-size:13;font-weight:bold;" transform="matrix(1 0 0 1 1289 1953)">Exporting</text>
  <text style="stroke:none;fill:black;font-family:sans-serif;font-size:13;" transform="matrix(1 0 0 1 1289 1971)">Symbols should be outlined when exporting to ensure the</text>
  <text style="stroke:none;fill:black;font-family:sans-serif;font-size:13;" transform="matrix(1 0 0 1 1289 1989)">design is preserved when submitting to Xcode.</text>
  <text id="template-version" style="stroke:none;fill:black;font-family:sans-serif;font-size:13;text-anchor:end;" transform="matrix(1 0 0 1 3036 1933)">Template v.2.0</text>
  <text style="stroke:none;fill:black;font-family:sans-serif;font-size:13;text-anchor:end;" transform="matrix(1 0 0 1 3036 1951)">Requires Xcode 13 or greater</text>
  <text id="descriptive-name" style="stroke:none;fill:black;font-family:sans-serif;font-size:13;text-anchor:end;" transform="matrix(1 0 0 1 3036 1969)">Generated from person.circle.fill</text>
  <text style="stroke:none;fill:black;font-family:sans-serif;font-size:13;text-anchor:end;" transform="matrix(1 0 0 1 3036 1987)">Typeset at 100 points</text>
  <text style="stroke:none;fill:black;font-family:sans-serif;font-size:13;" transform="matrix(1 0 0 1 263 726)">Small</text>
  <text style="stroke:none;fill:black;font-family:sans-serif;font-size:13;" transform="matrix(1 0 0 1 263 1156)">Medium</text>
  <text style="stroke:none;fill:black;font-family:sans-serif;font-size:13;" transform="matrix(1 0 0 1 263 1586)">Large</text>
 </g>
 <g id="Guides">
  <g id="H-reference" style="fill:#27AAE1;stroke:none;" transform="matrix(1 0 0 1 339 696)">
   <path d="M0.976562 0L3.66211 0L29.3457-67.1387L30.0293-67.1387L30.0293-70.459L28.125-70.459ZM11.6699-24.4629L46.9727-24.4629L46.2402-26.709L12.4512-26.709ZM55.127 0L57.7637 0L30.6152-70.459L29.4434-70.459L29.4434-67.1387Z"/>
  </g>
  <line id="Baseline-S" style="fill:none;stroke:#27AAE1;opacity:1;stroke-width:0.5;" x1="263" x2="3036" y1="696" y2="696"/>
  <line id="Capline-S" style="fill:none;stroke:#27AAE1;opacity:1;stroke-width:0.5;" x1="263" x2="3036" y1="625.541" y2="625.541"/>
  <g id="H-reference" style="fill:#27AAE1;stroke:none;" transform="matrix(1 0 0 1 339 1126)">
   <path d="M0.976562 0L3.66211 0L29.3457-67.1387L30.0293-67.1387L30.0293-70.459L28.125-70.459ZM11.6699-24.4629L46.9727-24.4629L46.2402-26.709L12.4512-26.709ZM55.127 0L57.7637 0L30.6152-70.459L29.4434-70.459L29.4434-67.1387Z"/>
  </g>
  <line id="Baseline-M" style="fill:none;stroke:#27AAE1;opacity:1;stroke-width:0.5;" x1="263" x2="3036" y1="1126" y2="1126"/>
  <line id="Capline-M" style="fill:none;stroke:#27AAE1;opacity:1;stroke-width:0.5;" x1="263" x2="3036" y1="1055.54" y2="1055.54"/>
  <g id="H-reference" style="fill:#27AAE1;stroke:none;" transform="matrix(1 0 0 1 339 1556)">
   <path d="M0.976562 0L3.66211 0L29.3457-67.1387L30.0293-67.1387L30.0293-70.459L28.125-70.459ZM11.6699-24.4629L46.9727-24.4629L46.2402-26.709L12.4512-26.709ZM55.127 0L57.7637 0L30.6152-70.459L29.4434-70.459L29.4434-67.1387Z"/>
  </g>
  <line id="Baseline-L" style="fill:none;stroke:#27AAE1;opacity:1;stroke-width:0.5;" x1="263" x2="3036" y1="1556" y2="1556"/>
  <line id="Capline-L" style="fill:none;stroke:#27AAE1;opacity:1;stroke-width:0.5;" x1="263" x2="3036" y1="1485.54" y2="1485.54"/>
  <line id="left-margin" style="fill:none;stroke:#00AEEF;stroke-width:0.5;opacity:1.0;" x1="1391.3" x2="1391.3" y1="1030.79" y2="1150.12"/>
  <line id="right-margin" style="fill:none;stroke:#00AEEF;stroke-width:0.5;opacity:1.0;" x1="1508.39" x2="1508.39" y1="1030.79" y2="1150.12"/>
 </g>
 <g id="Symbols">
  <g id="Black-L" transform="matrix(1 0 0 1 2854.05 1556)">
   <path d="M79.3457 32.959Q90.5762 32.959 100.757 29.4922Q110.938 26.0254 119.458 19.7754Q127.979 13.5254 134.229 5.00488Q140.479-3.51562 143.945-13.6963Q147.412-23.877 147.412-35.1074Q147.412-46.3379 143.945-56.5186Q140.479-66.6992 134.204-75.2197Q127.93-83.7402 119.434-90.0146Q110.938-96.2891 100.732-99.7314Q90.5273-103.174 79.2969-103.174Q68.1152-103.174 57.9102-99.7314Q47.7051-96.2891 39.209-90.0146Q30.7129-83.7402 24.4385-75.2197Q18.1641-66.6992 14.7217-56.5186Q11.2793-46.3379 11.2793-35.1074Q11.2793-23.877 14.7217-13.6963Q18.1641-3.51562 24.4385 5.00488Q30.7129 13.5254 39.2334 19.7754Q47.7539 26.0254 57.9346 29.4922Q68.1152 32.959 79.3457 32.959ZM52.8809-2.88086Q50-2.88086 48.5352-4.71191Q47.0703-6.54297 47.0703-9.0332Q47.0703-11.1328 48.2666-14.209Q49.4629-17.2852 51.9287-20.6299Q54.3945-23.9746 58.2275-26.9043Q62.0605-29.834 67.3096-31.665Q72.5586-33.4961 79.2969-33.4961Q86.084-33.4961 91.333-31.665Q96.582-29.834 100.415-26.9043Q104.248-23.9746 106.714-20.6299Q109.18-17.2852 110.376-14.209Q111.572-11.1328 111.572-9.0332Q111.572-6.54297 110.107-4.71191Q108.643-2.88086 105.713-2.88086ZM79.2969-38.1348Q74.8047-38.1348 71.0693-40.4785Q67.334-42.8223 65.1123-46.875Q62.8906-50.9277 62.8906-56.0547Q62.8906-60.8398 65.1123-64.7949Q67.334-68.75 71.0693-71.1426Q74.8047-73.5352 79.2969-73.5352Q83.8379-73.5352 87.5732-71.1426Q91.3086-68.75 93.5303-64.7949Q95.752-60.8398 95.752-56.0547Q95.752-50.9277 93.5303-46.875Q91.3086-42.8223 87.5732-40.4785Q83.8379-38.1348 79.2969-38.1348Z"/>
  </g>
  <g id="Heavy-L" transform="matrix(1 0 0 1 2558.39 1556)">
   <path d="M78.2715 31.8848Q89.3555 31.8848 99.3652 28.4668Q109.375 25.0488 117.749 18.8965Q126.123 12.7441 132.3 4.3457Q138.477-4.05273 141.895-14.0625Q145.312-24.0723 145.312-35.1074Q145.312-46.1426 141.895-56.1768Q138.477-66.2109 132.3-74.585Q126.123-82.959 117.749-89.1602Q109.375-95.3613 99.3408-98.7549Q89.3066-102.148 78.2227-102.148Q67.2363-102.148 57.2021-98.7549Q47.168-95.3613 38.7939-89.1602Q30.4199-82.959 24.2432-74.585Q18.0664-66.2109 14.6729-56.1768Q11.2793-46.1426 11.2793-35.1074Q11.2793-24.0723 14.6729-14.0625Q18.0664-4.05273 24.2432 4.3457Q30.4199 12.7441 38.8184 18.8965Q47.2168 25.0488 57.2266 28.4668Q67.2363 31.8848 78.2715 31.8848ZM51.0254-2.73438Q48.4375-2.73438 47.1191-4.37012Q45.8008-6.00586 45.8008-8.30078Q45.8008-10.4004 47.0215-13.501Q48.2422-16.6016 50.7324-19.9951Q53.2227-23.3887 57.1045-26.3672Q60.9863-29.3457 66.2354-31.2012Q71.4844-33.0566 78.2715-33.0566Q85.0586-33.0566 90.332-31.2012Q95.6055-29.3457 99.4629-26.3672Q103.32-23.3887 105.811-19.9951Q108.301-16.6016 109.521-13.501Q110.742-10.4004 110.742-8.30078Q110.742-6.00586 109.424-4.37012Q108.105-2.73438 105.469-2.73438ZM78.2715-37.8418Q73.7305-37.8418 69.9951-40.1855Q66.2598-42.5293 64.0381-46.582Q61.8164-50.6348 61.8164-55.7617Q61.8164-60.5957 64.0381-64.5508Q66.2598-68.5059 69.9951-70.8984Q73.7305-73.291 78.2715-73.291Q82.8125-73.291 86.5479-70.8984Q90.2832-68.5059 92.5049-64.5508Q94.7266-60.5957 94.7266-55.7617Q94.7266-50.6348 92.5049-46.582Q90.2832-42.5293 86.5479-40.1855Q82.8125-37.8418 78.2715-37.8418Z"/>
  </g>
  <g id="Bold-L" transform="matrix(1 0 0 1 2262.85 1556)">
   <path d="M77.0996 30.7129Q87.9395 30.7129 97.7783 27.3438Q107.617 23.9746 115.869 17.9199Q124.121 11.8652 130.176 3.61328Q136.23-4.63867 139.6-14.4775Q142.969-24.3164 142.969-35.1562Q142.969-45.9961 139.6-55.835Q136.23-65.6738 130.151-73.9014Q124.072-82.1289 115.845-88.208Q107.617-94.2871 97.7539-97.6318Q87.8906-100.977 77.0508-100.977Q66.2598-100.977 56.3965-97.6318Q46.5332-94.2871 38.3301-88.208Q30.127-82.1289 24.0479-73.9014Q17.9688-65.6738 14.624-55.835Q11.2793-45.9961 11.2793-35.1562Q11.2793-24.3164 14.624-14.4775Q17.9688-4.63867 24.0479 3.61328Q30.127 11.8652 38.3545 17.9199Q46.582 23.9746 56.4209 27.3438Q66.2598 30.7129 77.0996 30.7129ZM49.0234-2.58789Q46.6797-2.58789 45.5322-4.02832Q44.3848-5.46875 44.3848-7.51953Q44.3848-9.61914 45.6299-12.7686Q46.875-15.918 49.4141-19.3604Q51.9531-22.8027 55.8594-25.8057Q59.7656-28.8086 65.0635-30.7129Q70.3613-32.6172 77.0996-32.6172Q83.8867-32.6172 89.1846-30.7129Q94.4824-28.8086 98.3887-25.8057Q102.295-22.8027 104.834-19.3604Q107.373-15.918 108.618-12.7686Q109.863-9.61914 109.863-7.51953Q109.863-5.46875 108.716-4.02832Q107.568-2.58789 105.225-2.58789ZM77.0996-37.5488Q72.5586-37.5488 68.8232-39.917Q65.0879-42.2852 62.8662-46.3379Q60.6445-50.3906 60.6445-55.5176Q60.6445-60.3516 62.8662-64.3311Q65.0879-68.3105 68.8232-70.7031Q72.5586-73.0957 77.0996-73.0957Q81.6406-73.0957 85.4004-70.7031Q89.1602-68.3105 91.3818-64.3311Q93.6035-60.3516 93.6035-55.5176Q93.6035-50.3906 91.3818-46.3135Q89.1602-42.2363 85.4004-39.8926Q81.6406-37.5488 77.0996-37.5488Z"/>
  </g>
  <g id="Semibold-L" transform="matrix(1 0 0 1 1966.97 1556)">
   <path d="M76.2695 29.8828Q86.9629 29.8828 96.6797 26.5625Q106.396 23.2422 114.551 17.2607Q122.705 11.2793 128.687 3.125Q134.668-5.0293 137.988-14.7461Q141.309-24.4629 141.309-35.1562Q141.309-45.8496 137.988-55.5664Q134.668-65.2832 128.662-73.4131Q122.656-81.543 114.526-87.5488Q106.396-93.5547 96.6553-96.875Q86.9141-100.195 76.2207-100.195Q65.5273-100.195 55.8105-96.875Q46.0938-93.5547 37.9883-87.5488Q29.8828-81.543 23.877-73.4131Q17.8711-65.2832 14.5752-55.5664Q11.2793-45.8496 11.2793-35.1562Q11.2793-24.4629 14.5996-14.7461Q17.9199-5.0293 23.9014 3.125Q29.8828 11.2793 38.0127 17.2607Q46.1426 23.2422 55.8594 26.5625Q65.5762 29.8828 76.2695 29.8828ZM47.5586-2.44141Q45.4102-2.44141 44.3848-3.73535Q43.3594-5.0293 43.3594-6.93359Q43.3594-9.0332 44.6289-12.207Q45.8984-15.3809 48.4619-18.8477Q51.0254-22.3145 54.9316-25.3662Q58.8379-28.418 64.1602-30.3223Q69.4824-32.2266 76.2695-32.2266Q83.0566-32.2266 88.3545-30.3223Q93.6523-28.418 97.583-25.3662Q101.514-22.3145 104.077-18.8477Q106.641-15.3809 107.91-12.207Q109.18-9.0332 109.18-6.93359Q109.18-5.0293 108.13-3.73535Q107.08-2.44141 104.98-2.44141ZM76.2695-37.3047Q71.6797-37.3047 67.9443-39.6729Q64.209-42.041 61.9873-46.1182Q59.7656-50.1953 59.7656-55.3223Q59.7656-60.1074 61.9873-64.1113Q64.209-68.1152 67.9443-70.5078Q71.6797-72.9004 76.2695-72.9004Q80.8105-72.9004 84.5459-70.5078Q88.2812-68.1152 90.5029-64.1113Q92.7246-60.1074 92.7246-55.3223Q92.7246-50.1953 90.5029-46.0938Q88.2812-41.9922 84.5459-39.6484Q80.8105-37.3047 76.2695-37.3047Z"/>
  </g>
  <g id="Medium-L" transform="matrix(1 0 0 1 1670.87 1556)">
   <path d="M75.6836 29.248Q86.2305 29.248 95.8496 25.9521Q105.469 22.6562 113.55 16.7236Q121.631 10.791 127.563 2.73438Q133.496-5.32227 136.792-14.9658Q140.088-24.6094 140.088-35.1562Q140.088-45.752 136.792-55.3711Q133.496-64.9902 127.539-73.0469Q121.582-81.1035 113.525-87.0605Q105.469-93.0176 95.8252-96.2891Q86.1816-99.5605 75.6348-99.5605Q65.0391-99.5605 55.4199-96.2891Q45.8008-93.0176 37.7441-87.0605Q29.6875-81.1035 23.7549-73.0469Q17.8223-64.9902 14.5508-55.3711Q11.2793-45.752 11.2793-35.1562Q11.2793-24.6094 14.5508-14.9658Q17.8223-5.32227 23.7549 2.73438Q29.6875 10.791 37.7686 16.7236Q45.8496 22.6562 55.4688 25.9521Q65.0879 29.248 75.6836 29.248ZM46.4844-2.44141Q44.4824-2.44141 43.5547-3.58887Q42.627-4.73633 42.627-6.54297Q42.627-8.69141 43.8965-11.8652Q45.166-15.0391 47.7539-18.5303Q50.3418-22.0215 54.2725-25.0977Q58.2031-28.1738 63.5498-30.1025Q68.8965-32.0312 75.6348-32.0312Q82.4219-32.0312 87.7686-30.1025Q93.1152-28.1738 97.0459-25.0977Q100.977-22.0215 103.564-18.5303Q106.152-15.0391 107.422-11.8652Q108.691-8.69141 108.691-6.54297Q108.691-4.73633 107.739-3.58887Q106.787-2.44141 104.834-2.44141ZM75.6348-37.1582Q71.0938-37.207 67.3584-39.5508Q63.623-41.8945 61.4014-45.9717Q59.1797-50.0488 59.1797-55.1758Q59.1797-60.0098 61.4014-64.0137Q63.623-68.0176 67.3584-70.4346Q71.0938-72.8516 75.6348-72.8516Q80.1758-72.8516 83.9355-70.4346Q87.6953-68.0176 89.917-64.0137Q92.1387-60.0098 92.1387-55.1758Q92.1387-50.0488 89.917-45.9717Q87.6953-41.8945 83.9355-39.5264Q80.1758-37.1582 75.6348-37.1582Z"/>
  </g>
  <g id="Regular-L" transform="matrix(1 0 0 1 1374.97 1556)">
   <path d="M74.8535 28.418Q85.3027 28.418 94.7998 25.1709Q104.297 21.9238 112.256 16.0645Q120.215 10.2051 126.099 2.24609Q131.982-5.71289 135.229-15.2344Q138.477-24.7559 138.477-35.1562Q138.477-45.6055 135.229-55.1025Q131.982-64.5996 126.099-72.5586Q120.215-80.5176 112.256-86.4014Q104.297-92.2852 94.7754-95.5322Q85.2539-98.7793 74.8047-98.7793Q64.3555-98.7793 54.8584-95.5322Q45.3613-92.2852 37.4268-86.4014Q29.4922-80.5176 23.6084-72.5586Q17.7246-64.5996 14.502-55.1025Q11.2793-45.6055 11.2793-35.1562Q11.2793-24.7559 14.5264-15.2344Q17.7734-5.71289 23.6328 2.24609Q29.4922 10.2051 37.4512 16.0645Q45.4102 21.9238 54.9072 25.1709Q64.4043 28.418 74.8535 28.418ZM45.0684-2.29492Q43.2617-2.29492 42.4561-3.32031Q41.6504-4.3457 41.6504-5.95703Q41.6504-8.10547 42.9443-11.3281Q44.2383-14.5508 46.8506-18.0664Q49.4629-21.582 53.418-24.6826Q57.373-27.7832 62.7197-29.7363Q68.0664-31.6895 74.8535-31.6895Q81.6406-31.6895 86.9873-29.7363Q92.334-27.7832 96.2891-24.6826Q100.244-21.582 102.856-18.0664Q105.469-14.5508 106.763-11.3281Q108.057-8.10547 108.057-5.95703Q108.057-4.3457 107.227-3.32031Q106.396-2.29492 104.639-2.29492ZM74.8535-36.9141Q70.2637-36.9629 66.5283-39.3311Q62.793-41.6992 60.5713-45.7764Q58.3496-49.8535 58.3496-54.9805Q58.3496-59.8145 60.5713-63.8184Q62.793-67.8223 66.5283-70.2393Q70.2637-72.6562 74.8535-72.6562Q79.3945-72.6562 83.1543-70.2393Q86.9141-67.8223 89.1357-63.8184Q91.3574-59.8145 91.3574-54.9805Q91.3574-49.8535 89.1357-45.752Q86.9141-41.6504 83.1543-39.2822Q79.3945-36.9141 74.8535-36.9141Z"/>
  </g>
  <g id="Light-L" transform="matrix(1 0 0 1 1079.18 1556)">
   <path d="M73.9258 27.4902Q84.2285 27.4902 93.6035 24.292Q102.979 21.0938 110.815 15.332Q118.652 9.57031 124.438 1.7334Q130.225-6.10352 133.423-15.4785Q136.621-24.8535 136.621-35.1562Q136.621-45.459 133.423-54.834Q130.225-64.209 124.438-72.0459Q118.652-79.8828 110.815-85.6689Q102.979-91.4551 93.6035-94.6533Q84.2285-97.8516 73.877-97.8516Q63.5742-97.8516 54.2236-94.6533Q44.873-91.4551 37.0361-85.6689Q29.1992-79.8828 23.4131-72.0459Q17.627-64.209 14.4531-54.834Q11.2793-45.459 11.2793-35.1562Q11.2793-24.8535 14.4775-15.4785Q17.6758-6.10352 23.4375 1.7334Q29.1992 9.57031 37.0361 15.332Q44.873 21.0938 54.248 24.292Q63.623 27.4902 73.9258 27.4902ZM43.9453-2.44141Q42.4316-2.44141 41.7969-3.27148Q41.1621-4.10156 41.1621-5.51758Q41.1621-7.66602 42.4316-10.9131Q43.7012-14.1602 46.2891-17.7002Q48.877-21.2402 52.7832-24.3652Q56.6895-27.4902 61.9629-29.4678Q67.2363-31.4453 73.9258-31.4453Q80.6152-31.4453 85.8887-29.4678Q91.1621-27.4902 95.0684-24.3652Q98.9746-21.2402 101.562-17.7002Q104.15-14.1602 105.42-10.9131Q106.689-7.66602 106.689-5.51758Q106.689-4.10156 106.03-3.27148Q105.371-2.44141 103.857-2.44141ZM73.9258-36.6211Q69.3848-36.6699 65.6982-38.9893Q62.0117-41.3086 59.8145-45.3369Q57.6172-49.3652 57.6172-54.4434Q57.6172-59.1797 59.8145-63.1348Q62.0117-67.0898 65.6982-69.4824Q69.3848-71.875 73.9258-71.875Q78.418-71.875 82.1289-69.4824Q85.8398-67.0898 88.0127-63.1348Q90.1855-59.1797 90.1855-54.4434Q90.1855-49.3652 88.0127-45.3125Q85.8398-41.2598 82.1289-38.9404Q78.418-36.6211 73.9258-36.6211Z"/>
  </g>
  <g id="Thin-L" transform="matrix(1 0 0 1 783.693 1556)">
   <path d="M72.7051 26.2695Q82.8613 26.2695 92.041 23.1445Q101.221 20.0195 108.911 14.3799Q116.602 8.74023 122.266 1.0498Q127.93-6.64062 131.055-15.8447Q134.18-25.0488 134.18-35.1562Q134.18-45.3125 131.055-54.4922Q127.93-63.6719 122.29-71.3623Q116.65-79.0527 108.936-84.7168Q101.221-90.3809 92.0166-93.5059Q82.8125-96.6309 72.7051-96.6309Q62.5488-96.6309 53.3691-93.5059Q44.1895-90.3809 36.499-84.7168Q28.8086-79.0527 23.1689-71.3623Q17.5293-63.6719 14.4043-54.4922Q11.2793-45.3125 11.2793-35.1562Q11.2793-25.0488 14.4043-15.8447Q17.5293-6.64062 23.1689 1.0498Q28.8086 8.74023 36.5234 14.3799Q44.2383 20.0195 53.418 23.1445Q62.5977 26.2695 72.7051 26.2695ZM42.5293-2.53906Q41.4062-2.53906 40.9912-3.14941Q40.5762-3.75977 40.5762-4.83398Q40.5762-6.98242 41.8213-10.2539Q43.0664-13.5254 45.5811-17.1143Q48.0957-20.7031 51.9531-23.877Q55.8105-27.0508 60.9863-29.0527Q66.1621-31.0547 72.7051-31.0547Q79.2969-31.0547 84.4971-29.0527Q89.6973-27.0508 93.5303-23.877Q97.3633-20.7031 99.9023-17.1143Q102.441-13.5254 103.687-10.2539Q104.932-6.98242 104.932-4.83398Q104.932-3.75977 104.468-3.14941Q104.004-2.53906 102.93-2.53906ZM72.7051-36.1328Q68.3105-36.1816 64.6729-38.4521Q61.0352-40.7227 58.8867-44.6777Q56.7383-48.6328 56.7383-53.6133Q56.7383-58.3008 58.8867-62.1826Q61.0352-66.0645 64.6729-68.4082Q68.3105-70.752 72.7051-70.752Q77.1484-70.752 80.7861-68.4082Q84.4238-66.0645 86.5723-62.1826Q88.7207-58.3008 88.7207-53.6133Q88.7207-48.6328 86.5723-44.6777Q84.4238-40.7227 80.7861-38.4277Q77.1484-36.1328 72.7051-36.1328Z"/>
  </g>
  <g id="Ultralight-L" transform="matrix(1 0 0 1 487.592 1556)">
   <path d="M72.0703 25.6348Q82.1289 25.6348 91.2354 22.5586Q100.342 19.4824 107.935 13.8916Q115.527 8.30078 121.143 0.683594Q126.758-6.93359 129.858-16.0156Q132.959-25.0977 132.959-35.1562Q132.959-45.2148 129.858-54.3213Q126.758-63.4277 121.167-71.0205Q115.576-78.6133 107.959-84.2285Q100.342-89.8438 91.2354-92.9199Q82.1289-95.9961 72.0703-95.9961Q62.0605-95.9961 52.9541-92.9199Q43.8477-89.8438 36.2305-84.2285Q28.6133-78.6133 23.0225-71.0205Q17.4316-63.4277 14.3555-54.3213Q11.2793-45.2148 11.2793-35.1562Q11.2793-25.0977 14.3555-16.0156Q17.4316-6.93359 23.0225 0.683594Q28.6133 8.30078 36.2305 13.8916Q43.8477 19.4824 52.9541 22.5586Q62.0605 25.6348 72.0703 25.6348ZM41.7969-2.68555Q40.8691-2.68555 40.5518-3.14941Q40.2344-3.61328 40.2344-4.54102Q40.2344-6.68945 41.4551-9.98535Q42.6758-13.2812 45.1904-16.8945Q47.7051-20.5078 51.5137-23.7061Q55.3223-26.9043 60.4736-28.9062Q65.625-30.9082 72.0703-30.9082Q78.6133-30.9082 83.7402-28.9062Q88.8672-26.9043 92.6758-23.7061Q96.4844-20.5078 98.999-16.8945Q101.514-13.2812 102.734-9.98535Q103.955-6.68945 103.955-4.54102Q103.955-3.61328 103.638-3.14941Q103.32-2.68555 102.393-2.68555ZM72.0703-35.9863Q67.7246-35.9863 64.1113-38.2324Q60.498-40.4785 58.374-44.4092Q56.25-48.3398 56.25-53.2715Q56.25-57.9102 58.374-61.7676Q60.498-65.625 64.1113-67.9443Q67.7246-70.2637 72.0703-70.2637Q76.4648-70.2637 80.0781-67.9443Q83.6914-65.625 85.8154-61.7676Q87.9395-57.9102 87.9395-53.2715Q87.9395-48.3398 85.8154-44.4092Q83.6914-40.4785 80.0781-38.2324Q76.4648-35.9863 72.0703-35.9863Z"/>
  </g>
  <g id="Black-M" transform="matrix(1 0 0 1 2871.32 1126)">
   <path d="M62.0605 18.1641Q73.0957 18.1641 82.7637 14.0137Q92.4316 9.86328 99.7559 2.51465Q107.08-4.83398 111.255-14.4775Q115.43-24.1211 115.43-35.1562Q115.43-46.1914 111.255-55.835Q107.08-65.4785 99.7559-72.8271Q92.4316-80.1758 82.7637-84.3262Q73.0957-88.4766 62.0605-88.4766Q51.0742-88.4766 41.4062-84.3262Q31.7383-80.1758 24.3896-72.8271Q17.041-65.4785 12.8906-55.835Q8.74023-46.1914 8.74023-35.1562Q8.74023-24.1211 12.8906-14.4775Q17.041-4.83398 24.3896 2.51465Q31.7383 9.86328 41.4062 14.0137Q51.0742 18.1641 62.0605 18.1641ZM42.2363-10.3516Q39.8926-10.3516 38.6719-11.8652Q37.4512-13.3789 37.4512-15.4297Q37.4512-17.4316 38.8672-20.5566Q40.2832-23.6816 43.2617-26.8311Q46.2402-29.9805 50.9033-32.1045Q55.5664-34.2285 62.1094-34.2285Q68.6035-34.2285 73.291-32.1045Q77.9785-29.9805 80.957-26.8311Q83.9355-23.6816 85.3271-20.5566Q86.7188-17.4316 86.7188-15.4297Q86.7188-13.3789 85.5225-11.8652Q84.3262-10.3516 81.9336-10.3516ZM62.1094-37.6465Q58.6426-37.6465 55.7617-39.4531Q52.8809-41.2598 51.1719-44.3604Q49.4629-47.4609 49.4629-51.416Q49.4629-55.0781 51.1719-58.1299Q52.8809-61.1816 55.7617-63.0127Q58.6426-64.8438 62.1094-64.8438Q65.5762-64.8438 68.4326-63.0127Q71.2891-61.1816 72.998-58.1299Q74.707-55.0781 74.707-51.416Q74.707-47.4609 72.998-44.3604Q71.2891-41.2598 68.4326-39.4531Q65.5762-37.6465 62.1094-37.6465Z"/>
  </g>
  <g id="Heavy-M" transform="matrix(1 0 0 1 2575.43 1126)">
   <path d="M61.2305 17.334Q72.0703 17.334 81.5918 13.2324Q91.1133 9.13086 98.3154 1.9043Q105.518-5.32227 109.644-14.8193Q113.77-24.3164 113.77-35.1562Q113.77-45.9961 109.644-55.4932Q105.518-64.9902 98.3154-72.2412Q91.1133-79.4922 81.5918-83.5693Q72.0703-87.6465 61.2305-87.6465Q50.4395-87.6465 40.918-83.5693Q31.3965-79.4922 24.1699-72.2412Q16.9434-64.9902 12.8418-55.4932Q8.74023-45.9961 8.74023-35.1562Q8.74023-24.3164 12.8418-14.8193Q16.9434-5.32227 24.1699 1.9043Q31.3965 9.13086 40.918 13.2324Q50.4395 17.334 61.2305 17.334ZM40.625-10.1562Q38.4766-10.1562 37.3779-11.5479Q36.2793-12.9395 36.2793-14.7949Q36.2793-16.7969 37.7441-19.9707Q39.209-23.1445 42.2363-26.3428Q45.2637-29.541 49.9756-31.6895Q54.6875-33.8379 61.2305-33.8379Q67.7734-33.8379 72.5098-31.6895Q77.2461-29.541 80.2734-26.3428Q83.3008-23.1445 84.7412-19.9707Q86.1816-16.7969 86.1816-14.7949Q86.1816-12.9395 85.083-11.5479Q83.9844-10.1562 81.8359-10.1562ZM61.2305-37.4512Q57.7637-37.4512 54.8584-39.2578Q51.9531-41.0645 50.2441-44.1895Q48.5352-47.3145 48.5352-51.2695Q48.5352-54.9805 50.2441-58.0566Q51.9531-61.1328 54.8584-62.9639Q57.7637-64.7949 61.2305-64.7949Q64.7461-64.7949 67.627-62.9639Q70.5078-61.1328 72.2168-58.0566Q73.9258-54.9805 73.9258-51.2695Q73.9258-47.3145 72.2168-44.1895Q70.5078-41.0645 67.627-39.2334Q64.7461-37.4023 61.2305-37.4512Z"/>
  </g>
  <g id="Bold-M" transform="matrix(1 0 0 1 2279.65 1126)">
   <path d="M60.3027 16.4062Q70.9473 16.4062 80.2734 12.3779Q89.5996 8.34961 96.7041 1.2207Q103.809-5.9082 107.861-15.2344Q111.914-24.5605 111.914-35.2051Q111.914-45.8008 107.861-55.127Q103.809-64.4531 96.7041-71.582Q89.5996-78.7109 80.249-82.7393Q70.8984-86.7676 60.3027-86.7676Q49.707-86.7676 40.3564-82.7393Q31.0059-78.7109 23.9014-71.582Q16.7969-64.4531 12.7686-55.127Q8.74023-45.8008 8.74023-35.2051Q8.74023-24.5605 12.7686-15.2344Q16.7969-5.9082 23.9258 1.2207Q31.0547 8.34961 40.3809 12.3779Q49.707 16.4062 60.3027 16.4062ZM38.916-10.0098Q36.9629-10.0098 35.9863-11.2061Q35.0098-12.4023 35.0098-14.1113Q35.0098-16.1621 36.5234-19.3604Q38.0371-22.5586 41.1133-25.8057Q44.1895-29.0527 48.9746-31.2256Q53.7598-33.3984 60.3516-33.3984Q66.8945-33.3984 71.6797-31.2256Q76.4648-29.0527 79.5654-25.8057Q82.666-22.5586 84.1553-19.3604Q85.6445-16.1621 85.6445-14.1113Q85.6445-12.4023 84.668-11.2061Q83.6914-10.0098 81.7383-10.0098ZM60.3516-37.207Q56.8359-37.207 53.9307-39.0381Q51.0254-40.8691 49.292-44.0186Q47.5586-47.168 47.5586-51.123Q47.5586-54.834 49.292-57.9346Q51.0254-61.0352 53.9307-62.8906Q56.8359-64.7461 60.3516-64.7461Q63.8672-64.7461 66.748-62.8906Q69.6289-61.0352 71.3623-57.9346Q73.0957-54.834 73.0957-51.123Q73.0957-47.168 71.3623-43.9941Q69.6289-40.8203 66.748-38.9893Q63.8672-37.1582 60.3516-37.207Z"/>
  </g>
  <g id="Semibold-M" transform="matrix(1 0 0 1 1983.6 1126)">
   <path d="M59.668 15.7227Q70.1172 15.7227 79.3457 11.7432Q88.5742 7.76367 95.6055 0.732422Q102.637-6.29883 106.616-15.5029Q110.596-24.707 110.596-35.2051Q110.596-45.6543 106.616-54.8584Q102.637-64.0625 95.6055-71.0938Q88.5742-78.125 79.3457-82.1289Q70.1172-86.1328 59.6191-86.1328Q49.1699-86.1328 39.9658-82.1289Q30.7617-78.125 23.7305-71.0938Q16.6992-64.0625 12.7197-54.8584Q8.74023-45.6543 8.74023-35.2051Q8.74023-24.707 12.7197-15.5029Q16.6992-6.29883 23.7305 0.732422Q30.7617 7.76367 39.9902 11.7432Q49.2188 15.7227 59.668 15.7227ZM37.6953-9.86328Q35.8887-9.86328 35.0098-10.9619Q34.1309-12.0605 34.1309-13.623Q34.1309-15.6738 35.6689-18.9209Q37.207-22.168 40.332-25.415Q43.457-28.6621 48.2666-30.8838Q53.0762-33.1055 59.668-33.1055Q66.2598-33.1055 71.0938-30.8838Q75.9277-28.6621 79.0527-25.415Q82.1777-22.168 83.7158-18.9209Q85.2539-15.6738 85.2539-13.623Q85.2539-12.0605 84.3506-10.9619Q83.4473-9.86328 81.6895-9.86328ZM59.668-37.0117Q56.1523-37.0117 53.2471-38.8428Q50.3418-40.6738 48.584-43.8477Q46.8262-47.0215 46.8262-51.0254Q46.8262-54.7363 48.584-57.8613Q50.3418-60.9863 53.2471-62.8418Q56.1523-64.6973 59.668-64.6973Q63.2324-64.6973 66.1377-62.8418Q69.043-60.9863 70.7764-57.8613Q72.5098-54.7363 72.5098-51.0254Q72.5098-47.0215 70.7764-43.8477Q69.043-40.6738 66.1377-38.8184Q63.2324-36.9629 59.668-37.0117Z"/>
  </g>
  <g id="Medium-M" transform="matrix(1 0 0 1 1687.38 1126)">
   <path d="M59.1797 15.2344Q69.5312 15.2344 78.6621 11.2793Q87.793 7.32422 94.751 0.366211Q101.709-6.5918 105.664-15.7227Q109.619-24.8535 109.619-35.2051Q109.619-45.5566 105.664-54.6875Q101.709-63.8184 94.751-70.7764Q87.793-77.7344 78.6377-81.6895Q69.4824-85.6445 59.1309-85.6445Q48.7793-85.6445 39.6484-81.6895Q30.5176-77.7344 23.584-70.7764Q16.6504-63.8184 12.6953-54.6875Q8.74023-45.5566 8.74023-35.2051Q8.74023-24.8535 12.6953-15.7227Q16.6504-6.5918 23.6084 0.366211Q30.5664 7.32422 39.6973 11.2793Q48.8281 15.2344 59.1797 15.2344ZM36.7676-9.76562Q35.1074-9.76562 34.2773-10.7666Q33.4473-11.7676 33.4473-13.2812Q33.4473-15.332 35.0098-18.5791Q36.5723-21.8262 39.7217-25.1221Q42.8711-28.418 47.7295-30.6396Q52.5879-32.8613 59.1797-32.8613Q65.8203-32.8613 70.6543-30.6396Q75.4883-28.418 78.6621-25.1221Q81.8359-21.8262 83.374-18.5791Q84.9121-15.332 84.9121-13.2812Q84.9121-11.7676 84.1064-10.7666Q83.3008-9.76562 81.5918-9.76562ZM59.1797-36.8652Q55.6641-36.8652 52.7344-38.7207Q49.8047-40.5762 48.0469-43.75Q46.2891-46.9238 46.2891-50.9277Q46.2891-54.6875 48.0469-57.8125Q49.8047-60.9375 52.7344-62.8174Q55.6641-64.6973 59.1797-64.6973Q62.7441-64.6973 65.6494-62.8174Q68.5547-60.9375 70.3125-57.8125Q72.0703-54.6875 72.0703-50.9277Q72.0703-46.9238 70.3125-43.7256Q68.5547-40.5273 65.6494-38.6963Q62.7441-36.8652 59.1797-36.8652Z"/>
  </g>
  <g id="Regular-M" transform="matrix(1 0 0 1 1391.3 1126)">
   <path d="M58.5449 14.5996Q68.75 14.5996 77.7588 10.6934Q86.7676 6.78711 93.6523-0.0976562Q100.537-6.98242 104.443-15.9912Q108.35-25 108.35-35.2051Q108.35-45.4102 104.443-54.4189Q100.537-63.4277 93.6523-70.3125Q86.7676-77.1973 77.7344-81.1035Q68.7012-85.0098 58.4961-85.0098Q48.291-85.0098 39.2822-81.1035Q30.2734-77.1973 23.4131-70.3125Q16.5527-63.4277 12.6465-54.4189Q8.74023-45.4102 8.74023-35.2051Q8.74023-25 12.6465-15.9912Q16.5527-6.98242 23.4375-0.0976562Q30.3223 6.78711 39.3311 10.6934Q48.3398 14.5996 58.5449 14.5996ZM35.5469-9.61914Q34.0332-9.61914 33.3008-10.5225Q32.5684-11.4258 32.5684-12.793Q32.5684-14.8438 34.1553-18.1396Q35.7422-21.4355 38.9404-24.7559Q42.1387-28.0762 47.0215-30.3223Q51.9043-32.5684 58.5449-32.5684Q65.1855-32.5684 70.0684-30.3223Q74.9512-28.0762 78.1494-24.7559Q81.3477-21.4355 82.9346-18.1396Q84.5215-14.8438 84.5215-12.793Q84.5215-11.4258 83.7891-10.5225Q83.0566-9.61914 81.543-9.61914ZM58.5449-36.7188Q54.9805-36.7188 52.0508-38.5742Q49.1211-40.4297 47.3633-43.6279Q45.6055-46.8262 45.6055-50.8301Q45.6055-54.5898 47.3633-57.7393Q49.1211-60.8887 52.0508-62.7686Q54.9805-64.6484 58.5449-64.6484Q62.1094-64.6484 65.0391-62.7686Q67.9688-60.8887 69.7266-57.7393Q71.4844-54.5898 71.4844-50.8301Q71.4844-46.8262 69.7266-43.6035Q67.9688-40.3809 65.0391-38.5254Q62.1094-36.6699 58.5449-36.7188Z"/>
  </g>
  <g id="Light-M" transform="matrix(1 0 0 1 1095.42 1126)">
   <path d="M57.7148 13.7695Q67.7734 13.7695 76.6357 9.93652Q85.498 6.10352 92.2607-0.65918Q99.0234-7.42188 102.856-16.2842Q106.689-25.1465 106.689-35.2051Q106.689-45.2637 102.856-54.126Q99.0234-62.9883 92.2607-69.751Q85.498-76.5137 76.6113-80.3467Q67.7246-84.1797 57.666-84.1797Q47.6074-84.1797 38.7451-80.3467Q29.8828-76.5137 23.1445-69.751Q16.4062-62.9883 12.5732-54.126Q8.74023-45.2637 8.74023-35.2051Q8.74023-25.1465 12.5732-16.2842Q16.4062-7.42188 23.1689-0.65918Q29.9316 6.10352 38.7939 9.93652Q47.6562 13.7695 57.7148 13.7695ZM34.5703-9.76562Q33.3008-9.76562 32.7148-10.498Q32.1289-11.2305 32.1289-12.4023Q32.1289-14.4531 33.6914-17.7734Q35.2539-21.0938 38.4033-24.4385Q41.5527-27.7832 46.3623-30.0781Q51.1719-32.373 57.7148-32.373Q64.2578-32.373 69.0674-30.0781Q73.877-27.7832 77.0264-24.4385Q80.1758-21.0938 81.7383-17.7734Q83.3008-14.4531 83.3008-12.4023Q83.3008-11.2305 82.7148-10.498Q82.1289-9.76562 80.8594-9.76562ZM57.7148-36.4258Q54.1992-36.4258 51.3184-38.2568Q48.4375-40.0879 46.7041-43.2373Q44.9707-46.3867 44.9707-50.3418Q44.9707-54.0527 46.7041-57.1533Q48.4375-60.2539 51.3184-62.1094Q54.1992-63.9648 57.7148-63.9648Q61.2305-63.9648 64.1113-62.1094Q66.9922-60.2539 68.7256-57.1533Q70.459-54.0527 70.459-50.3418Q70.459-46.3867 68.7256-43.2129Q66.9922-40.0391 64.1113-38.2324Q61.2305-36.4258 57.7148-36.4258Z"/>
  </g>
  <g id="Thin-M" transform="matrix(1 0 0 1 799.782 1126)">
   <path d="M56.5918 12.6465Q66.5039 12.6465 75.1709 8.93555Q83.8379 5.22461 90.4297-1.3916Q97.0215-8.00781 100.781-16.6748Q104.541-25.3418 104.541-35.2051Q104.541-45.0684 100.781-53.7354Q97.0215-62.4023 90.4297-69.0186Q83.8379-75.6348 75.1709-79.3457Q66.5039-83.0566 56.5918-83.0566Q46.7285-83.0566 38.0615-79.3457Q29.3945-75.6348 22.8271-69.0186Q16.2598-62.4023 12.5-53.7354Q8.74023-45.0684 8.74023-35.2051Q8.74023-25.3418 12.4756-16.6748Q16.2109-8.00781 22.8027-1.3916Q29.3945 5.22461 38.0859 8.93555Q46.7773 12.6465 56.5918 12.6465ZM33.3008-9.86328Q32.373-9.86328 31.9824-10.376Q31.5918-10.8887 31.5918-11.7676Q31.5918-13.8184 33.1055-17.1875Q34.6191-20.5566 37.7197-23.9746Q40.8203-27.3926 45.5322-29.7119Q50.2441-32.0312 56.6406-32.0312Q63.0371-32.0312 67.749-29.7119Q72.4609-27.3926 75.5615-23.9746Q78.6621-20.5566 80.1758-17.1875Q81.6895-13.8184 81.6895-11.7676Q81.6895-10.8887 81.2988-10.376Q80.9082-9.86328 79.9805-9.86328ZM56.6406-36.0352Q53.1738-36.0352 50.3662-37.793Q47.5586-39.5508 45.874-42.627Q44.1895-45.7031 44.1895-49.6094Q44.1895-53.2715 45.874-56.2988Q47.5586-59.3262 50.3662-61.1572Q53.1738-62.9883 56.6406-62.9883Q60.1074-62.9883 62.9395-61.1572Q65.7715-59.3262 67.4316-56.2988Q69.0918-53.2715 69.0918-49.6094Q69.0918-45.7031 67.4316-42.627Q65.7715-39.5508 62.9395-37.793Q60.1074-36.0352 56.6406-36.0352Z"/>
  </g>
  <g id="Ultralight-M" transform="matrix(1 0 0 1 503.632 1126)">
   <path d="M56.0547 12.1094Q65.8203 12.1094 74.3896 8.42285Q82.959 4.73633 89.4775-1.78223Q95.9961-8.30078 99.707-16.8701Q103.418-25.4395 103.418-35.2051Q103.418-44.9707 99.707-53.54Q95.9961-62.1094 89.4775-68.6279Q82.959-75.1465 74.3896-78.833Q65.8203-82.5195 56.0547-82.5195Q46.2891-82.5195 37.7197-78.833Q29.1504-75.1465 22.6562-68.6279Q16.1621-62.1094 12.4512-53.54Q8.74023-44.9707 8.74023-35.2051Q8.74023-25.4395 12.4268-16.8701Q16.1133-8.30078 22.6318-1.78223Q29.1504 4.73633 37.7197 8.42285Q46.2891 12.1094 56.0547 12.1094ZM32.666-9.96094Q31.8359-9.96094 31.5674-10.3516Q31.2988-10.7422 31.2988-11.5234Q31.2988-13.5742 32.7881-16.9678Q34.2773-20.3613 37.3535-23.7793Q40.4297-27.1973 45.0928-29.5654Q49.7559-31.9336 56.1035-31.9336Q62.4023-31.9336 67.0654-29.5654Q71.7285-27.1973 74.7803-23.7793Q77.832-20.3613 79.3457-16.9678Q80.8594-13.5742 80.8594-11.5234Q80.8594-10.7422 80.5664-10.3516Q80.2734-9.96094 79.541-9.96094ZM56.1035-35.8398Q52.6855-35.8398 49.8779-37.5977Q47.0703-39.3555 45.4102-42.3828Q43.75-45.4102 43.75-49.3164Q43.75-52.9297 45.4102-55.9082Q47.0703-58.8867 49.8779-60.6934Q52.6855-62.5 56.1035-62.5Q59.5215-62.5 62.3047-60.6934Q65.0879-58.8867 66.748-55.9082Q68.4082-52.9297 68.4082-49.3164Q68.4082-45.4102 66.748-42.3828Q65.0879-39.3555 62.3047-37.5977Q59.5215-35.8398 56.1035-35.8398Z"/>
  </g>
  <g id="Black-S" transform="matrix(1 0 0 1 2884.57 696)">
   <path d="M48.8281 6.83594Q57.5195 6.83594 65.1123 3.56445Q72.7051 0.292969 78.4912-5.49316Q84.2773-11.2793 87.5488-18.8721Q90.8203-26.4648 90.8203-35.1562Q90.8203-43.8477 87.5488-51.4404Q84.2773-59.0332 78.4912-64.8193Q72.7051-70.6055 65.1123-73.877Q57.5195-77.1484 48.8281-77.1484Q40.1367-77.1484 32.5439-73.877Q24.9512-70.6055 19.165-64.8193Q13.3789-59.0332 10.1074-51.4404Q6.83594-43.8477 6.83594-35.1562Q6.83594-26.4648 10.1074-18.8721Q13.3789-11.2793 19.165-5.49316Q24.9512 0.292969 32.5439 3.56445Q40.1367 6.83594 48.8281 6.83594ZM33.4961-15.7715Q31.5918-15.7715 30.6152-16.9922Q29.6387-18.2129 29.6387-19.873Q29.6387-21.4355 30.7373-23.877Q31.8359-26.3184 34.1553-28.7598Q36.4746-31.2012 40.1123-32.8613Q43.75-34.5215 48.8281-34.5215Q53.9062-34.5215 57.5439-32.8613Q61.1816-31.2012 63.501-28.7598Q65.8203-26.3184 66.9189-23.877Q68.0176-21.4355 68.0176-19.873Q68.0176-18.2129 67.041-16.9922Q66.0645-15.7715 64.1602-15.7715ZM48.8281-37.1582Q44.7754-37.1582 41.8701-40.2344Q38.9648-43.3105 38.9648-47.9004Q38.9648-52.2461 41.8701-55.3223Q44.7754-58.3984 48.8281-58.3984Q52.8809-58.3984 55.7861-55.3223Q58.6914-52.2461 58.6914-47.9004Q58.6914-43.3105 55.7861-40.2344Q52.8809-37.1582 48.8281-37.1582Z"/>
  </g>
  <g id="Heavy-S" transform="matrix(1 0 0 1 2588.47 696)">
   <path d="M48.1934 6.20117Q56.7871 6.20117 64.2578 2.97852Q71.7285-0.244141 77.4414-5.95703Q83.1543-11.6699 86.377-19.1406Q89.5996-26.6113 89.5996-35.1562Q89.5996-43.7012 86.377-51.1963Q83.1543-58.6914 77.4414-64.4043Q71.7285-70.1172 64.2334-73.3398Q56.7383-76.5625 48.1934-76.5625Q39.6484-76.5625 32.1777-73.3398Q24.707-70.1172 18.9941-64.4043Q13.2812-58.6914 10.0586-51.1963Q6.83594-43.7012 6.83594-35.1562Q6.83594-26.6113 10.0586-19.1406Q13.2812-11.6699 18.9941-5.95703Q24.707-0.244141 32.2021 2.97852Q39.6973 6.20117 48.1934 6.20117ZM32.2754-15.625Q30.5176-15.625 29.6143-16.7236Q28.7109-17.8223 28.7109-19.3848Q28.7109-20.9961 29.834-23.4619Q30.957-25.9277 33.3496-28.3936Q35.7422-30.8594 39.4287-32.5439Q43.1152-34.2285 48.2422-34.2285Q53.3203-34.2285 57.0068-32.5439Q60.6934-30.8594 63.0859-28.3936Q65.4785-25.9277 66.6016-23.4619Q67.7246-20.9961 67.7246-19.3848Q67.7246-17.8223 66.8213-16.7236Q65.918-15.625 64.1602-15.625ZM48.2422-37.0117Q44.1406-37.0117 41.2109-40.1123Q38.2812-43.2129 38.2812-47.8516Q38.2812-52.2461 41.2109-55.3467Q44.1406-58.4473 48.2422-58.4473Q52.3438-58.4473 55.249-55.3467Q58.1543-52.2461 58.1543-47.8516Q58.1543-43.2129 55.249-40.1123Q52.3438-37.0117 48.2422-37.0117Z"/>
  </g>
  <g id="Bold-S" transform="matrix(1 0 0 1 2292.42 696)">
   <path d="M47.5586 5.51758Q55.957 5.51758 63.3057 2.34375Q70.6543-0.830078 76.2695-6.46973Q81.8848-12.1094 85.083-19.458Q88.2812-26.8066 88.2812-35.2051Q88.2812-43.5547 85.083-50.9277Q81.8848-58.3008 76.2695-63.916Q70.6543-69.5312 63.2812-72.7051Q55.9082-75.8789 47.5098-75.8789Q39.1602-75.8789 31.7871-72.7051Q24.4141-69.5312 18.8232-63.916Q13.2324-58.3008 10.0342-50.9277Q6.83594-43.5547 6.83594-35.2051Q6.83594-26.8066 10.0342-19.458Q13.2324-12.1094 18.8477-6.46973Q24.4629-0.830078 31.8115 2.34375Q39.1602 5.51758 47.5586 5.51758ZM30.9082-15.4297Q29.2969-15.4297 28.4912-16.4307Q27.6855-17.4316 27.6855-18.8965Q27.6855-20.459 28.8574-22.9736Q30.0293-25.4883 32.4707-27.9785Q34.9121-30.4688 38.6475-32.1777Q42.3828-33.8867 47.5586-33.8867Q52.7344-33.8867 56.4697-32.1777Q60.2051-30.4688 62.6465-27.9785Q65.0879-25.4883 66.2598-22.9736Q67.4316-20.459 67.4316-18.8965Q67.4316-17.4316 66.626-16.4307Q65.8203-15.4297 64.209-15.4297ZM47.5586-36.8652Q43.4082-36.8652 40.4541-39.9902Q37.5-43.1152 37.5-47.8027Q37.5-52.2461 40.4541-55.3955Q43.4082-58.5449 47.5586-58.5449Q51.709-58.5449 54.6631-55.3955Q57.6172-52.2461 57.6172-47.8027Q57.6172-43.1152 54.6631-39.9658Q51.709-36.8164 47.5586-36.8652Z"/>
  </g>
  <g id="Semibold-S" transform="matrix(1 0 0 1 1996.2 696)">
   <path d="M47.0703 5.0293Q55.3711 5.0293 62.6465 1.9043Q69.9219-1.2207 75.4639-6.81152Q81.0059-12.4023 84.1553-19.6777Q87.3047-26.9531 87.3047-35.2051Q87.3047-43.457 84.1553-50.7324Q81.0059-58.0078 75.4395-63.5742Q69.873-69.1406 62.5977-72.29Q55.3223-75.4395 47.0215-75.4395Q38.7695-75.4395 31.4941-72.29Q24.2188-69.1406 18.6768-63.5742Q13.1348-58.0078 9.98535-50.7324Q6.83594-43.457 6.83594-35.2051Q6.83594-26.9531 9.98535-19.6777Q13.1348-12.4023 18.7012-6.81152Q24.2676-1.2207 31.543 1.9043Q38.8184 5.0293 47.0703 5.0293ZM29.9316-15.2832Q28.418-15.2832 27.6855-16.2109Q26.9531-17.1387 26.9531-18.5059Q26.9531-20.1172 28.1494-22.6318Q29.3457-25.1465 31.8115-27.6855Q34.2773-30.2246 38.0615-31.9336Q41.8457-33.6426 47.0703-33.6426Q52.2461-33.6426 56.0303-31.9336Q59.8145-30.2246 62.2803-27.6855Q64.7461-25.1465 65.9668-22.6318Q67.1875-20.1172 67.1875-18.5059Q67.1875-17.1387 66.4307-16.2109Q65.6738-15.2832 64.1602-15.2832ZM47.0703-36.7188Q42.8711-36.7676 39.917-39.917Q36.9629-43.0664 36.9629-47.7539Q36.9629-52.1973 39.917-55.3711Q42.8711-58.5449 47.0703-58.5449Q51.2695-58.5449 54.2236-55.3711Q57.1777-52.1973 57.1777-47.7539Q57.1777-43.0664 54.2236-39.8682Q51.2695-36.6699 47.0703-36.7188Z"/>
  </g>
  <g id="Medium-S" transform="matrix(1 0 0 1 1699.83 696)">
   <path d="M46.7285 4.6875Q54.9316 4.6875 62.1338 1.5625Q69.3359-1.5625 74.8535-7.08008Q80.3711-12.5977 83.4961-19.7998Q86.6211-27.002 86.6211-35.2051Q86.6211-43.3594 83.4961-50.5859Q80.3711-57.8125 74.8291-63.3301Q69.2871-68.8477 62.085-71.9482Q54.8828-75.0488 46.6797-75.0488Q38.4766-75.0488 31.2744-71.9482Q24.0723-68.8477 18.5791-63.3301Q13.0859-57.8125 9.96094-50.5859Q6.83594-43.3594 6.83594-35.2051Q6.83594-27.002 9.96094-19.7998Q13.0859-12.5977 18.6035-7.08008Q24.1211-1.5625 31.3232 1.5625Q38.5254 4.6875 46.7285 4.6875ZM29.248-15.2344Q27.832-15.2344 27.124-16.0889Q26.416-16.9434 26.416-18.2129Q26.416-19.8242 27.6367-22.3633Q28.8574-24.9023 31.3477-27.4414Q33.8379-29.9805 37.6709-31.7383Q41.5039-33.4961 46.7285-33.4961Q51.9043-33.4961 55.7373-31.7383Q59.5703-29.9805 62.0605-27.4414Q64.5508-24.9023 65.7715-22.3633Q66.9922-19.8242 66.9922-18.2129Q66.9922-16.9434 66.3086-16.0889Q65.625-15.2344 64.1602-15.2344ZM46.7285-36.6211Q42.5293-36.6699 39.5264-39.8193Q36.5234-42.9688 36.5234-47.7539Q36.5234-52.1973 39.5264-55.3955Q42.5293-58.5938 46.7285-58.5938Q50.9277-58.5938 53.9062-55.3955Q56.8848-52.1973 56.8848-47.7539Q56.8848-42.9688 53.9062-39.7949Q50.9277-36.6211 46.7285-36.6211Z"/>
  </g>
  <g id="Regular-S" transform="matrix(1 0 0 1 1403.58 696)">
   <path d="M46.2402 4.19922Q54.3457 4.19922 61.4746 1.12305Q68.6035-1.95312 74.0479-7.42188Q79.4922-12.8906 82.5928-20.0195Q85.6934-27.1484 85.6934-35.2051Q85.6934-43.2617 82.5928-50.3906Q79.4922-57.5195 74.0234-62.9883Q68.5547-68.457 61.4258-71.5332Q54.2969-74.6094 46.1914-74.6094Q38.1348-74.6094 31.0059-71.5332Q23.877-68.457 18.457-62.9883Q13.0371-57.5195 9.93652-50.3906Q6.83594-43.2617 6.83594-35.2051Q6.83594-27.1484 9.93652-20.0195Q13.0371-12.8906 18.4814-7.42188Q23.9258-1.95312 31.0547 1.12305Q38.1836 4.19922 46.2402 4.19922ZM28.3203-15.0879Q27.002-15.0879 26.3672-15.8691Q25.7324-16.6504 25.7324-17.8711Q25.7324-19.4824 26.9775-22.0459Q28.2227-24.6094 30.7617-27.1729Q33.3008-29.7363 37.1582-31.4941Q41.0156-33.252 46.2891-33.252Q51.5137-33.252 55.3711-31.4941Q59.2285-29.7363 61.7676-27.1729Q64.3066-24.6094 65.5518-22.0459Q66.7969-19.4824 66.7969-17.8711Q66.7969-16.6504 66.1621-15.8691Q65.5273-15.0879 64.209-15.0879ZM46.2891-36.5234Q42.041-36.5723 39.0381-39.7461Q36.0352-42.9199 36.0352-47.7051Q36.0352-52.1973 39.0381-55.4199Q42.041-58.6426 46.2891-58.6426Q50.5371-58.6426 53.5156-55.4199Q56.4941-52.1973 56.4941-47.7051Q56.4941-42.9199 53.5156-39.6973Q50.5371-36.4746 46.2891-36.5234Z"/>
  </g>
  <g id="Light-S" transform="matrix(1 0 0 1 1107.6 696)">
   <path d="M45.5078 3.4668Q53.4668 3.4668 60.4736 0.463867Q67.4805-2.53906 72.8271-7.91016Q78.1738-13.2812 81.2012-20.2637Q84.2285-27.2461 84.2285-35.2051Q84.2285-43.1641 81.2012-50.1465Q78.1738-57.1289 72.8027-62.5Q67.4316-67.8711 60.4492-70.874Q53.4668-73.877 45.459-73.877Q37.5488-73.877 30.542-70.874Q23.5352-67.8711 18.2129-62.5Q12.8906-57.1289 9.86328-50.1465Q6.83594-43.1641 6.83594-35.2051Q6.83594-27.2461 9.86328-20.2637Q12.8906-13.2812 18.2373-7.91016Q23.584-2.53906 30.5908 0.463867Q37.5977 3.4668 45.5078 3.4668ZM27.4414-15.2344Q26.3672-15.2344 25.8545-15.8691Q25.3418-16.5039 25.3418-17.5293Q25.3418-19.1406 26.5625-21.7285Q27.7832-24.3164 30.2734-26.9043Q32.7637-29.4922 36.5723-31.2988Q40.3809-33.1055 45.5566-33.1055Q50.6836-33.1055 54.4922-31.2988Q58.3008-29.4922 60.791-26.9043Q63.2812-24.3164 64.502-21.7285Q65.7227-19.1406 65.7227-17.5293Q65.7227-16.5039 65.21-15.8691Q64.6973-15.2344 63.623-15.2344ZM45.5566-36.2793Q41.3574-36.3281 38.4277-39.4531Q35.498-42.5781 35.498-47.2656Q35.498-51.709 38.4277-54.8584Q41.3574-58.0078 45.5566-58.0078Q49.707-58.0078 52.6367-54.8584Q55.5664-51.709 55.5664-47.2656Q55.5664-42.5781 52.6367-39.4287Q49.707-36.2793 45.5566-36.2793Z"/>
  </g>
  <g id="Thin-S" transform="matrix(1 0 0 1 811.867 696)">
   <path d="M44.5312 2.49023Q52.3438 2.49023 59.1553-0.439453Q65.9668-3.36914 71.1914-8.59375Q76.416-13.8184 79.3457-20.6299Q82.2754-27.4414 82.2754-35.2051Q82.2754-42.9688 79.3457-49.7803Q76.416-56.5918 71.1914-61.8164Q65.9668-67.041 59.1553-69.9707Q52.3438-72.9004 44.5312-72.9004Q36.7676-72.9004 29.9316-69.9707Q23.0957-67.041 17.9199-61.8164Q12.7441-56.5918 9.79004-49.7803Q6.83594-42.9688 6.83594-35.2051Q6.83594-27.4414 9.79004-20.6299Q12.7441-13.8184 17.9199-8.59375Q23.0957-3.36914 29.9316-0.439453Q36.7676 2.49023 44.5312 2.49023ZM26.2695-15.332Q25.4883-15.332 25.1465-15.7715Q24.8047-16.2109 24.8047-16.9922Q24.8047-18.6035 26.001-21.2158Q27.1973-23.8281 29.6387-26.4893Q32.0801-29.1504 35.791-30.9814Q39.502-32.8125 44.5312-32.8125Q49.5605-32.8125 53.2715-30.9814Q56.9824-29.1504 59.4238-26.4893Q61.8652-23.8281 63.0615-21.2158Q64.2578-18.6035 64.2578-16.9922Q64.2578-16.2109 63.916-15.7715Q63.5742-15.332 62.793-15.332ZM44.5312-35.9375Q40.4297-35.9375 37.5732-38.9893Q34.7168-42.041 34.7168-46.6309Q34.7168-50.9277 37.5732-54.0283Q40.4297-57.1289 44.5312-57.1289Q48.6328-57.1289 51.4893-54.0283Q54.3457-50.9277 54.3457-46.6309Q54.3457-42.041 51.4893-38.9893Q48.6328-35.9375 44.5312-35.9375Z"/>
  </g>
  <g id="Ultralight-S" transform="matrix(1 0 0 1 515.644 696)">
   <path d="M44.043 2.00195Q51.7578 2.00195 58.4717-0.878906Q65.1855-3.75977 70.3369-8.91113Q75.4883-14.0625 78.3936-20.7764Q81.2988-27.4902 81.2988-35.2051Q81.2988-42.9199 78.3936-49.6338Q75.4883-56.3477 70.3369-61.499Q65.1855-66.6504 58.4717-69.5312Q51.7578-72.4121 44.043-72.4121Q36.377-72.4121 29.6387-69.5312Q22.9004-66.6504 17.7734-61.499Q12.6465-56.3477 9.74121-49.6338Q6.83594-42.9199 6.83594-35.2051Q6.83594-27.4902 9.74121-20.7764Q12.6465-14.0625 17.7734-8.91113Q22.9004-3.75977 29.6387-0.878906Q36.377 2.00195 44.043 2.00195ZM25.6836-15.4297Q25.0488-15.4297 24.8047-15.7715Q24.5605-16.1133 24.5605-16.748Q24.5605-18.3594 25.7324-21.0205Q26.9043-23.6816 29.3213-26.3428Q31.7383-29.0039 35.4004-30.8594Q39.0625-32.7148 44.043-32.7148Q49.0234-32.7148 52.71-30.8594Q56.3965-29.0039 58.7891-26.3428Q61.1816-23.6816 62.3535-21.0205Q63.5254-18.3594 63.5254-16.748Q63.5254-16.1133 63.2812-15.7715Q63.0371-15.4297 62.4023-15.4297ZM44.043-35.791Q39.9902-35.791 37.1826-38.7939Q34.375-41.7969 34.375-46.3379Q34.375-50.6348 37.1826-53.6865Q39.9902-56.7383 44.043-56.7383Q48.0957-56.7383 50.9033-53.6865Q53.7109-50.6348 53.7109-46.3379Q53.7109-41.7969 50.9033-38.7939Q48.0957-35.791 44.043-35.791Z"/>
  </g>
 </g>
</svg>
